{"glyphs":{"0":{"ha":758,"x_min":29,"x_max":769,"o":"m 309 -14 q 174 13 228 -14 q 87 87 119 40 q 42 197 56 134 q 29 333 29 260 q 44 519 29 429 q 89 689 60 610 q 160 835 118 769 q 254 949 201 901 q 369 1023 307 996 q 502 1049 431 1049 q 621 1025 570 1049 q 704 957 671 1001 q 753 852 737 913 q 769 715 769 790 q 763 606 769 664 q 745 487 758 548 q 714 366 733 427 q 667 249 694 304 q 605 145 640 193 q 525 62 570 97 q 427 6 481 26 q 309 -14 373 -14 m 500 966 q 434 938 467 966 q 373 862 402 910 q 319 748 344 813 q 276 609 294 683 q 247 455 258 534 q 237 298 237 376 q 240 222 237 259 q 254 155 244 184 q 281 109 264 126 q 328 91 299 91 q 394 118 361 91 q 454 194 426 146 q 506 306 482 241 q 546 446 529 371 q 571 602 562 521 q 581 764 581 683 q 576 841 581 804 q 561 906 571 878 q 536 950 551 934 q 500 966 521 966 z "},"1":{"ha":440,"x_min":29,"x_max":450,"o":"m 29 0 l 212 867 l 81 867 l 97 930 q 161 933 125 930 q 239 947 196 936 q 335 980 283 958 q 450 1039 387 1001 l 229 0 l 29 0 z "},"2":{"ha":684,"x_min":-17,"x_max":656,"o":"m 603 237 q 621 151 621 189 q 605 82 621 113 q 564 30 590 52 q 505 -5 538 7 q 435 -17 471 -17 q 368 -8 401 -17 q 298 11 334 1 q 226 30 263 21 q 151 39 189 39 q 77 30 115 39 q -3 -1 39 21 l -9 -1 q -17 64 -17 32 q 4 158 -16 113 q 57 246 24 203 q 131 331 90 289 q 216 414 173 372 q 301 500 259 456 q 375 590 342 543 q 427 686 408 636 q 447 793 447 736 q 441 862 447 830 q 422 916 435 893 q 390 951 410 939 q 343 964 370 964 q 298 956 319 964 q 264 931 278 947 q 241 896 250 916 q 233 852 233 875 q 253 765 233 801 q 300 713 273 730 l 300 708 q 248 674 276 686 q 195 661 220 661 q 156 671 174 661 q 124 699 138 680 q 102 744 111 717 q 94 805 94 770 q 113 889 94 846 q 169 965 132 931 q 260 1021 205 1000 q 386 1042 315 1042 q 494 1025 445 1042 q 580 975 544 1008 q 636 896 616 943 q 656 789 656 848 q 638 695 656 739 q 592 612 621 652 q 524 537 562 573 q 443 467 485 501 q 356 400 400 433 q 273 334 313 368 q 200 264 233 300 q 146 191 168 229 q 190 199 170 197 q 231 201 210 201 q 297 196 266 201 q 358 185 329 191 q 413 174 387 179 q 463 170 439 170 q 531 185 498 170 q 599 240 563 200 l 603 237 z "},"3":{"ha":714,"x_min":8,"x_max":692,"o":"m 501 579 q 580 541 547 564 q 634 487 613 517 q 666 422 656 457 q 676 350 676 387 q 664 265 676 308 q 627 183 651 222 q 569 109 604 143 q 492 48 535 74 q 396 8 448 22 q 285 -7 344 -7 q 236 -4 264 -7 q 177 7 208 -1 q 116 31 146 16 q 62 73 86 47 q 23 137 38 99 q 8 229 8 176 q 19 309 8 273 q 51 372 29 346 q 103 413 72 399 q 176 428 134 428 q 213 425 195 428 q 245 413 231 421 q 270 391 260 404 q 285 357 281 377 q 221 338 245 354 q 184 300 197 322 q 167 253 171 278 q 163 207 163 228 q 173 152 163 176 q 199 113 182 129 q 236 89 215 97 q 281 81 258 81 q 345 95 313 81 q 402 139 376 109 q 445 213 429 168 q 461 318 461 257 q 450 397 461 357 q 417 472 439 437 q 360 536 395 507 q 277 581 325 564 q 379 628 335 597 q 454 696 424 659 q 499 774 484 734 q 514 851 514 814 q 508 897 514 876 q 488 933 501 918 q 455 957 475 948 q 408 965 435 965 q 363 957 383 965 q 328 936 342 949 q 306 902 314 922 q 298 857 298 882 q 301 827 298 843 q 310 798 304 812 q 327 773 317 784 q 351 758 337 762 q 298 723 326 734 q 245 711 271 711 q 207 719 225 711 q 175 742 189 727 q 154 779 161 757 q 146 829 146 801 q 168 916 146 877 q 229 982 191 954 q 320 1025 268 1010 q 433 1040 373 1040 q 546 1024 497 1040 q 627 979 594 1007 q 675 914 659 951 q 692 838 692 878 q 680 767 692 803 q 644 698 668 732 q 585 634 621 665 q 501 579 549 604 z "},"4":{"ha":661,"x_min":-3,"x_max":663,"o":"m 363 299 q 275 324 320 311 q 182 336 231 336 q 108 331 146 336 q 32 307 70 326 l 26 307 l -3 361 l -3 368 q 110 510 56 438 q 207 653 165 581 q 275 796 250 725 q 301 935 301 867 q 298 979 301 957 q 290 1021 296 1000 q 325 1028 306 1026 q 359 1030 343 1030 q 416 1021 392 1030 q 458 996 441 1012 q 483 957 475 979 q 492 910 492 935 q 476 837 492 876 q 433 755 460 797 q 370 670 406 713 q 297 587 335 627 q 219 511 258 547 q 146 448 180 475 l 147 444 q 204 461 170 453 q 271 469 237 469 q 341 462 303 469 q 415 448 378 455 l 528 772 l 616 772 l 548 450 q 592 474 570 458 q 636 515 614 490 l 640 513 q 657 474 652 493 q 663 437 663 455 q 651 384 663 409 q 620 340 640 359 q 573 306 600 320 q 513 286 545 292 l 453 0 l 260 0 l 363 299 z "},"5":{"ha":718,"x_min":21,"x_max":697,"o":"m 274 -7 q 86 46 151 -7 q 21 195 21 98 q 34 275 21 239 q 71 336 47 311 q 128 376 95 362 q 201 390 161 390 q 300 319 286 390 q 209 279 243 313 q 175 191 175 245 q 204 114 175 141 q 281 86 233 86 q 356 105 322 86 q 414 158 390 124 q 452 239 438 193 q 465 342 465 286 q 425 492 465 440 q 313 543 385 543 q 230 528 274 543 q 131 480 186 513 l 112 494 l 220 1019 q 339 1006 281 1012 q 452 1001 397 1001 q 571 1010 512 1001 q 694 1040 630 1019 q 696 1017 696 1029 q 697 994 697 1006 q 689 932 697 961 q 662 881 680 903 q 612 846 643 859 q 538 833 582 833 q 478 838 510 833 q 415 848 446 842 q 355 860 383 854 q 306 868 326 865 l 250 616 q 422 660 339 660 q 524 640 479 660 q 602 583 570 620 q 651 493 633 546 q 668 374 668 439 q 640 218 668 288 q 559 98 611 149 q 435 21 508 48 q 274 -7 362 -7 z "},"6":{"ha":694,"x_min":22,"x_max":709,"o":"m 458 631 q 545 615 506 631 q 612 568 585 599 q 656 492 640 536 q 671 391 671 448 q 658 290 671 340 q 621 196 645 241 q 563 115 597 152 q 489 51 530 78 q 402 8 448 24 q 306 -7 355 -7 q 180 14 233 -7 q 91 79 126 35 q 39 192 56 123 q 22 359 22 262 q 40 542 22 454 q 88 704 57 629 q 163 842 119 780 q 261 948 208 904 q 377 1016 315 992 q 507 1040 439 1040 q 590 1029 553 1040 q 654 997 627 1018 q 694 947 680 977 q 709 883 709 918 q 701 833 709 857 q 680 792 693 810 q 647 765 666 775 q 607 755 629 755 q 564 768 584 755 q 536 800 545 780 q 570 834 559 811 q 582 880 582 857 q 577 909 582 895 q 564 935 573 924 q 541 952 555 945 q 509 958 528 958 q 425 924 467 958 q 346 828 382 889 q 281 683 309 767 q 237 500 252 599 l 242 501 q 324 599 267 566 q 458 631 381 631 m 225 304 q 233 211 225 249 q 255 148 241 172 q 290 113 269 123 q 335 102 310 102 q 393 123 364 102 q 444 183 421 145 q 480 274 467 222 q 494 387 494 326 q 486 455 494 427 q 463 500 477 483 q 428 525 448 517 q 383 533 408 533 q 311 517 340 533 q 262 471 281 500 q 234 398 243 441 q 225 304 225 356 z "},"7":{"ha":644,"x_min":79,"x_max":724,"o":"m 724 1029 q 707 970 724 1006 q 660 886 689 933 q 595 783 631 839 q 520 667 558 728 q 445 542 481 606 q 379 413 408 477 q 333 286 351 349 q 315 164 315 222 q 322 90 315 127 q 340 20 329 53 q 291 1 315 7 q 243 -5 266 -5 q 185 6 211 -5 q 141 39 159 18 q 114 92 123 61 q 104 163 104 123 q 121 271 104 216 q 168 379 139 326 q 233 483 196 432 q 308 581 270 534 q 383 671 346 629 q 448 750 420 714 q 494 814 477 786 q 512 863 512 843 q 465 850 486 855 q 419 844 443 844 q 374 849 396 844 q 330 860 352 854 q 286 870 309 865 q 238 875 263 875 q 165 858 197 875 q 101 803 134 842 l 97 804 q 83 847 87 825 q 79 889 79 869 q 93 956 79 926 q 132 1006 106 985 q 193 1039 157 1027 q 270 1050 228 1050 q 336 1043 305 1050 q 397 1028 366 1036 q 461 1013 428 1020 q 534 1006 494 1006 q 619 1013 572 1006 q 722 1035 667 1020 l 724 1029 z "},"8":{"ha":693,"x_min":-3,"x_max":698,"o":"m -3 256 q 13 348 -3 305 q 60 429 28 391 q 142 500 92 467 q 261 564 192 533 q 214 616 236 589 q 174 672 191 644 q 146 732 157 701 q 136 797 136 763 q 159 896 136 850 q 222 977 182 942 q 316 1031 262 1011 q 435 1051 371 1051 q 539 1037 491 1051 q 622 998 587 1023 q 676 937 656 972 q 698 859 696 902 q 648 727 698 789 q 494 608 597 665 q 558 546 526 578 q 614 479 589 515 q 655 403 640 444 q 672 314 671 362 q 645 191 672 249 q 569 89 617 132 q 455 19 521 45 q 313 -8 389 -7 q 187 11 244 -8 q 88 64 130 29 q 22 147 46 98 q -3 256 -2 196 m 466 261 q 453 329 465 296 q 420 391 440 361 q 373 450 399 421 q 318 507 347 479 q 216 397 252 462 q 180 258 180 333 q 190 188 180 219 q 218 134 200 156 q 259 99 235 111 q 313 87 283 87 q 374 101 346 87 q 422 139 402 115 q 454 194 443 163 q 466 261 466 226 m 333 846 q 341 795 333 820 q 363 749 349 771 q 395 705 377 726 q 435 663 414 684 q 483 712 462 686 q 518 767 503 739 q 541 824 533 795 q 549 880 549 853 q 524 957 549 929 q 456 985 499 985 q 407 974 429 985 q 368 945 384 964 q 342 902 351 927 q 333 846 333 876 z "},"9":{"ha":679,"x_min":18,"x_max":684,"o":"m 251 418 q 163 435 203 418 q 96 482 124 451 q 53 558 68 513 q 37 659 37 602 q 52 759 37 710 q 92 850 66 807 q 153 928 117 892 q 232 989 189 964 q 324 1028 275 1015 q 425 1042 373 1042 q 619 951 554 1042 q 684 677 684 859 q 667 494 684 582 q 621 331 651 407 q 549 194 591 256 q 456 88 507 132 q 345 20 404 44 q 220 -4 285 -4 q 136 7 174 -4 q 73 39 99 18 q 33 89 47 60 q 18 153 18 117 q 26 203 18 180 q 47 244 33 227 q 78 272 60 262 q 118 282 96 282 q 163 270 143 282 q 189 237 182 257 q 156 203 168 225 q 144 158 144 181 q 161 111 144 132 q 214 90 178 90 q 298 125 257 90 q 373 222 339 160 q 433 368 408 283 q 471 550 458 452 l 467 549 q 385 451 441 484 q 251 418 328 418 m 485 775 q 482 830 485 800 q 469 887 479 860 q 438 932 458 914 q 383 951 418 951 q 316 925 347 951 q 262 859 285 900 q 227 766 239 818 q 214 663 214 715 q 221 597 214 625 q 241 553 228 570 q 272 528 254 536 q 311 519 290 519 q 392 538 359 519 q 446 591 425 557 q 476 672 467 625 q 485 775 485 719 z "}," ":{"ha":301,"x_min":0,"x_max":0,"o":""},"!":{"ha":357,"x_min":45,"x_max":456,"o":"m 136 321 l 242 1015 l 456 1044 l 254 321 l 136 321 m 266 103 q 257 60 266 80 q 234 24 249 39 q 199 1 219 9 q 156 -8 179 -8 q 113 1 133 -8 q 78 24 93 9 q 54 60 62 39 q 45 103 45 80 q 54 146 45 126 q 78 180 62 165 q 113 204 93 195 q 156 212 133 212 q 199 204 179 212 q 234 180 219 195 q 257 146 249 165 q 266 103 266 126 z "},"#":{"ha":916,"x_min":83,"x_max":823,"o":"m 163 684 l 307 684 l 357 935 l 459 935 l 408 684 l 587 684 l 638 935 l 740 935 l 688 684 l 823 684 l 802 576 l 667 576 l 632 406 l 764 406 l 743 298 l 610 298 l 558 39 l 457 39 l 509 298 l 330 298 l 277 39 l 176 39 l 229 298 l 83 298 l 104 406 l 250 406 l 285 576 l 142 576 l 163 684 m 351 406 l 531 406 l 566 576 l 386 576 l 351 406 z "},"&":{"ha":947,"x_min":20,"x_max":921,"o":"m 788 378 q 759 373 772 374 q 732 370 745 371 q 686 208 722 281 q 594 83 650 135 q 464 3 538 31 q 302 -25 390 -25 q 184 -8 237 -25 q 96 41 132 9 q 39 119 59 73 q 20 222 20 165 q 40 337 20 281 q 95 442 60 394 q 176 525 130 490 q 277 576 223 561 l 277 582 q 239 619 254 600 q 215 659 224 637 q 201 704 205 680 q 197 758 197 728 q 221 867 197 815 q 287 958 245 919 q 384 1021 328 998 q 501 1044 439 1044 q 589 1030 549 1044 q 657 990 629 1016 q 702 929 686 964 q 718 852 718 894 q 710 800 718 824 q 689 760 703 777 q 655 733 675 743 q 612 724 635 724 q 565 735 587 724 q 528 766 543 746 q 569 814 553 782 q 585 882 585 846 q 565 943 585 920 q 513 965 546 965 q 458 949 484 965 q 413 905 433 932 q 381 841 393 877 q 370 765 370 804 q 407 648 370 695 q 510 583 444 600 l 510 578 q 415 538 460 568 q 335 464 370 508 q 281 368 301 420 q 261 261 261 315 q 297 149 261 189 q 397 109 334 109 q 487 127 443 109 q 569 181 532 146 q 633 264 606 216 q 670 370 660 312 q 639 368 654 370 q 606 361 624 366 q 541 329 570 349 q 497 287 513 310 l 494 286 q 478 310 484 298 q 468 336 472 323 q 465 394 459 366 q 486 444 470 421 q 526 484 502 467 q 579 510 551 500 q 626 520 602 517 q 673 525 650 523 q 721 529 697 527 q 765 536 744 531 q 799 550 781 541 q 831 570 816 559 q 859 592 846 581 q 879 614 871 603 l 882 614 q 901 589 894 602 q 912 563 908 576 q 914 505 921 534 q 890 451 907 476 q 846 408 872 427 q 788 378 819 389 z "},"(":{"ha":607,"x_min":208,"x_max":739,"o":"m 739 1004 q 635 922 684 972 q 545 809 587 873 q 471 671 504 746 q 414 514 437 597 q 379 343 391 431 q 366 164 366 254 q 393 -84 366 31 q 471 -289 419 -200 l 425 -329 q 332 -214 372 -277 q 264 -80 292 -151 q 222 68 237 -9 q 208 228 208 146 q 245 486 208 360 q 348 720 281 611 q 510 916 415 829 q 720 1060 604 1004 l 739 1004 z "},")":{"ha":574,"x_min":-95,"x_max":435,"o":"m -95 -273 q 8 -192 -41 -241 q 98 -79 57 -142 q 173 59 140 -16 q 229 216 206 134 q 265 388 252 299 q 277 567 277 476 q 251 815 277 700 q 173 1019 224 930 l 219 1060 q 312 944 271 1007 q 379 811 352 882 q 421 662 407 740 q 435 503 435 585 q 399 245 435 370 q 295 11 362 119 q 134 -185 229 -98 q -77 -329 39 -273 l -95 -273 z "},"*":{"ha":715,"x_min":119,"x_max":601,"o":"m 395 850 q 469 921 436 900 q 531 943 502 943 q 582 921 563 943 q 601 864 601 899 q 600 854 601 859 q 598 846 600 850 l 418 787 q 502 767 469 778 q 553 743 534 756 q 578 716 572 730 q 585 684 585 701 q 583 663 585 673 q 575 643 581 653 q 560 623 570 633 q 535 600 550 612 l 395 724 q 412 655 406 686 q 418 598 418 624 q 344 511 418 511 q 318 514 332 511 q 286 522 303 517 l 320 724 q 248 653 279 673 q 188 633 216 633 q 138 655 157 633 q 119 712 119 677 q 119 722 119 717 q 120 730 119 726 l 296 787 q 212 807 245 796 q 160 830 179 818 q 135 858 142 843 q 128 888 128 872 q 131 910 128 900 q 139 930 133 920 q 155 950 145 940 q 180 973 165 961 l 320 850 q 302 919 309 888 q 296 975 296 949 q 370 1062 296 1062 q 397 1059 382 1062 q 430 1051 412 1057 l 395 850 z "},",":{"ha":300,"x_min":33,"x_max":237,"o":"m 57 -175 q 45 -151 45 -167 q 56 -118 45 -133 q 81 -89 67 -103 q 105 -60 94 -75 q 117 -25 117 -45 q 112 -11 117 -18 q 98 3 108 -3 q 52 45 70 20 q 33 104 33 70 q 42 148 33 127 q 65 182 50 168 q 100 206 80 197 q 143 215 120 215 q 213 185 189 215 q 237 110 237 156 q 225 42 237 79 q 190 -34 213 4 q 133 -109 167 -73 q 57 -175 100 -146 z "},"-":{"ha":403,"x_min":26,"x_max":329,"o":"m 26 309 l 52 418 l 329 418 l 306 309 l 26 309 z "},".":{"ha":366,"x_min":43,"x_max":264,"o":"m 264 104 q 255 61 264 81 q 231 26 246 41 q 196 3 216 12 q 153 -5 176 -5 q 110 3 130 -5 q 75 26 90 12 q 51 61 60 41 q 43 104 43 81 q 51 148 43 127 q 75 182 60 168 q 110 206 90 197 q 153 215 130 215 q 196 206 176 215 q 231 182 216 197 q 255 148 246 168 q 264 104 264 127 z "},"/":{"ha":432,"x_min":16,"x_max":410,"o":"m 16 -347 l 310 1042 l 410 1042 l 115 -347 l 16 -347 z "},":":{"ha":371,"x_min":57,"x_max":347,"o":"m 278 187 q 269 144 278 164 q 245 110 260 124 q 210 86 230 95 q 167 78 190 78 q 124 86 144 78 q 89 110 104 95 q 65 144 74 124 q 57 187 57 164 q 65 231 57 210 q 89 266 74 251 q 124 290 104 281 q 167 298 144 298 q 210 290 190 298 q 245 266 230 281 q 269 231 260 251 q 278 187 278 210 m 347 521 q 338 478 347 498 q 314 443 330 458 q 279 419 299 428 q 236 411 259 411 q 193 419 213 411 q 158 443 173 428 q 135 478 143 458 q 126 521 126 498 q 135 564 126 544 q 158 599 143 584 q 193 623 173 614 q 236 632 213 632 q 279 623 259 632 q 314 599 299 614 q 338 564 330 584 q 347 521 347 544 z "},";":{"ha":383,"x_min":64,"x_max":351,"o":"m 351 460 q 342 417 351 437 q 318 382 334 397 q 283 358 303 367 q 240 350 263 350 q 197 358 217 350 q 162 382 177 367 q 139 417 148 397 q 131 460 131 437 q 139 503 131 483 q 162 538 148 523 q 197 562 177 553 q 240 571 217 571 q 283 562 263 571 q 318 538 303 553 q 342 503 334 523 q 351 460 351 483 m 87 -153 q 75 -129 75 -144 q 86 -96 75 -111 q 111 -66 98 -81 q 136 -37 125 -52 q 147 -3 147 -22 q 143 12 147 5 q 129 25 138 19 q 82 67 100 43 q 64 126 64 92 q 72 169 64 149 q 96 204 81 189 q 131 229 111 220 q 174 237 151 237 q 244 208 220 237 q 268 132 268 178 q 256 64 268 102 q 220 -12 243 26 q 164 -87 197 -50 q 87 -153 130 -123 z "},"=":{"ha":715,"x_min":45,"x_max":650,"o":"m 106 439 l 139 595 l 650 595 l 618 439 l 106 439 m 45 140 l 78 296 l 589 296 l 557 140 l 45 140 z "},"?":{"ha":612,"x_min":64,"x_max":600,"o":"m 409 861 q 385 955 409 922 q 316 987 360 987 q 273 979 293 987 q 239 955 254 970 q 217 919 225 939 q 209 873 209 898 q 227 808 209 838 q 275 764 245 777 l 275 758 q 223 723 250 735 q 170 711 195 711 q 129 720 148 711 q 97 744 111 728 q 77 780 84 759 q 70 828 70 802 q 92 920 70 878 q 153 994 114 962 q 244 1042 191 1025 q 357 1060 296 1060 q 458 1047 414 1060 q 535 1009 503 1034 q 583 948 566 984 q 600 868 600 913 q 584 787 600 823 q 543 719 568 750 q 485 659 517 687 q 419 602 452 630 q 353 545 385 574 q 295 483 320 516 q 254 410 269 450 q 238 322 238 370 l 146 322 q 158 415 146 374 q 188 491 169 456 q 230 556 206 526 q 278 613 253 585 q 326 667 302 640 q 368 723 349 694 q 398 787 387 753 q 409 861 409 821 m 286 111 q 277 68 286 88 q 254 33 269 48 q 219 9 239 18 q 176 0 199 0 q 133 9 153 0 q 97 33 113 18 q 73 68 82 48 q 64 111 64 88 q 73 154 64 134 q 97 189 82 174 q 133 213 113 204 q 176 221 153 221 q 219 213 199 221 q 254 189 239 204 q 277 154 269 174 q 286 111 286 134 z "},"@":{"ha":956,"x_min":-13,"x_max":903,"o":"m 652 22 q 637 -30 652 -7 q 596 -72 622 -54 q 538 -103 571 -90 q 469 -124 505 -116 q 397 -137 433 -133 q 331 -141 361 -141 q 198 -124 260 -141 q 89 -66 136 -106 q 15 43 42 -25 q -13 212 -13 111 q 7 378 -13 298 q 65 530 28 459 q 155 660 102 602 q 272 761 208 719 q 410 827 336 804 q 564 850 484 850 q 699 830 637 850 q 806 770 761 810 q 877 671 852 730 q 903 532 903 611 q 891 429 903 479 q 860 334 880 378 q 811 252 840 290 q 750 188 783 215 q 680 146 718 161 q 604 131 643 131 q 530 153 558 131 q 499 218 502 175 q 423 143 462 169 q 339 117 384 117 q 257 153 286 117 q 227 260 227 189 q 237 342 227 300 q 265 423 248 385 q 307 496 283 462 q 359 554 332 530 q 418 594 387 579 q 480 608 449 608 q 518 600 502 608 q 553 570 534 591 l 576 605 l 681 595 l 616 350 q 603 297 609 321 q 597 254 597 273 q 598 239 597 247 q 603 225 600 231 q 611 215 606 219 q 625 211 616 211 q 672 237 645 211 q 723 306 699 262 q 763 408 747 350 q 780 528 780 465 q 727 693 780 637 q 574 749 674 749 q 456 729 514 749 q 347 672 398 709 q 253 586 296 636 q 179 477 210 536 q 131 353 148 418 q 113 220 113 288 q 127 107 113 154 q 170 30 142 60 q 241 -15 199 -1 q 339 -29 283 -29 q 421 -21 381 -29 q 497 4 462 -12 q 563 43 533 20 q 615 95 593 66 q 642 70 631 87 q 652 22 652 52 m 542 518 q 527 529 534 526 q 512 532 519 532 q 460 506 486 532 q 411 442 433 481 q 375 358 389 404 q 361 271 361 312 q 370 226 361 240 q 399 212 379 212 q 419 216 409 212 q 440 225 430 219 q 458 238 450 231 q 472 256 467 246 l 542 518 z "},"A":{"ha":928,"x_min":12,"x_max":961,"o":"m 543 0 l 650 504 q 553 539 597 528 q 464 554 509 550 q 392 380 425 469 q 335 206 359 290 q 297 47 311 121 q 283 -81 283 -26 q 289 -131 283 -114 q 302 -158 295 -149 q 242 -155 275 -158 q 182 -139 210 -153 q 135 -95 154 -125 q 117 -11 117 -65 q 131 100 117 35 q 173 238 146 164 q 237 394 200 313 q 321 554 275 475 q 213 534 255 550 q 158 482 172 518 q 170 468 163 482 q 176 439 176 454 q 154 399 176 414 q 98 385 131 385 q 64 390 80 385 q 37 405 49 395 q 19 430 26 414 q 12 465 12 445 q 34 532 12 500 q 93 586 55 563 q 183 623 131 609 q 296 636 235 636 q 368 632 324 636 q 480 790 421 715 q 602 920 539 864 q 727 1009 664 976 q 851 1042 790 1042 q 906 1038 876 1042 q 961 1022 936 1034 l 743 0 l 543 0 m 743 943 q 680 895 712 926 q 616 820 648 863 q 553 725 585 777 q 493 614 522 672 q 578 594 535 606 q 663 566 622 582 l 743 943 z "},"B":{"ha":890,"x_min":17,"x_max":842,"o":"m 139 0 l 328 884 l 533 911 l 468 603 l 476 603 q 554 623 517 603 q 617 676 590 644 q 660 749 644 709 q 676 828 676 789 q 666 884 676 857 q 634 932 656 911 q 577 965 612 953 q 493 978 543 978 q 411 969 452 978 q 331 941 369 960 q 258 895 292 922 q 200 829 224 867 q 160 744 175 791 q 146 640 146 697 q 149 597 146 614 q 156 571 152 581 q 162 555 159 561 q 165 546 165 550 q 56 574 95 546 q 17 673 17 603 q 36 767 17 722 q 89 854 55 813 q 171 929 123 895 q 274 989 218 964 q 392 1028 330 1014 q 521 1042 455 1042 q 653 1023 597 1042 q 745 974 709 1004 q 799 903 781 943 q 817 821 817 863 q 808 758 817 789 q 781 699 799 727 q 738 645 764 670 q 677 600 711 619 q 753 571 722 592 q 804 519 785 549 q 833 452 824 489 q 842 376 842 416 q 835 300 842 343 q 814 213 829 258 q 777 126 800 169 q 720 50 754 83 q 641 -3 686 17 q 538 -24 596 -24 q 491 -20 515 -24 q 447 -4 467 -16 q 413 27 427 7 q 400 79 400 47 q 404 117 400 97 q 418 160 408 136 q 466 121 444 132 q 511 110 488 110 q 575 134 549 110 q 618 195 602 158 q 641 276 634 232 q 648 359 648 320 q 642 428 648 395 q 620 484 635 460 q 580 522 605 508 q 517 536 555 536 q 490 536 508 536 q 453 532 473 535 l 339 0 l 139 0 z "},"C":{"ha":690,"x_min":26,"x_max":743,"o":"m 726 236 q 651 117 699 166 q 548 37 604 68 q 436 -8 493 6 q 330 -22 378 -22 q 196 -4 253 -22 q 101 55 139 14 q 45 161 64 96 q 26 319 26 226 q 32 423 26 367 q 51 538 38 479 q 84 659 64 598 q 132 775 104 719 q 198 880 161 831 q 282 964 235 928 q 386 1021 329 1000 q 511 1042 443 1042 q 602 1031 559 1042 q 676 998 644 1021 q 725 941 707 976 q 743 856 743 905 q 738 805 743 828 q 721 764 733 781 q 691 737 709 747 q 646 728 672 728 q 608 734 629 728 q 567 764 587 740 q 591 783 579 770 q 611 813 602 796 q 625 851 620 831 q 631 892 631 871 q 626 924 631 908 q 612 951 622 939 q 585 969 602 962 q 546 977 569 977 q 471 948 507 977 q 402 871 435 920 q 343 758 370 823 q 298 622 317 694 q 268 474 279 550 q 257 328 257 398 q 264 240 257 279 q 290 172 271 200 q 341 127 309 143 q 424 111 373 111 q 576 148 506 111 q 694 250 646 184 l 726 236 z "},"D":{"ha":921,"x_min":8,"x_max":896,"o":"m 131 0 l 319 884 l 525 911 l 358 132 q 437 104 396 104 q 515 130 479 104 q 580 200 551 156 q 633 304 610 245 q 672 432 656 364 q 696 573 688 500 q 704 715 704 645 q 689 836 704 786 q 648 917 675 886 q 584 963 621 949 q 501 978 547 978 q 357 955 424 978 q 242 888 291 932 q 165 782 193 844 q 138 640 138 720 q 141 597 138 614 q 147 571 144 581 q 154 555 151 561 q 157 546 157 550 q 47 575 87 546 q 8 675 8 604 q 27 768 8 722 q 79 854 45 814 q 161 929 113 895 q 266 989 208 964 q 389 1028 323 1014 q 525 1042 454 1042 q 646 1027 592 1042 q 741 985 699 1012 q 811 921 782 958 q 860 840 841 884 q 887 745 878 795 q 896 642 896 694 q 882 482 896 562 q 842 329 867 402 q 781 192 817 256 q 703 82 745 129 q 611 8 660 35 q 511 -18 563 -18 q 429 -1 471 -18 q 342 56 387 17 l 330 0 l 131 0 z "},"E":{"ha":637,"x_min":9,"x_max":685,"o":"m 672 236 q 601 127 644 175 q 504 45 558 79 q 389 -7 450 11 q 265 -25 328 -25 q 150 -5 198 -25 q 70 49 101 15 q 24 127 39 83 q 9 220 9 171 q 27 332 9 275 q 78 438 45 389 q 158 526 111 488 q 267 579 206 564 q 202 655 222 612 q 182 746 182 699 q 204 853 182 800 q 268 949 227 906 q 364 1018 308 991 q 486 1044 420 1044 q 564 1033 528 1044 q 627 1000 600 1022 q 670 946 654 979 q 685 871 685 913 q 677 813 685 840 q 654 767 669 787 q 622 737 640 748 q 582 726 603 726 q 517 764 544 726 q 540 781 529 768 q 560 810 551 793 q 573 847 568 827 q 578 885 578 867 q 571 921 578 906 q 554 945 564 936 q 529 958 543 954 q 501 962 515 962 q 444 945 470 962 q 399 901 418 928 q 370 838 380 873 q 359 766 359 803 q 367 707 359 736 q 392 653 375 677 q 436 609 409 628 q 500 581 463 591 q 430 553 463 572 q 369 508 397 534 q 320 450 342 482 q 283 384 298 418 q 260 315 268 350 q 252 249 252 281 q 259 194 252 220 q 282 149 267 168 q 323 119 298 130 q 383 109 348 109 q 452 117 415 109 q 524 144 489 126 q 590 189 559 162 q 640 250 621 215 l 672 236 z "},"F":{"ha":637,"x_min":12,"x_max":842,"o":"m 122 0 l 322 928 q 249 912 282 926 q 192 866 216 899 q 155 779 168 833 q 142 640 142 724 q 145 597 142 614 q 152 571 148 581 q 158 555 155 561 q 161 546 161 550 q 98 553 125 546 q 51 576 70 560 q 22 617 32 591 q 12 681 12 643 q 38 815 12 750 q 120 930 64 880 q 267 1011 177 981 q 486 1042 357 1042 q 533 1039 507 1042 q 589 1033 559 1036 q 651 1027 618 1030 q 717 1025 684 1025 q 781 1028 749 1025 q 842 1042 812 1032 q 828 995 835 1020 q 809 945 822 969 q 773 902 796 922 q 710 875 750 883 q 612 882 661 875 q 515 901 564 890 l 457 625 l 660 625 l 637 522 l 435 522 l 322 0 l 122 0 z "},"G":{"ha":803,"x_min":26,"x_max":789,"o":"m 758 581 l 656 114 q 603 -65 634 10 q 531 -191 572 -141 q 437 -264 490 -240 q 321 -288 385 -288 q 229 -274 270 -288 q 158 -235 187 -260 q 112 -175 128 -210 q 96 -98 96 -140 q 110 -23 96 -58 q 150 38 125 12 q 209 79 175 64 q 283 94 243 94 q 369 68 336 94 q 401 -1 401 43 q 386 -54 401 -34 q 352 -28 373 -37 q 307 -18 330 -18 q 268 -25 286 -18 q 238 -46 251 -33 q 219 -77 226 -59 q 212 -118 212 -96 q 219 -158 212 -140 q 238 -190 226 -177 q 266 -211 250 -203 q 302 -218 283 -218 q 385 -175 351 -218 q 439 -47 420 -132 l 508 260 l 503 260 q 411 179 465 208 q 294 151 358 151 q 183 176 233 151 q 99 247 134 201 q 45 357 64 292 q 26 503 26 422 q 43 651 26 580 q 94 783 61 722 q 172 893 126 844 q 274 978 218 943 q 396 1032 331 1013 q 533 1051 461 1051 q 640 1038 592 1051 q 720 1000 687 1025 q 771 940 753 975 q 789 860 789 904 q 781 806 789 830 q 759 764 773 781 q 726 737 745 747 q 683 728 706 728 q 634 739 657 728 q 595 771 611 750 q 618 793 608 779 q 637 824 629 807 q 650 861 646 842 q 655 899 655 880 q 631 963 655 941 q 562 986 607 986 q 481 967 521 986 q 405 913 441 947 q 339 832 370 880 q 287 730 309 785 q 252 613 264 675 q 240 486 240 551 q 273 327 240 381 q 369 272 306 272 q 502 350 445 272 q 594 582 558 429 l 758 581 z "},"H":{"ha":924,"x_min":17,"x_max":964,"o":"m 543 0 l 654 522 l 450 522 l 339 0 l 139 0 l 340 945 q 197 829 248 906 q 146 640 146 752 q 149 597 146 614 q 156 571 152 581 q 162 555 159 561 q 165 546 165 550 q 102 553 130 546 q 55 576 74 560 q 26 617 36 591 q 17 681 17 643 q 37 772 17 727 q 92 857 57 817 q 173 930 126 897 q 275 989 220 964 q 387 1028 329 1014 q 504 1042 446 1042 q 533 1041 519 1042 q 559 1039 546 1040 l 471 625 l 675 625 l 764 1039 l 964 1039 l 743 0 l 543 0 z "},"I":{"ha":521,"x_min":8,"x_max":551,"o":"m 131 0 l 332 943 q 189 829 239 905 q 138 640 138 753 q 141 597 138 614 q 147 571 144 581 q 154 555 151 561 q 157 546 157 550 q 93 553 121 546 q 46 576 65 560 q 18 617 28 591 q 8 681 8 643 q 28 772 8 727 q 83 857 48 817 q 165 930 118 897 q 266 989 212 964 q 379 1028 320 1014 q 496 1042 437 1042 q 525 1041 511 1042 q 551 1039 538 1040 l 330 0 l 131 0 z "},"J":{"ha":745,"x_min":24,"x_max":803,"o":"m 585 945 q 441 830 493 907 q 389 640 389 753 q 392 597 389 614 q 398 571 395 581 q 405 555 402 561 q 408 546 408 550 q 345 553 372 546 q 298 576 317 560 q 270 617 279 591 q 260 681 260 643 q 280 772 260 727 q 335 857 300 817 q 417 930 370 897 q 518 989 464 964 q 630 1028 572 1014 q 747 1042 689 1042 l 803 1042 l 595 56 q 551 -87 578 -24 q 480 -196 524 -151 q 376 -264 437 -240 q 229 -288 315 -288 q 141 -273 179 -288 q 76 -233 102 -259 q 37 -172 50 -208 q 24 -92 24 -136 q 35 -23 24 -56 q 67 37 46 11 q 120 78 89 62 q 193 94 152 94 q 238 92 214 94 q 282 81 262 90 q 316 53 302 72 q 329 1 329 35 q 321 -54 329 -23 q 297 -36 308 -43 q 276 -25 286 -29 q 257 -20 267 -21 q 237 -18 248 -18 q 195 -27 213 -18 q 164 -50 176 -36 q 146 -83 153 -64 q 140 -121 140 -102 q 150 -166 140 -148 q 173 -197 159 -185 q 203 -213 186 -208 q 235 -218 220 -218 q 277 -212 258 -218 q 312 -187 296 -205 q 341 -135 328 -169 q 367 -47 355 -102 l 585 945 z "},"K":{"ha":835,"x_min":8,"x_max":922,"o":"m 131 0 l 332 945 q 189 829 239 906 q 138 640 138 752 q 141 597 138 614 q 147 571 144 581 q 154 555 151 561 q 157 546 157 550 q 93 553 121 546 q 46 576 65 560 q 18 617 28 591 q 8 681 8 643 q 28 772 8 727 q 83 857 48 817 q 165 930 118 897 q 266 989 212 964 q 379 1028 320 1014 q 496 1042 437 1042 q 525 1041 511 1042 q 551 1039 538 1040 l 461 614 q 500 666 478 636 q 548 730 522 696 q 600 799 573 764 q 652 869 627 835 q 700 933 677 903 q 739 986 722 964 q 766 1022 756 1009 q 777 1035 777 1035 l 922 1035 l 536 590 q 562 591 550 590 q 585 591 573 591 q 669 580 635 591 q 722 549 702 569 q 749 502 741 529 q 757 443 757 475 q 746 352 757 399 q 723 257 736 304 q 700 168 710 210 q 689 92 689 125 q 704 34 689 59 q 743 0 718 9 q 665 -18 699 -13 q 606 -24 631 -24 q 551 -15 572 -24 q 518 6 530 -7 q 502 36 506 20 q 497 69 497 53 q 509 151 497 104 q 534 247 520 197 q 559 346 548 297 q 571 435 571 395 q 567 473 571 456 q 553 503 562 490 q 527 522 543 515 q 488 529 511 529 q 466 528 478 529 q 441 524 454 527 l 330 0 l 131 0 z "},"L":{"ha":526,"x_min":8,"x_max":921,"o":"m 332 929 q 189 815 239 891 q 138 627 138 740 q 141 584 138 600 q 147 557 144 567 q 154 541 151 547 q 157 532 157 536 q 93 539 121 532 q 46 562 65 546 q 18 604 28 578 q 8 667 8 629 q 28 758 8 713 q 83 842 48 802 q 165 917 118 882 q 266 976 212 951 q 379 1014 320 1000 q 496 1028 437 1028 q 525 1027 511 1028 q 551 1025 538 1026 l 338 28 q 410 3 374 20 q 484 -34 446 -14 q 559 -74 521 -54 q 637 -112 597 -95 q 719 -140 677 -130 q 804 -151 760 -151 q 862 -146 833 -151 q 921 -129 890 -142 q 902 -219 915 -179 q 871 -288 890 -260 q 829 -332 853 -317 q 777 -347 805 -347 q 679 -324 727 -347 q 582 -266 631 -300 q 484 -190 534 -231 q 382 -114 435 -149 q 274 -55 330 -79 q 157 -32 218 -32 q 141 -32 149 -32 q 125 -33 134 -32 l 332 929 z "},"M":{"ha":1093,"x_min":93,"x_max":1117,"o":"m 771 0 l 860 624 l 599 0 l 408 0 l 436 627 l 204 0 l 93 0 l 446 954 q 283 841 342 920 q 225 642 225 762 q 228 597 225 614 q 235 571 231 581 q 241 556 238 561 q 244 546 244 551 q 183 553 210 546 q 136 574 155 559 q 106 613 117 589 q 96 672 96 637 q 114 761 96 716 q 163 847 132 806 q 237 923 195 888 q 329 985 280 959 q 432 1027 378 1012 q 538 1042 485 1042 q 643 1022 590 1042 l 611 290 l 917 1022 l 1117 1022 l 971 0 l 771 0 z "},"N":{"ha":928,"x_min":8,"x_max":998,"o":"m 998 1039 l 771 0 l 579 0 l 418 689 l 260 0 l 128 0 l 337 951 q 193 846 241 918 q 144 673 144 775 q 154 592 144 629 q 182 532 164 555 q 51 568 93 532 q 8 682 8 604 q 23 778 8 732 q 66 865 39 824 q 132 939 94 905 q 218 997 171 972 q 318 1034 264 1021 q 430 1047 372 1047 q 487 1043 463 1047 q 540 1028 511 1038 l 707 285 l 863 1039 l 998 1039 z "},"O":{"ha":924,"x_min":22,"x_max":911,"o":"m 599 911 q 537 851 567 892 q 479 757 507 811 q 430 640 452 703 q 390 511 407 576 q 365 382 374 446 q 355 265 355 319 q 360 200 355 230 q 374 150 365 171 q 399 116 384 128 q 436 104 414 104 q 506 132 471 104 q 574 205 541 159 q 634 314 606 252 q 682 447 662 376 q 714 591 703 517 q 726 734 726 665 q 719 841 726 795 q 692 917 712 886 q 638 963 673 947 q 549 978 604 978 q 397 953 469 978 q 269 882 324 928 q 181 769 214 836 q 149 621 149 703 q 151 588 149 600 q 156 567 153 575 q 160 555 158 559 q 163 546 163 550 q 59 572 96 546 q 22 663 22 599 q 43 758 22 711 q 102 847 64 805 q 192 925 140 890 q 307 987 244 961 q 439 1027 369 1013 q 582 1042 509 1042 q 736 1015 673 1042 q 838 942 799 989 q 893 829 876 895 q 911 686 911 764 q 898 542 911 619 q 859 387 886 464 q 791 238 832 310 q 693 112 750 167 q 563 25 636 58 q 399 -8 490 -8 q 298 7 344 -8 q 220 55 253 22 q 168 141 186 88 q 150 271 150 195 q 160 397 150 327 q 192 539 171 467 q 244 681 213 612 q 318 804 276 750 q 412 890 359 857 q 526 922 464 922 q 562 920 544 922 q 599 911 579 918 z "},"P":{"ha":796,"x_min":8,"x_max":823,"o":"m 131 0 l 319 884 l 525 911 l 427 447 q 493 466 462 450 q 552 508 525 482 q 601 566 579 533 q 638 636 623 600 q 661 712 653 673 q 669 789 669 751 q 660 862 669 827 q 629 922 650 896 q 575 963 608 948 q 497 978 543 978 q 346 955 412 978 q 233 888 279 932 q 162 782 186 845 q 138 640 138 720 q 141 597 138 614 q 147 571 144 581 q 154 555 151 561 q 157 546 157 550 q 93 553 121 546 q 46 576 65 560 q 18 617 28 591 q 8 681 8 643 q 28 772 8 727 q 83 857 48 817 q 165 930 118 897 q 266 989 212 964 q 379 1028 320 1014 q 496 1042 437 1042 q 643 1019 581 1042 q 745 958 705 996 q 804 871 785 920 q 823 768 823 822 q 796 635 823 702 q 716 516 768 569 q 590 429 665 463 q 422 396 516 396 l 415 396 l 330 0 l 131 0 z "},"Q":{"ha":924,"x_min":22,"x_max":911,"o":"m 850 -37 q 820 -97 836 -73 q 787 -133 804 -120 q 749 -152 769 -146 q 707 -157 729 -157 q 630 -142 661 -157 q 581 -103 600 -127 q 550 -50 562 -79 q 528 11 538 -20 q 465 -3 497 1 q 399 -8 433 -8 q 298 7 344 -8 q 220 55 253 22 q 168 141 186 88 q 150 271 150 195 q 160 397 150 327 q 192 539 171 467 q 244 681 213 612 q 318 804 276 750 q 412 890 359 857 q 526 922 464 922 q 562 920 544 922 q 599 911 579 918 q 537 851 567 892 q 479 757 507 811 q 430 640 452 703 q 390 511 407 576 q 365 382 374 446 q 355 265 355 319 q 355 234 355 248 q 358 205 355 219 q 405 215 384 212 q 444 218 427 218 q 507 208 481 218 q 555 180 534 197 q 621 289 590 225 q 676 427 652 353 q 713 580 699 501 q 726 734 726 659 q 719 841 726 795 q 692 917 712 886 q 638 963 673 947 q 549 978 604 978 q 397 953 469 978 q 269 882 324 928 q 181 769 214 836 q 149 621 149 703 q 151 588 149 600 q 156 567 153 575 q 160 555 158 559 q 163 546 163 550 q 59 572 96 546 q 22 663 22 599 q 43 758 22 711 q 102 847 64 805 q 192 925 140 890 q 307 987 244 961 q 439 1027 369 1013 q 582 1042 509 1042 q 736 1015 673 1042 q 838 942 799 989 q 893 829 876 895 q 911 686 911 764 q 904 583 911 637 q 883 471 897 528 q 848 358 869 414 q 797 249 826 301 q 729 152 767 197 q 646 72 692 106 q 677 29 661 50 q 715 -6 694 9 q 761 -31 735 -22 q 819 -40 787 -40 q 834 -39 827 -40 q 850 -37 842 -39 m 489 119 q 458 154 476 140 q 410 167 439 167 q 390 166 400 167 q 370 161 380 165 q 436 104 388 104 q 463 108 449 104 q 489 119 476 111 z "},"R":{"ha":835,"x_min":8,"x_max":811,"o":"m 131 0 l 319 884 l 525 911 l 457 590 l 468 590 q 548 613 511 590 q 610 671 584 636 q 651 749 636 707 q 665 832 665 792 q 656 888 665 861 q 629 934 648 914 q 582 966 611 954 q 513 978 553 978 q 359 955 428 978 q 241 888 290 932 q 164 782 191 844 q 138 640 138 720 q 141 597 138 614 q 147 571 144 581 q 154 555 151 561 q 157 546 157 550 q 93 553 121 546 q 46 576 65 560 q 18 617 28 591 q 8 681 8 643 q 28 772 8 727 q 83 857 48 817 q 165 930 118 897 q 266 989 212 964 q 379 1028 320 1014 q 496 1042 437 1042 q 637 1023 578 1042 q 735 973 696 1004 q 792 902 774 942 q 811 819 811 862 q 801 754 811 787 q 772 690 791 722 q 725 631 753 659 q 661 582 697 603 q 707 561 688 574 q 736 529 726 547 q 752 489 747 511 q 757 443 757 467 q 746 352 757 399 q 723 257 736 304 q 700 168 710 210 q 689 92 689 125 q 704 34 689 59 q 743 0 718 9 q 665 -18 699 -13 q 606 -24 631 -24 q 551 -15 572 -24 q 518 6 530 -7 q 502 36 506 20 q 497 69 497 53 q 509 151 497 104 q 534 247 520 197 q 559 346 548 297 q 571 435 571 395 q 567 473 571 456 q 553 503 562 490 q 527 522 543 515 q 488 529 511 529 q 467 528 478 529 q 441 524 455 527 l 330 0 l 131 0 z "},"S":{"ha":791,"x_min":47,"x_max":768,"o":"m 768 854 q 760 801 768 825 q 739 760 752 777 q 705 733 725 743 q 663 724 686 724 q 615 735 636 724 q 578 767 593 746 q 619 818 604 786 q 635 885 635 849 q 608 956 635 930 q 536 982 582 982 q 485 971 508 982 q 445 942 461 961 q 419 898 428 924 q 410 842 410 872 q 432 755 410 795 q 488 675 454 714 q 562 595 522 635 q 635 509 601 555 q 691 410 669 463 q 713 292 713 357 q 685 166 713 224 q 606 65 656 108 q 487 -1 555 23 q 340 -25 419 -25 q 219 -8 273 -25 q 127 42 165 9 q 68 119 89 74 q 47 218 47 163 q 62 304 47 264 q 102 374 77 345 q 163 420 128 404 q 239 437 199 437 q 321 413 288 437 q 362 346 354 389 q 296 336 326 346 q 247 307 267 326 q 215 263 227 289 q 204 204 204 237 q 240 107 204 143 q 336 72 275 72 q 404 85 372 72 q 457 121 435 98 q 492 176 479 144 q 505 245 505 208 q 493 318 505 283 q 459 386 480 353 q 412 451 438 419 q 357 515 385 483 q 303 580 330 547 q 256 647 277 612 q 222 718 235 681 q 210 795 210 754 q 233 896 210 850 q 298 977 256 943 q 397 1030 340 1010 q 521 1049 454 1049 q 623 1035 577 1049 q 700 996 668 1021 q 750 935 732 970 q 768 854 768 899 z "},"T":{"ha":668,"x_min":8,"x_max":999,"o":"m 218 0 l 415 920 l 399 920 q 296 907 344 920 q 213 863 248 895 q 158 777 178 831 q 138 639 138 723 q 141 596 138 612 q 147 569 144 579 q 154 554 151 559 q 157 545 157 549 q 93 552 121 545 q 46 574 65 559 q 18 616 28 590 q 8 679 8 642 q 34 813 8 748 q 116 929 60 879 q 263 1010 173 979 q 482 1040 353 1040 q 557 1038 524 1040 q 618 1032 590 1036 q 671 1024 646 1029 q 722 1017 696 1020 q 775 1011 747 1013 q 838 1008 804 1008 q 928 1017 886 1008 q 999 1038 970 1026 q 952 904 996 946 q 825 861 908 861 q 721 871 774 861 q 610 892 667 880 l 418 0 l 218 0 z "},"U":{"ha":994,"x_min":-7,"x_max":1059,"o":"m 494 -9 q 286 58 355 -9 q 216 257 216 125 q 235 403 216 324 l 377 966 q 268 920 315 950 q 189 851 221 890 q 140 767 157 812 q 124 675 124 722 q 133 608 124 642 q 160 543 142 574 q 37 581 81 543 q -7 691 -7 619 q 13 782 -7 737 q 67 866 33 826 q 151 939 102 905 q 258 996 200 972 q 381 1034 316 1020 q 515 1047 447 1047 q 557 1046 539 1047 q 593 1040 574 1044 l 424 399 q 406 318 412 356 q 400 249 400 279 q 509 117 400 117 q 724 403 663 117 l 863 1044 l 1059 1044 l 923 403 q 771 95 880 199 q 494 -9 662 -9 z "},"V":{"ha":854,"x_min":8,"x_max":953,"o":"m 367 0 l 345 949 q 192 834 247 912 q 138 640 138 756 q 141 597 138 614 q 147 571 144 581 q 154 555 151 561 q 157 546 157 550 q 93 553 121 546 q 46 576 65 560 q 18 617 28 591 q 8 681 8 643 q 28 772 8 727 q 83 857 48 817 q 165 930 118 897 q 266 989 212 964 q 379 1028 320 1014 q 496 1042 437 1042 q 525 1041 511 1042 q 551 1039 538 1040 l 564 184 l 856 1035 l 953 1035 l 567 0 l 367 0 z "},"W":{"ha":1336,"x_min":8,"x_max":1434,"o":"m 847 0 l 831 707 l 567 0 l 367 0 l 345 949 q 192 834 247 912 q 138 640 138 756 q 141 597 138 614 q 147 571 144 581 q 154 555 151 561 q 157 546 157 550 q 93 553 121 546 q 46 576 65 560 q 18 617 28 591 q 8 681 8 643 q 28 772 8 727 q 83 857 48 817 q 165 930 118 897 q 266 989 212 964 q 379 1028 320 1014 q 496 1042 437 1042 q 525 1041 511 1042 q 551 1039 538 1040 l 564 184 l 856 1035 l 1032 1035 l 1044 184 l 1336 1035 l 1434 1035 l 1047 0 l 847 0 z "},"X":{"ha":861,"x_min":8,"x_max":869,"o":"m 546 0 l 472 347 l 271 0 l 186 0 l 447 461 l 345 949 q 192 834 247 912 q 138 640 138 756 q 141 597 138 614 q 147 571 144 581 q 154 555 151 561 q 157 546 157 550 q 93 553 121 546 q 46 576 65 560 q 18 617 28 591 q 8 681 8 643 q 28 772 8 727 q 83 857 48 817 q 165 930 118 897 q 266 989 212 964 q 379 1028 320 1014 q 496 1042 437 1042 q 525 1041 511 1042 q 551 1039 538 1040 l 611 750 l 772 1035 l 869 1035 l 636 631 l 766 0 l 546 0 z "},"Y":{"ha":861,"x_min":8,"x_max":970,"o":"m 386 0 l 478 428 l 345 949 q 192 834 247 912 q 138 640 138 756 q 141 597 138 614 q 147 571 144 581 q 154 555 151 561 q 157 546 157 550 q 93 553 121 546 q 46 576 65 560 q 18 617 28 591 q 8 681 8 643 q 28 772 8 727 q 83 857 48 817 q 165 930 118 897 q 266 989 212 964 q 379 1028 320 1014 q 496 1042 437 1042 q 525 1041 511 1042 q 551 1039 538 1040 l 672 542 l 878 1035 l 970 1035 l 700 428 l 608 0 l 386 0 z "},"Z":{"ha":753,"x_min":16,"x_max":766,"o":"m 16 0 l 501 966 q 446 968 479 966 q 376 970 413 970 q 329 968 352 970 q 288 964 306 967 q 260 954 271 960 q 249 939 249 948 q 264 929 256 939 q 272 895 272 920 q 264 856 272 871 q 243 832 256 841 q 217 819 231 823 q 191 815 203 815 q 157 823 170 815 q 135 842 143 830 q 123 868 126 853 q 119 897 119 883 q 131 949 119 924 q 163 996 142 975 q 216 1029 184 1017 q 290 1042 248 1042 l 766 1042 l 288 90 q 351 89 316 90 q 421 87 387 87 q 469 89 446 87 q 511 93 492 90 q 545 102 530 96 q 566 118 559 108 q 549 127 558 118 q 541 161 541 136 q 548 199 541 184 q 568 224 556 214 q 595 237 580 233 q 624 241 610 241 q 656 234 643 241 q 679 216 670 227 q 691 190 687 205 q 694 161 694 176 q 682 106 694 135 q 647 54 670 77 q 591 15 624 31 q 517 0 558 0 l 16 0 z "},"[":{"ha":555,"x_min":-10,"x_max":578,"o":"m 286 -334 l -10 -334 l 281 1044 l 578 1044 l 562 965 l 408 965 l 149 -254 l 302 -254 l 286 -334 z "},"\\":{"ha":503,"x_min":58,"x_max":453,"o":"m 353 -347 l 58 1042 l 158 1042 l 453 -347 l 353 -347 z "},"]":{"ha":555,"x_min":-83,"x_max":505,"o":"m 209 1044 l 505 1044 l 214 -334 l -83 -334 l -67 -254 l 87 -254 l 347 965 l 193 965 l 209 1044 z "},"^":{"ha":585,"x_min":69,"x_max":476,"o":"m 432 779 l 349 890 l 131 779 l 69 779 l 364 1042 l 393 1042 l 476 779 l 432 779 z "},"_":{"ha":616,"x_min":50,"x_max":561,"o":"m 50 0 l 75 110 l 561 110 l 538 0 l 50 0 z "},"`":{"ha":279,"x_min":33,"x_max":220,"o":"m 33 1042 l 179 1042 l 220 779 l 143 779 l 33 1042 z "},"a":{"ha":730,"x_min":-18,"x_max":789,"o":"m 789 249 q 746 151 769 193 q 698 81 723 110 q 648 35 673 53 q 597 8 622 18 q 551 -5 573 -1 q 510 -8 528 -8 q 416 24 451 -8 q 374 119 381 56 q 336 73 357 96 q 291 32 316 50 q 235 3 266 14 q 167 -8 204 -8 q 98 3 131 -8 q 39 41 64 15 q -3 111 13 68 q -18 215 -18 153 q -9 317 -18 262 q 20 425 1 371 q 70 529 40 479 q 139 617 99 579 q 229 679 178 656 q 339 701 279 701 q 425 681 398 701 q 452 631 452 661 l 452 621 l 467 694 l 667 694 l 567 222 q 562 200 564 211 q 561 178 561 189 q 618 118 561 118 q 655 129 638 118 q 687 157 673 139 q 712 198 701 174 q 730 249 723 222 l 789 249 m 439 562 q 436 577 439 568 q 427 595 433 587 q 410 609 420 604 q 382 615 399 615 q 327 596 353 615 q 279 546 300 577 q 240 474 257 514 q 211 392 223 434 q 193 308 199 349 q 187 235 187 267 q 195 173 187 195 q 213 141 202 151 q 235 128 223 130 q 257 126 248 126 q 290 134 273 126 q 323 157 307 142 q 352 195 339 172 q 372 249 366 218 l 439 562 z "},"b":{"ha":616,"x_min":-9,"x_max":566,"o":"m 149 945 l 354 972 l 288 660 q 325 681 309 673 q 355 692 342 688 q 380 697 369 696 q 401 699 391 699 q 468 686 438 699 q 520 646 498 674 q 554 572 542 618 q 566 461 566 527 q 558 370 566 420 q 532 267 550 319 q 486 165 515 215 q 414 77 456 116 q 315 15 372 39 q 184 -8 258 -8 q 39 39 88 -8 q -9 170 -9 85 q -7 209 -9 189 q 0 249 -5 229 l 149 945 m 193 222 q 189 191 189 205 q 262 126 189 126 q 306 141 285 126 q 345 182 327 157 q 378 242 363 208 q 403 314 393 276 q 419 391 414 351 q 425 467 425 430 q 421 516 425 492 q 407 559 416 540 q 384 589 398 578 q 351 600 370 600 q 332 599 344 600 q 309 595 321 598 q 286 587 296 592 q 269 575 275 583 l 193 222 z "},"c":{"ha":533,"x_min":-18,"x_max":581,"o":"m 581 249 q 514 154 551 200 q 429 72 476 108 q 325 14 382 36 q 199 -8 267 -8 q 109 4 149 -8 q 41 43 69 17 q -3 112 12 70 q -18 212 -18 153 q -10 305 -18 252 q 16 412 -2 357 q 63 520 34 467 q 133 614 92 573 q 230 681 175 656 q 355 707 285 707 q 431 695 401 707 q 479 666 461 684 q 503 625 496 648 q 510 579 510 602 q 504 535 510 553 q 488 503 498 516 q 465 484 478 490 q 436 478 451 478 q 387 494 412 478 q 404 576 404 539 q 395 618 404 602 q 366 633 385 633 q 322 614 344 633 q 280 562 300 594 q 243 487 260 529 q 214 399 227 445 q 194 309 201 354 q 187 225 187 264 q 194 167 187 190 q 213 132 200 144 q 244 114 225 119 q 288 109 262 109 q 362 119 329 109 q 425 149 396 130 q 480 194 454 168 q 533 249 507 220 l 581 249 z "},"d":{"ha":729,"x_min":-18,"x_max":787,"o":"m 787 249 q 745 152 768 193 q 697 84 722 111 q 646 40 672 56 q 596 14 621 23 q 549 3 572 5 q 509 0 527 0 q 416 30 451 0 q 372 119 380 60 q 337 73 357 96 q 291 32 317 50 q 235 3 266 14 q 167 -8 203 -8 q 98 3 131 -8 q 39 41 64 15 q -3 111 13 68 q -18 215 -18 153 q -9 317 -18 262 q 20 425 1 371 q 70 529 40 479 q 139 617 99 579 q 229 679 178 656 q 339 701 279 701 q 425 681 398 701 q 452 631 452 661 l 452 625 l 519 945 l 725 972 l 566 222 q 561 200 562 211 q 559 178 559 189 q 573 137 559 149 q 616 126 587 126 q 654 135 637 126 q 685 161 671 144 q 710 200 699 177 q 729 249 721 222 l 787 249 m 371 249 l 439 567 q 434 581 437 573 q 425 597 431 589 q 409 610 419 605 q 382 615 398 615 q 327 596 353 615 q 279 546 300 577 q 240 474 257 514 q 211 392 223 434 q 193 308 199 349 q 187 235 187 267 q 195 173 187 195 q 213 141 202 151 q 235 128 223 130 q 257 126 248 126 q 289 133 271 126 q 322 155 306 140 q 351 191 338 169 q 371 241 364 212 l 371 249 z "},"e":{"ha":533,"x_min":-18,"x_max":581,"o":"m 581 249 q 514 154 551 200 q 429 72 476 108 q 325 14 382 36 q 199 -8 267 -8 q 109 4 149 -8 q 41 43 69 17 q -3 112 12 70 q -18 212 -18 153 q -10 304 -18 252 q 16 412 -2 357 q 62 519 33 467 q 133 614 92 572 q 230 681 174 656 q 357 707 286 707 q 433 695 404 707 q 480 666 463 684 q 504 624 497 648 q 510 574 510 600 q 484 461 510 513 q 413 371 457 410 q 311 309 368 332 q 191 281 253 285 q 188 251 189 265 q 187 225 187 237 q 194 167 187 190 q 213 132 200 144 q 244 114 225 119 q 288 109 262 109 q 362 119 329 109 q 425 149 396 130 q 480 194 454 168 q 533 249 507 220 l 581 249 m 201 347 q 277 370 241 350 q 342 421 314 389 q 386 493 370 452 q 403 576 403 533 q 395 618 403 602 q 368 633 388 633 q 316 608 342 633 q 269 542 291 583 q 229 450 246 501 q 201 347 212 399 z "},"f":{"ha":371,"x_min":-289,"x_max":534,"o":"m 118 804 q 162 925 133 879 q 226 997 191 971 q 299 1031 261 1023 q 371 1040 337 1040 q 432 1029 402 1040 q 484 999 461 1019 q 520 952 507 979 q 534 890 534 924 q 530 833 534 858 l 465 833 q 467 853 467 845 q 468 871 468 861 q 452 906 468 895 q 415 918 436 918 q 390 913 404 918 q 362 896 376 909 q 337 861 349 884 q 318 804 325 839 l 294 694 l 396 694 l 386 639 l 283 639 l 123 -111 q 80 -232 109 -186 q 18 -304 52 -278 q -54 -338 -16 -330 q -125 -347 -91 -347 q -185 -336 -156 -347 q -238 -306 -215 -326 q -275 -259 -261 -286 q -289 -197 -289 -231 q -270 -116 -289 -149 q -219 -60 -252 -83 q -143 -20 -186 -37 q -50 11 -100 -4 l 118 804 m -60 -35 q -120 -59 -92 -45 q -169 -89 -149 -72 q -201 -128 -189 -106 q -212 -178 -212 -150 q -208 -194 -212 -186 q -197 -209 -204 -202 q -179 -219 -189 -215 q -157 -224 -169 -224 q -135 -219 -146 -224 q -113 -201 -123 -214 q -94 -168 -102 -189 q -78 -115 -85 -146 l -60 -35 z "},"g":{"ha":704,"x_min":-18,"x_max":762,"o":"m 496 -111 q 453 -232 481 -186 q 390 -304 425 -278 q 318 -338 355 -330 q 245 -347 280 -347 q 185 -339 214 -347 q 136 -314 157 -330 q 103 -272 115 -297 q 90 -212 90 -246 q 111 -136 90 -169 q 164 -78 132 -102 q 237 -35 197 -53 q 317 -5 277 -18 l 334 68 q 262 14 303 35 q 167 -8 221 -8 q 98 3 131 -8 q 39 41 64 15 q -3 111 13 68 q -18 215 -18 153 q -9 317 -18 262 q 20 425 1 371 q 70 529 40 479 q 139 617 99 579 q 229 679 178 656 q 339 701 279 701 q 425 681 398 701 q 452 631 452 661 l 452 623 l 467 694 l 667 694 l 529 50 q 587 76 561 61 q 634 115 612 92 q 672 171 655 138 q 704 249 690 203 l 762 249 q 712 134 741 180 q 651 58 684 87 q 584 13 618 28 q 517 -11 549 -3 l 496 -111 m 439 564 q 436 578 439 570 q 427 595 433 587 q 410 609 420 604 q 382 615 399 615 q 327 596 353 615 q 279 546 300 577 q 240 474 257 514 q 211 392 223 434 q 193 308 199 349 q 187 235 187 267 q 195 173 187 195 q 213 141 202 151 q 235 128 223 130 q 257 126 248 126 q 288 133 271 126 q 320 154 304 140 q 349 188 336 168 q 368 235 361 208 l 439 564 m 302 -75 q 251 -97 275 -85 q 208 -123 227 -109 q 178 -155 189 -138 q 167 -193 167 -172 q 170 -209 167 -201 q 178 -224 172 -217 q 193 -235 184 -231 q 214 -239 201 -239 q 258 -209 235 -239 q 294 -115 281 -178 l 302 -75 z "},"h":{"ha":701,"x_min":-53,"x_max":760,"o":"m 760 249 q 697 113 730 163 q 629 35 663 62 q 562 0 595 8 q 501 -8 529 -8 q 424 5 455 -8 q 374 40 393 18 q 346 91 355 62 q 338 149 338 119 q 348 231 338 184 q 369 328 357 278 q 390 423 380 377 q 400 503 400 469 q 350 574 400 574 q 315 564 331 574 q 285 536 298 553 q 260 495 271 519 q 241 446 250 472 l 147 0 l -53 0 l 149 945 l 354 972 l 279 623 q 324 663 302 648 q 367 686 346 678 q 407 697 388 694 q 441 700 425 700 q 503 691 475 700 q 552 663 532 682 q 585 614 573 644 q 596 543 596 585 q 591 483 596 515 q 578 417 586 451 q 563 351 571 384 q 547 287 554 317 q 534 230 539 256 q 529 184 529 204 q 541 142 529 159 q 585 126 553 126 q 624 135 607 126 q 654 160 641 144 q 679 199 668 176 q 701 249 690 222 l 760 249 z "},"i":{"ha":371,"x_min":-11,"x_max":429,"o":"m 343 879 q 334 836 343 856 q 310 801 326 816 q 275 778 295 787 q 232 770 255 770 q 189 778 209 770 q 154 801 169 787 q 131 836 139 816 q 122 879 122 856 q 131 922 122 902 q 154 957 139 942 q 189 981 169 972 q 232 990 209 990 q 275 981 255 990 q 310 957 295 972 q 334 922 326 942 q 343 879 343 902 m 429 249 q 386 151 410 193 q 335 81 361 110 q 282 35 309 53 q 229 8 254 18 q 179 -5 203 -1 q 138 -8 156 -8 q 79 1 106 -8 q 32 31 52 11 q 1 83 12 52 q -11 158 -11 114 q -8 200 -11 177 q 0 249 -5 222 l 94 694 l 294 694 l 195 222 q 190 200 191 211 q 189 178 189 189 q 203 137 189 149 q 245 126 216 126 q 285 135 266 126 q 321 161 304 144 q 350 200 337 177 q 371 249 363 222 l 429 249 z "},"j":{"ha":334,"x_min":-281,"x_max":392,"o":"m 125 -111 q 82 -232 110 -186 q 19 -304 54 -278 q -53 -338 -15 -330 q -125 -347 -90 -347 q -185 -339 -157 -347 q -234 -314 -213 -330 q -268 -272 -256 -297 q -281 -212 -281 -246 q -260 -136 -281 -169 q -207 -78 -239 -103 q -133 -35 -174 -53 q -53 -5 -92 -18 l 96 694 l 296 694 l 158 50 q 216 76 190 61 q 263 115 241 92 q 301 171 284 138 q 334 249 319 203 l 392 249 q 342 134 371 180 q 280 58 313 87 q 213 13 248 28 q 146 -11 178 -3 l 125 -111 m 332 880 q 323 837 332 857 q 299 803 314 817 q 264 780 284 788 q 221 771 244 771 q 178 780 198 771 q 143 803 158 788 q 120 837 128 817 q 111 880 111 857 q 120 924 111 903 q 143 959 128 944 q 178 983 158 974 q 221 991 198 991 q 264 983 244 991 q 299 959 284 974 q 323 924 314 944 q 332 880 332 903 m -68 -75 q -120 -97 -95 -85 q -163 -123 -144 -109 q -193 -155 -182 -138 q -204 -193 -204 -172 q -201 -209 -204 -201 q -193 -224 -199 -217 q -178 -235 -186 -231 q -157 -239 -169 -239 q -113 -209 -135 -239 q -77 -115 -90 -178 l -68 -75 z "},"k":{"ha":720,"x_min":-53,"x_max":778,"o":"m 778 249 q 714 110 749 161 q 644 33 679 59 q 577 -1 610 7 q 522 -8 545 -8 q 391 33 435 -8 q 347 150 347 74 q 355 222 347 182 l 367 277 q 371 303 370 290 q 372 328 372 316 q 361 376 372 358 q 322 395 351 395 q 274 381 298 395 q 220 343 249 367 l 147 0 l -53 0 l 149 945 l 354 972 l 250 484 l 518 694 l 656 694 l 378 501 q 424 507 401 507 q 491 494 463 507 q 539 459 520 481 q 567 407 558 437 q 576 345 576 378 q 575 318 576 332 q 571 292 574 305 l 555 222 q 550 200 552 211 q 549 178 549 189 q 559 141 549 157 q 603 126 570 126 q 642 135 625 126 q 673 160 659 144 q 697 199 686 176 q 720 249 709 222 l 778 249 z "},"l":{"ha":371,"x_min":-11,"x_max":429,"o":"m 429 249 q 386 151 410 193 q 335 81 361 110 q 282 35 309 53 q 229 8 254 18 q 179 -5 203 -1 q 138 -8 156 -8 q 79 1 106 -8 q 32 31 52 11 q 1 83 12 52 q -11 158 -11 114 q -8 200 -11 177 q 0 249 -5 222 l 149 945 l 354 972 l 195 222 q 190 200 191 211 q 189 178 189 189 q 203 137 189 149 q 245 126 216 126 q 285 135 266 126 q 321 161 304 144 q 350 200 337 177 q 371 249 363 222 l 429 249 z "},"m":{"ha":1044,"x_min":-53,"x_max":1103,"o":"m 1103 249 q 1040 113 1074 163 q 972 35 1006 62 q 905 0 938 8 q 844 -8 872 -8 q 767 5 798 -8 q 717 40 736 18 q 689 91 698 62 q 681 149 681 119 q 691 231 681 184 q 712 328 701 278 q 733 423 724 377 q 743 503 743 469 q 693 574 743 574 q 658 564 674 574 q 628 536 642 553 q 604 495 614 519 q 585 446 593 472 l 490 0 l 290 0 l 392 479 q 396 514 396 496 q 394 537 396 526 q 387 556 392 548 q 374 570 382 565 q 354 575 366 575 q 316 565 334 575 q 285 537 299 555 q 260 496 271 519 q 241 446 250 472 l 147 0 l -53 0 l 94 694 l 294 694 l 279 623 q 324 663 302 648 q 368 687 347 678 q 410 698 390 695 q 449 701 431 701 q 500 695 476 701 q 542 674 524 688 q 573 637 560 660 q 591 582 586 614 q 643 644 616 621 q 694 680 669 667 q 743 696 720 692 q 785 700 766 700 q 846 691 818 700 q 895 663 874 682 q 927 614 916 644 q 939 543 939 585 q 933 483 939 515 q 921 417 928 451 q 905 351 914 384 q 889 287 897 317 q 877 230 882 256 q 872 184 872 204 q 884 142 872 159 q 928 126 896 126 q 967 135 950 126 q 998 160 984 144 q 1022 199 1011 176 q 1044 249 1034 222 l 1103 249 z "},"n":{"ha":701,"x_min":-53,"x_max":760,"o":"m 760 249 q 697 113 730 163 q 629 35 663 62 q 562 0 595 8 q 501 -8 529 -8 q 424 5 455 -8 q 374 40 393 18 q 346 91 355 62 q 338 149 338 119 q 348 231 338 184 q 369 328 357 278 q 390 423 380 377 q 400 503 400 469 q 350 574 400 574 q 315 564 331 574 q 285 536 298 553 q 260 495 271 519 q 241 446 250 472 l 147 0 l -53 0 l 94 694 l 294 694 l 279 623 q 324 663 302 648 q 367 686 346 678 q 407 697 388 694 q 441 700 425 700 q 503 691 475 700 q 552 663 532 682 q 585 614 573 644 q 596 543 596 585 q 591 483 596 515 q 578 417 586 451 q 563 351 571 384 q 547 287 554 317 q 534 230 539 256 q 529 184 529 204 q 541 142 529 159 q 585 126 553 126 q 624 135 607 126 q 654 160 641 144 q 679 199 668 176 q 701 249 690 222 l 760 249 z "},"o":{"ha":610,"x_min":-20,"x_max":781,"o":"m 781 528 q 675 455 740 485 q 534 412 611 425 q 497 239 526 316 q 425 107 469 161 q 323 24 380 53 q 203 -5 267 -5 q 114 6 155 -5 q 43 44 73 18 q -3 112 14 71 q -20 214 -20 154 q -11 306 -20 254 q 16 413 -3 358 q 64 520 35 468 q 136 614 94 573 q 234 681 178 656 q 361 707 290 707 q 539 485 539 707 l 539 484 q 546 482 543 482 q 554 482 549 482 q 607 489 578 482 q 663 508 635 496 q 719 535 692 519 q 768 566 746 550 l 781 528 m 419 408 q 390 430 397 414 q 382 467 382 446 q 394 514 382 496 q 425 542 406 533 q 420 579 424 564 q 411 605 417 595 q 396 618 405 614 q 372 623 387 623 q 324 603 347 623 q 280 552 301 584 q 242 479 260 520 q 213 395 225 438 q 194 309 201 351 q 187 232 187 267 q 191 176 187 197 q 203 141 195 154 q 225 124 212 129 q 258 119 239 119 q 309 142 283 119 q 356 203 334 164 q 394 294 378 241 q 419 408 411 347 z "},"p":{"ha":650,"x_min":-126,"x_max":615,"o":"m -126 -347 l 106 746 l 306 746 l 283 642 q 353 684 314 667 q 446 701 393 701 q 512 690 481 701 q 566 653 543 679 q 602 586 589 628 q 615 482 615 544 q 609 381 615 435 q 587 272 602 326 q 546 166 571 217 q 482 77 520 116 q 392 15 444 39 q 273 -8 340 -8 q 227 -4 247 -8 q 194 7 208 0 q 171 23 180 14 q 155 41 161 32 l 83 -297 l -126 -347 m 178 144 q 194 123 182 133 q 231 113 207 113 q 296 131 267 113 q 346 181 324 150 q 382 251 368 212 q 407 332 397 290 q 421 413 416 373 q 425 486 425 454 q 418 549 425 526 q 400 584 410 572 q 377 598 389 595 q 355 602 365 602 q 306 584 332 602 q 260 533 279 567 l 178 144 z "},"q":{"ha":675,"x_min":-18,"x_max":665,"o":"m 244 -347 l 332 68 q 260 14 301 35 q 167 -8 220 -8 q 98 3 131 -8 q 39 41 64 15 q -3 111 13 68 q -18 215 -18 153 q -9 317 -18 262 q 20 425 1 371 q 70 529 40 479 q 139 617 99 579 q 229 679 178 656 q 339 701 279 701 q 425 681 398 701 q 452 631 452 661 l 452 628 l 465 694 l 665 694 l 454 -297 l 244 -347 m 439 568 q 434 583 437 574 q 424 598 431 591 q 407 610 418 605 q 382 615 397 615 q 327 596 353 615 q 279 546 300 577 q 240 474 257 514 q 211 392 223 434 q 193 308 199 349 q 187 235 187 267 q 195 173 187 195 q 213 141 202 151 q 235 128 223 130 q 257 126 248 126 q 287 133 271 126 q 317 151 302 139 q 345 182 332 163 q 366 225 357 201 l 439 568 z "},"r":{"ha":522,"x_min":-53,"x_max":541,"o":"m -53 0 l 94 694 l 294 694 l 277 608 q 314 640 295 625 q 354 668 333 656 q 397 687 374 680 q 444 694 419 694 q 486 686 468 694 q 516 663 504 677 q 534 629 528 648 q 541 590 541 610 q 534 554 541 572 q 516 522 528 536 q 484 498 503 507 q 440 489 465 489 q 410 496 420 489 q 394 513 399 503 q 386 535 389 523 q 381 557 384 547 q 374 574 378 567 q 359 581 370 581 q 306 566 328 581 q 258 528 284 551 l 147 0 l -53 0 z "},"s":{"ha":530,"x_min":-45,"x_max":589,"o":"m 589 249 q 480 145 534 186 q 376 75 425 104 q 328 36 355 52 q 272 11 301 20 q 214 -4 243 1 q 158 -8 184 -8 q 67 8 106 -8 q 4 49 29 24 q -33 106 -21 75 q -45 170 -45 138 q -38 215 -45 194 q -22 252 -32 235 q 2 280 -12 268 q 29 298 15 292 q 127 505 87 403 q 200 710 168 607 l 406 737 q 413 581 410 647 q 420 466 417 515 q 427 384 424 418 q 432 324 429 350 q 435 276 434 298 q 436 232 436 255 q 435 203 436 216 q 431 179 434 191 q 486 214 461 197 q 530 249 511 231 l 589 249 m 29 199 q 48 126 29 150 q 114 102 68 102 q 159 108 137 102 q 197 130 180 115 q 224 170 214 145 q 235 231 235 194 q 234 265 235 248 q 231 300 233 281 q 228 342 230 319 q 222 395 225 365 q 216 466 219 426 q 208 559 212 506 q 159 428 187 492 q 96 297 130 364 q 118 278 109 290 q 127 249 127 267 q 123 224 127 236 q 111 202 119 212 q 92 186 103 192 q 66 180 81 180 q 45 184 55 180 q 29 199 35 187 z "},"t":{"ha":371,"x_min":-11,"x_max":429,"o":"m 429 249 q 386 151 410 193 q 335 81 361 110 q 282 35 309 53 q 229 8 254 18 q 179 -5 203 -1 q 138 -8 156 -8 q 79 1 106 -8 q 32 31 52 11 q 1 83 12 52 q -11 158 -11 114 q -8 200 -11 177 q 0 249 -5 222 l 83 639 l 37 639 l 49 694 l 94 694 l 136 886 l 342 914 l 294 694 l 378 694 l 367 639 l 283 639 l 195 222 q 190 200 191 211 q 189 178 189 189 q 203 137 189 149 q 245 126 216 126 q 285 135 266 126 q 321 161 304 144 q 350 200 337 177 q 371 249 363 222 l 429 249 z "},"u":{"ha":701,"x_min":-11,"x_max":760,"o":"m 760 249 q 717 151 740 193 q 669 81 694 110 q 618 35 644 53 q 568 8 593 18 q 522 -5 544 -1 q 481 -8 499 -8 q 386 25 421 -8 q 343 123 351 58 q 290 55 317 81 q 236 15 262 29 q 184 -4 210 1 q 138 -8 159 -8 q 79 1 106 -8 q 32 31 52 11 q 1 83 12 52 q -11 158 -11 114 q -8 200 -11 177 q 0 249 -5 222 l 94 694 l 294 694 l 195 222 q 191 183 191 201 q 199 143 191 159 q 232 126 208 126 q 269 135 252 126 q 300 161 286 144 q 325 200 314 177 q 343 249 335 222 l 437 694 l 637 694 l 538 222 q 533 200 534 211 q 532 178 532 189 q 546 137 532 149 q 589 126 559 126 q 626 135 609 126 q 658 161 644 144 q 683 200 672 177 q 701 249 694 222 l 760 249 z "},"v":{"ha":575,"x_min":-12,"x_max":554,"o":"m 94 694 l 294 694 l 195 222 q 189 194 191 207 q 187 172 187 182 q 198 139 187 151 q 235 126 210 126 q 300 150 269 126 q 357 213 331 174 q 406 301 384 252 q 443 402 427 351 q 466 503 458 454 q 475 590 475 552 q 468 584 473 587 q 455 579 462 581 q 441 577 448 578 q 431 576 435 576 q 409 583 418 576 q 393 600 399 589 q 384 622 387 610 q 380 647 380 635 q 401 701 380 680 q 467 722 422 722 q 508 712 492 722 q 535 685 525 702 q 550 646 545 668 q 554 602 554 625 q 545 479 554 546 q 514 345 535 412 q 462 213 494 277 q 387 101 431 150 q 286 22 342 52 q 158 -8 229 -8 q 34 32 79 -8 q -12 155 -12 73 q -11 185 -12 167 q -5 222 -9 203 l 94 694 z "},"w":{"ha":918,"x_min":-11,"x_max":897,"o":"m 437 694 l 637 694 l 538 222 q 530 172 530 189 q 542 139 530 151 q 578 126 553 126 q 643 150 612 126 q 701 213 674 174 q 749 301 727 252 q 786 402 770 351 q 809 503 801 454 q 818 590 818 552 q 811 584 817 587 q 798 579 805 581 q 785 577 791 578 q 774 576 778 576 q 752 583 762 576 q 736 600 743 589 q 727 622 730 610 q 724 647 724 635 q 744 701 724 680 q 810 722 765 722 q 851 712 835 722 q 878 685 868 702 q 893 646 888 668 q 897 602 897 625 q 888 479 897 546 q 858 345 878 412 q 805 213 837 277 q 730 101 774 150 q 629 22 686 52 q 501 -8 572 -8 q 390 21 433 -8 q 335 109 347 50 q 283 48 310 71 q 232 13 257 25 q 182 -4 206 0 q 138 -8 158 -8 q 79 1 106 -8 q 32 31 52 11 q 1 83 12 52 q -11 158 -11 114 q -8 200 -11 177 q 0 249 -5 222 l 94 694 l 294 694 l 195 222 q 191 187 191 205 q 193 164 191 175 q 199 145 195 153 q 212 131 204 136 q 232 126 220 126 q 269 135 252 126 q 300 161 286 144 q 325 200 314 177 q 343 249 335 222 l 437 694 z "},"x":{"ha":725,"x_min":0,"x_max":783,"o":"m 783 249 q 719 118 755 168 q 644 39 683 67 q 568 2 606 12 q 500 -8 530 -8 q 442 5 469 -8 q 394 48 416 19 q 357 123 373 78 q 330 233 340 169 l 139 0 l 39 0 l 319 317 l 297 472 q 286 530 292 507 q 274 565 280 552 q 260 583 268 578 q 244 587 253 587 q 199 567 224 587 q 150 504 175 546 q 100 398 124 462 q 58 249 77 335 l 0 249 q 27 354 12 300 q 63 457 43 407 q 111 552 84 508 q 170 630 137 597 q 241 682 202 663 q 328 701 281 701 q 397 685 369 701 q 442 645 425 669 q 467 592 459 621 q 478 536 475 563 l 490 431 q 578 544 549 496 q 611 631 608 592 q 598 629 604 629 q 587 628 593 628 q 557 634 569 628 q 537 651 545 640 q 526 675 529 661 q 522 705 522 689 q 530 736 522 724 q 551 758 538 749 q 581 770 564 766 q 616 774 598 774 q 650 763 635 774 q 675 733 665 751 q 689 693 684 715 q 694 647 694 670 q 683 583 694 614 q 647 515 671 551 q 586 439 623 480 q 501 345 550 397 l 514 248 q 525 190 518 214 q 543 153 532 167 q 568 132 553 138 q 600 126 582 126 q 640 135 621 126 q 675 161 659 144 q 704 200 691 177 q 725 249 717 222 l 783 249 z "},"y":{"ha":675,"x_min":-11,"x_max":733,"o":"m 467 -111 q 424 -232 452 -186 q 361 -304 395 -278 q 289 -338 326 -330 q 216 -347 251 -347 q 156 -339 184 -347 q 107 -314 128 -330 q 74 -272 86 -297 q 61 -212 61 -246 q 82 -136 61 -169 q 135 -78 102 -102 q 208 -35 168 -53 q 288 -5 248 -18 l 304 69 q 260 30 282 45 q 216 6 237 14 q 176 -5 195 -2 q 138 -8 156 -8 q 79 1 106 -8 q 32 31 52 11 q 1 83 12 52 q -11 158 -11 114 q -8 200 -11 177 q 0 249 -5 222 l 94 694 l 294 694 l 195 222 q 191 187 191 205 q 193 164 191 175 q 199 145 195 153 q 212 131 204 136 q 232 126 220 126 q 268 135 251 126 q 298 158 284 143 q 322 195 311 174 q 340 240 332 216 l 437 694 l 637 694 l 500 50 q 557 76 532 61 q 605 115 583 92 q 643 171 626 138 q 675 249 661 203 l 733 249 q 683 134 712 180 q 622 58 654 87 q 555 13 589 28 q 488 -11 520 -3 l 467 -111 m 273 -75 q 222 -97 246 -85 q 179 -123 197 -109 q 149 -155 160 -138 q 138 -193 138 -172 q 140 -209 138 -201 q 149 -224 143 -217 q 163 -235 155 -231 q 184 -239 172 -239 q 229 -209 206 -239 q 265 -115 252 -178 l 273 -75 z "},"z":{"ha":595,"x_min":0,"x_max":595,"o":"m 0 0 l 354 619 l 277 619 q 247 618 260 619 q 222 616 233 618 q 206 609 212 614 q 200 597 200 605 q 202 593 200 594 q 208 591 205 593 q 213 584 210 589 q 215 567 215 579 q 209 533 215 547 q 192 511 202 519 q 168 497 181 502 q 140 493 155 493 q 117 497 128 493 q 97 509 106 501 q 82 528 87 516 q 77 554 77 539 q 88 600 77 575 q 120 646 99 625 q 170 681 140 667 q 237 694 200 694 l 595 694 l 254 107 q 275 105 263 106 q 302 102 288 104 q 331 99 316 100 q 359 98 345 98 q 404 104 385 98 q 425 126 422 110 q 405 136 412 127 q 399 155 399 144 q 404 176 399 165 q 418 195 409 186 q 443 209 428 203 q 476 215 457 215 q 523 196 509 215 q 538 149 538 177 q 526 98 538 125 q 493 50 515 72 q 440 14 471 28 q 368 0 408 0 l 0 0 z "},"{":{"ha":489,"x_min":63,"x_max":556,"o":"m 544 975 q 487 970 511 975 q 445 949 463 965 q 415 903 427 932 q 394 823 403 873 q 377 702 385 774 q 361 529 370 629 q 350 468 358 494 q 327 422 342 442 q 286 387 311 403 q 223 355 260 371 q 283 311 266 336 q 300 248 300 287 q 295 192 300 222 q 281 128 290 161 q 264 58 273 94 q 246 -13 254 22 q 233 -83 238 -49 q 227 -149 227 -118 q 250 -244 227 -210 q 316 -285 273 -279 l 303 -347 l 263 -347 q 180 -336 217 -347 q 118 -303 144 -324 q 78 -251 92 -281 q 64 -182 64 -220 q 72 -115 64 -152 q 90 -38 79 -78 q 114 45 101 3 q 138 127 127 87 q 156 203 149 167 q 163 269 163 240 q 151 309 163 298 q 106 319 139 319 l 63 319 l 77 390 l 121 390 q 163 399 146 390 q 192 428 180 408 q 210 480 203 448 q 217 558 216 512 q 239 791 223 698 q 287 941 255 884 q 370 1021 319 997 q 496 1044 421 1044 l 556 1044 l 544 975 z "},"|":{"ha":739,"x_min":304,"x_max":433,"o":"m 304 -347 l 304 1043 l 433 1043 l 433 -347 l 304 -347 z "},"}":{"ha":489,"x_min":-91,"x_max":402,"o":"m -78 -278 q -21 -273 -45 -278 q 20 -252 3 -268 q 50 -205 38 -235 q 72 -126 62 -176 q 88 -4 81 -77 q 104 168 96 68 q 115 229 106 203 q 139 275 123 255 q 180 310 155 294 q 243 342 205 326 q 207 362 221 352 q 182 386 192 373 q 169 415 173 399 q 165 450 165 431 q 176 537 165 488 q 202 639 188 586 q 227 746 216 692 q 239 846 239 800 q 215 942 239 907 q 149 982 192 977 l 162 1044 l 202 1044 q 285 1033 248 1044 q 347 1000 321 1021 q 387 948 373 979 q 401 879 401 917 q 394 812 401 849 q 375 735 387 775 q 352 652 364 694 q 328 570 339 610 q 310 494 317 530 q 302 428 302 457 q 315 389 302 399 q 359 378 327 378 l 402 378 l 389 307 l 344 307 q 302 298 319 307 q 273 270 285 290 q 256 217 262 250 q 248 139 250 185 q 226 -94 242 -1 q 178 -243 210 -187 q 95 -323 146 -300 q -31 -347 44 -347 l -91 -347 l -78 -278 z "},"~":{"ha":599,"x_min":68,"x_max":625,"o":"m 625 929 q 599 880 620 905 q 548 835 578 855 q 479 803 517 815 q 401 790 441 790 q 337 798 367 790 q 279 816 307 806 q 224 833 251 825 q 168 842 197 842 q 77 806 117 842 l 68 808 q 161 910 102 876 q 300 945 220 945 q 367 938 337 945 q 422 922 396 930 q 474 906 448 913 q 529 899 499 899 q 578 907 555 899 q 616 930 601 915 l 625 929 z "},"":{"ha":637,"x_min":9,"x_max":750,"o":"m 672 236 q 601 127 644 175 q 504 45 558 79 q 389 -7 450 11 q 265 -25 328 -25 q 150 -5 198 -25 q 70 49 101 15 q 24 127 39 83 q 9 220 9 171 q 27 332 9 275 q 78 438 45 389 q 158 526 111 488 q 267 579 206 564 q 202 655 222 612 q 182 746 182 699 q 204 853 182 800 q 268 949 227 906 q 364 1018 308 991 q 486 1044 420 1044 q 564 1033 528 1044 q 627 1000 600 1022 q 670 946 654 979 q 685 871 685 913 q 677 813 685 840 q 654 767 669 787 q 622 737 640 748 q 582 726 603 726 q 517 764 544 726 q 540 781 529 768 q 560 810 551 793 q 573 847 568 827 q 578 885 578 867 q 571 921 578 906 q 554 945 564 936 q 529 958 543 954 q 501 962 515 962 q 444 945 470 962 q 399 901 418 928 q 370 838 380 873 q 359 766 359 803 q 367 707 359 736 q 392 653 375 677 q 436 609 409 628 q 500 581 463 591 q 430 553 463 572 q 369 508 397 534 q 320 450 342 482 q 283 384 298 418 q 260 315 268 350 q 252 249 252 281 q 259 194 252 220 q 282 149 267 168 q 323 119 298 130 q 383 109 348 109 q 452 117 415 109 q 524 144 489 126 q 590 189 559 162 q 640 250 621 215 l 672 236 m 500 1227 q 493 1194 500 1209 q 475 1167 486 1179 q 448 1150 463 1156 q 415 1143 432 1143 q 381 1150 397 1143 q 355 1167 366 1156 q 337 1194 343 1179 q 330 1227 330 1209 q 337 1260 330 1244 q 355 1287 343 1276 q 381 1305 366 1299 q 415 1312 397 1312 q 448 1305 432 1312 q 475 1287 463 1299 q 493 1260 486 1276 q 500 1227 500 1244 m 750 1227 q 743 1194 750 1209 q 725 1167 736 1179 q 698 1150 713 1156 q 665 1143 682 1143 q 631 1150 647 1143 q 605 1167 616 1156 q 587 1194 593 1179 q 581 1227 581 1209 q 587 1260 581 1244 q 605 1287 593 1276 q 631 1305 616 1299 q 665 1312 647 1312 q 698 1305 682 1312 q 725 1287 713 1299 q 743 1260 736 1276 q 750 1227 750 1244 z "},"":{"ha":1007,"x_min":17,"x_max":1007,"o":"m 227 0 l 424 920 l 407 920 q 304 907 352 920 q 221 863 256 895 q 166 777 186 831 q 146 639 146 723 q 149 596 146 612 q 156 569 152 579 q 162 554 159 559 q 165 545 165 549 q 102 552 130 545 q 55 574 74 559 q 26 616 36 590 q 17 679 17 642 q 43 813 17 748 q 125 929 68 879 q 272 1010 182 979 q 490 1040 361 1040 q 598 1035 553 1040 q 680 1024 642 1030 q 756 1014 718 1019 q 846 1008 795 1008 q 937 1017 895 1008 q 1007 1038 979 1026 q 961 903 1004 945 q 833 861 918 861 q 729 871 782 861 q 618 892 675 880 l 550 578 q 603 605 576 595 q 654 621 629 615 q 700 629 678 627 q 737 631 721 631 q 804 619 772 631 q 858 584 835 608 q 896 522 882 559 q 909 432 909 484 q 898 315 909 376 q 873 196 887 254 q 817 14 851 102 q 735 -140 782 -73 q 631 -248 689 -208 q 503 -288 572 -288 q 430 -273 458 -288 q 387 -235 401 -258 q 372 -182 372 -212 q 386 -123 372 -153 q 421 -148 403 -141 q 458 -154 439 -154 q 526 -133 495 -154 q 583 -70 557 -113 q 633 40 610 -26 q 679 199 656 107 q 691 248 685 219 q 702 309 697 277 q 711 371 707 340 q 714 425 714 401 q 708 472 714 454 q 691 502 702 491 q 667 518 681 513 q 639 522 654 522 q 578 511 604 522 q 530 485 551 500 l 427 0 l 227 0 z "},"":{"ha":595,"x_min":17,"x_max":872,"o":"m 126 0 l 326 928 q 251 912 284 926 q 194 866 218 899 q 158 779 171 833 q 146 640 146 724 q 149 597 146 614 q 156 571 152 581 q 162 555 159 561 q 165 546 165 550 q 102 553 130 546 q 55 576 74 560 q 26 617 36 591 q 17 681 17 643 q 27 772 17 727 q 61 857 38 817 q 122 930 85 897 q 213 989 160 964 q 337 1028 267 1014 q 498 1042 408 1042 q 548 1039 521 1042 q 607 1033 576 1036 q 671 1027 637 1030 q 741 1025 705 1025 q 808 1028 775 1025 q 872 1042 842 1032 q 862 1009 867 1027 q 852 972 858 991 q 837 937 846 954 q 815 905 829 919 q 782 883 802 892 q 733 875 762 875 q 627 883 680 875 q 521 903 574 891 l 326 0 l 126 0 m 511 1126 l 637 1389 l 783 1389 l 615 1126 l 511 1126 z "},"":{"ha":690,"x_min":26,"x_max":743,"o":"m 726 236 q 651 117 699 166 q 548 37 604 68 q 436 -8 493 6 q 330 -22 378 -22 q 196 -4 253 -22 q 101 55 139 14 q 45 161 64 96 q 26 319 26 226 q 32 423 26 367 q 51 538 38 479 q 84 659 64 598 q 132 775 104 719 q 198 880 161 831 q 282 964 235 928 q 386 1021 329 1000 q 511 1042 443 1042 q 602 1031 559 1042 q 676 998 644 1021 q 725 941 707 976 q 743 856 743 905 q 738 805 743 828 q 721 764 733 781 q 691 737 709 747 q 646 728 672 728 q 608 734 629 728 q 567 764 587 740 q 591 783 579 770 q 611 813 602 796 q 625 851 620 831 q 631 892 631 871 q 626 924 631 908 q 612 951 622 939 q 585 969 602 962 q 546 977 569 977 q 472 948 508 977 q 403 871 435 920 q 344 760 371 823 q 298 625 317 696 l 564 625 l 542 522 l 275 522 q 262 424 267 473 q 257 328 257 374 q 264 240 257 279 q 290 172 271 200 q 341 127 309 143 q 424 111 373 111 q 576 148 506 111 q 694 250 646 184 l 726 236 z "},"":{"ha":754,"x_min":0,"x_max":718,"o":"m 541 764 q 566 785 555 772 q 586 815 578 799 q 598 848 594 831 q 603 884 603 866 q 598 919 603 902 q 581 948 593 935 q 549 969 568 961 q 500 977 529 977 q 407 945 441 977 q 372 850 372 913 q 395 760 372 799 q 453 688 418 722 q 529 620 488 654 q 604 544 569 586 q 662 447 639 502 q 685 318 685 393 q 652 165 685 231 q 565 57 620 100 q 440 -8 511 14 q 294 -29 370 -29 q 181 -16 235 -29 q 87 26 127 -3 q 24 100 47 55 q 0 210 0 145 q 18 309 0 266 q 66 380 37 351 q 131 423 95 408 q 204 437 168 437 q 243 433 222 437 q 282 419 264 429 q 312 391 300 408 q 326 346 325 373 q 270 339 298 346 q 217 317 241 332 q 179 276 194 301 q 164 215 164 251 q 172 165 164 189 q 197 123 180 141 q 239 93 214 104 q 297 82 264 82 q 362 95 332 82 q 413 131 392 107 q 447 188 435 154 q 458 267 458 222 q 437 374 458 326 q 385 463 416 422 q 316 542 353 505 q 248 618 279 580 q 195 700 216 657 q 174 793 174 742 q 199 893 174 847 q 267 971 224 939 q 369 1023 310 1004 q 494 1042 427 1042 q 534 1040 511 1042 q 582 1032 557 1038 q 631 1015 606 1026 q 674 985 655 1004 q 706 940 694 967 q 718 875 718 913 q 710 819 718 844 q 688 774 703 793 q 652 745 673 755 q 604 734 631 734 q 541 764 566 734 z "},"":{"ha":519,"x_min":17,"x_max":559,"o":"m 139 0 l 340 943 q 197 829 249 905 q 146 640 146 753 q 149 597 146 614 q 156 571 152 581 q 162 555 159 561 q 165 546 165 550 q 102 553 130 546 q 55 576 74 560 q 26 617 36 591 q 17 681 17 643 q 37 772 17 727 q 92 857 57 817 q 173 930 126 897 q 275 989 220 964 q 387 1028 329 1014 q 504 1042 446 1042 q 533 1041 519 1042 q 559 1039 546 1040 l 339 0 l 139 0 z "},"":{"ha":519,"x_min":17,"x_max":689,"o":"m 139 0 l 340 943 q 197 829 249 905 q 146 640 146 753 q 149 597 146 614 q 156 571 152 581 q 162 555 159 561 q 165 546 165 550 q 102 553 130 546 q 55 576 74 560 q 26 617 36 591 q 17 681 17 643 q 37 772 17 727 q 92 857 57 817 q 173 930 126 897 q 275 989 220 964 q 387 1028 329 1014 q 504 1042 446 1042 q 533 1041 519 1042 q 559 1039 546 1040 l 339 0 l 139 0 m 689 1227 q 682 1194 689 1209 q 664 1167 675 1179 q 636 1150 652 1156 q 604 1143 621 1143 q 570 1150 586 1143 q 544 1167 555 1156 q 526 1194 532 1179 q 519 1227 519 1209 q 526 1260 519 1244 q 544 1287 532 1276 q 570 1305 555 1299 q 604 1312 586 1312 q 636 1305 621 1312 q 664 1287 652 1299 q 682 1260 675 1276 q 689 1227 689 1244 m 439 1227 q 432 1194 439 1209 q 414 1167 425 1179 q 387 1150 402 1156 q 354 1143 371 1143 q 320 1150 336 1143 q 294 1167 305 1156 q 276 1194 282 1179 q 269 1227 269 1209 q 276 1260 269 1244 q 294 1287 282 1276 q 320 1305 305 1299 q 354 1312 336 1312 q 387 1305 371 1312 q 414 1287 402 1299 q 432 1260 425 1276 q 439 1227 439 1244 z "},"":{"ha":628,"x_min":-111,"x_max":668,"o":"m 450 945 q 306 830 358 907 q 254 640 254 753 q 257 597 254 614 q 264 571 260 581 q 270 555 267 561 q 273 546 273 550 q 210 553 237 546 q 163 576 182 560 q 135 617 144 591 q 125 681 125 643 q 145 772 125 727 q 200 857 165 817 q 282 930 235 897 q 383 989 329 964 q 495 1028 437 1014 q 612 1042 554 1042 l 668 1042 l 460 56 q 416 -87 443 -24 q 346 -196 389 -151 q 241 -264 302 -240 q 94 -288 180 -288 q 6 -273 44 -288 q -58 -233 -33 -259 q -98 -172 -84 -208 q -111 -92 -111 -136 q -100 -23 -111 -56 q -67 37 -89 11 q -15 78 -46 62 q 58 94 17 94 q 103 92 79 94 q 147 81 127 90 q 181 53 168 72 q 195 1 195 35 q 186 -54 195 -24 q 162 -36 173 -43 q 142 -25 151 -29 q 123 -20 132 -21 q 103 -18 113 -18 q 60 -27 79 -18 q 30 -50 42 -36 q 12 -83 18 -64 q 5 -121 5 -102 q 15 -166 5 -148 q 38 -197 24 -185 q 68 -213 52 -208 q 100 -218 85 -218 q 142 -212 123 -218 q 177 -187 161 -205 q 206 -135 193 -169 q 232 -47 220 -102 l 450 945 z "},"":{"ha":1135,"x_min":-41,"x_max":1086,"o":"m 385 0 l 585 943 q 504 878 545 922 q 424 773 463 833 q 346 639 384 712 q 275 487 309 566 q 215 328 242 408 q 167 173 187 248 q 136 33 147 98 q 125 -81 125 -32 q 131 -131 125 -114 q 144 -158 137 -149 q 84 -155 117 -158 q 24 -139 52 -153 q -23 -95 -4 -125 q -41 -11 -41 -65 q -23 114 -41 41 q 27 270 -5 186 q 103 444 59 354 q 201 619 148 533 q 315 781 254 705 q 438 916 375 858 q 566 1008 501 974 q 693 1042 631 1042 q 719 1041 705 1042 q 748 1038 733 1040 q 777 1032 762 1036 q 803 1022 791 1028 l 708 581 q 783 600 749 594 q 851 606 817 606 q 956 586 911 606 q 1029 533 1000 567 q 1072 451 1058 498 q 1086 349 1086 404 q 1079 273 1086 314 q 1056 191 1072 232 q 1017 111 1041 149 q 960 42 993 72 q 884 -6 927 12 q 789 -24 842 -24 q 710 -8 741 -24 q 663 32 679 7 q 648 91 648 58 q 663 160 648 124 q 707 121 684 132 q 755 110 730 110 q 820 133 793 110 q 863 192 846 156 q 886 270 879 227 q 893 353 893 313 q 887 420 893 389 q 865 474 880 451 q 824 510 850 497 q 761 524 799 524 q 728 520 745 524 q 693 509 710 517 l 585 0 l 385 0 z "},"":{"ha":1293,"x_min":17,"x_max":1244,"o":"m 543 0 l 654 522 l 450 522 l 339 0 l 139 0 l 340 945 q 197 829 248 906 q 146 640 146 752 q 149 597 146 614 q 156 571 152 581 q 162 555 159 561 q 165 546 165 550 q 102 553 130 546 q 55 576 74 560 q 26 617 36 591 q 17 681 17 643 q 37 772 17 727 q 92 857 57 817 q 173 930 126 897 q 275 989 220 964 q 387 1028 329 1014 q 504 1042 446 1042 q 533 1041 519 1042 q 559 1039 546 1040 l 471 625 l 675 625 l 764 1039 l 964 1039 l 867 581 q 941 600 907 593 q 1010 606 975 606 q 1114 586 1070 606 q 1187 533 1158 567 q 1231 451 1217 498 q 1244 349 1244 404 q 1237 273 1244 314 q 1214 191 1230 232 q 1175 111 1199 149 q 1118 42 1151 72 q 1043 -6 1085 12 q 947 -24 1000 -24 q 868 -8 900 -24 q 821 32 837 7 q 806 91 806 58 q 821 160 806 124 q 865 121 842 132 q 914 110 888 110 q 978 133 952 110 q 1021 192 1004 156 q 1044 270 1037 227 q 1051 353 1051 313 q 1045 420 1051 389 q 1023 474 1038 451 q 983 510 1008 497 q 920 524 958 524 q 886 520 904 524 q 851 509 868 517 l 743 0 l 543 0 z "},"":{"ha":1035,"x_min":17,"x_max":1007,"o":"m 227 0 l 424 920 l 407 920 q 304 907 352 920 q 221 863 256 895 q 166 777 186 831 q 146 639 146 723 q 149 596 146 612 q 156 569 152 579 q 162 554 159 559 q 165 545 165 549 q 102 552 130 545 q 55 574 74 559 q 26 616 36 590 q 17 679 17 642 q 43 813 17 748 q 125 929 68 879 q 272 1010 182 979 q 490 1040 361 1040 q 598 1035 553 1040 q 680 1024 642 1030 q 756 1014 718 1019 q 846 1008 795 1008 q 937 1017 895 1008 q 1007 1038 979 1026 q 961 903 1004 945 q 833 861 918 861 q 729 871 782 861 q 618 892 675 880 l 550 578 q 603 605 576 595 q 655 621 630 615 q 702 629 680 627 q 741 631 724 631 q 806 619 775 631 q 859 584 836 608 q 896 522 882 559 q 909 432 909 484 q 906 367 909 404 q 892 288 903 330 q 865 172 875 218 q 854 92 854 125 q 869 34 854 59 q 908 0 883 9 q 826 -18 863 -13 q 762 -24 788 -24 q 707 -15 728 -24 q 674 6 686 -7 q 659 36 663 20 q 654 69 654 53 q 666 159 654 106 q 694 288 677 212 q 702 323 698 304 q 708 361 705 342 q 712 397 711 380 q 714 425 714 414 q 708 472 714 454 q 691 502 702 491 q 667 518 681 513 q 639 522 654 522 q 578 511 604 522 q 530 485 551 500 l 427 0 l 227 0 z "},"":{"ha":882,"x_min":17,"x_max":946,"o":"m 139 0 l 340 945 q 197 829 248 906 q 146 640 146 752 q 149 597 146 614 q 156 571 152 581 q 162 555 159 561 q 165 546 165 550 q 102 553 130 546 q 55 576 74 560 q 26 617 36 591 q 17 681 17 643 q 37 772 17 727 q 92 857 57 817 q 173 930 126 897 q 275 989 220 964 q 387 1028 329 1014 q 504 1042 446 1042 q 533 1041 519 1042 q 559 1039 546 1040 l 471 624 q 507 714 486 669 q 552 799 529 759 q 598 870 576 838 q 637 921 621 901 q 741 1013 688 984 q 842 1042 793 1042 q 882 1036 863 1042 q 915 1018 901 1029 q 938 989 929 1006 q 946 949 946 972 q 938 903 946 922 q 917 873 930 884 q 888 856 904 861 q 856 851 872 851 q 774 907 796 851 q 641 780 699 862 q 534 590 584 699 q 566 591 551 591 q 593 591 581 591 q 677 580 644 591 q 730 549 710 569 q 757 502 749 529 q 765 443 765 475 q 754 352 765 399 q 731 257 744 304 q 708 168 718 210 q 697 92 697 125 q 712 34 697 59 q 751 0 726 9 q 673 -18 707 -13 q 614 -24 639 -24 q 559 -15 580 -24 q 526 6 538 -7 q 510 36 514 20 q 505 69 505 53 q 517 151 505 104 q 542 247 528 197 q 568 346 556 297 q 579 435 579 395 q 575 473 579 456 q 561 503 570 490 q 535 522 551 515 q 496 529 519 529 q 475 528 486 529 q 450 524 464 527 l 339 0 l 139 0 m 586 1126 l 713 1389 l 859 1389 l 690 1126 l 586 1126 z "},"":{"ha":403,"x_min":26,"x_max":329,"o":"m 26 309 l 52 418 l 329 418 l 306 309 l 26 309 z "},"":{"ha":895,"x_min":17,"x_max":991,"o":"m 353 949 q 201 834 256 912 q 146 640 146 756 q 149 597 146 614 q 156 571 152 581 q 162 555 159 561 q 165 546 165 550 q 102 553 130 546 q 55 576 74 560 q 26 617 36 591 q 17 681 17 643 q 37 772 17 727 q 92 857 57 817 q 173 930 126 897 q 275 989 220 964 q 387 1028 329 1014 q 504 1042 446 1042 q 533 1041 519 1042 q 559 1039 546 1040 l 681 518 l 900 1035 l 991 1035 l 644 214 q 611 144 631 182 q 563 72 591 106 q 497 16 535 39 q 408 -7 459 -7 q 355 1 378 -7 q 316 22 332 9 q 294 54 301 36 q 286 94 286 73 q 311 167 286 140 q 382 193 336 193 q 440 172 418 193 q 468 111 463 150 q 514 150 493 121 q 551 214 536 179 l 353 949 m 989 1348 q 934 1233 965 1278 q 865 1160 903 1187 q 785 1122 827 1133 q 696 1111 742 1111 q 562 1143 609 1111 q 515 1231 515 1175 q 541 1304 515 1276 q 608 1332 566 1332 q 672 1313 649 1332 q 694 1257 694 1293 q 694 1245 694 1253 q 690 1227 693 1237 q 680 1208 686 1218 q 661 1190 673 1198 q 685 1186 671 1187 q 717 1185 699 1185 q 773 1192 743 1185 q 832 1218 803 1200 q 886 1269 861 1237 q 930 1348 912 1300 l 989 1348 z "},"":{"ha":924,"x_min":17,"x_max":964,"o":"m 278 -288 l 340 0 l 139 0 l 340 945 q 197 829 248 906 q 146 640 146 752 q 149 597 146 614 q 156 571 152 581 q 162 555 159 561 q 165 546 165 550 q 102 553 130 546 q 55 576 74 560 q 26 617 36 591 q 17 681 17 643 q 37 772 17 727 q 92 857 57 817 q 173 930 126 897 q 275 989 220 964 q 387 1028 329 1014 q 504 1042 446 1042 q 533 1041 519 1042 q 559 1039 546 1040 l 359 103 l 564 103 l 764 1039 l 964 1039 l 743 0 l 541 0 l 479 -288 l 278 -288 z "},"":{"ha":895,"x_min":-14,"x_max":935,"o":"m 517 0 l 624 504 q 573 525 597 516 q 527 539 549 533 q 483 549 505 545 q 437 554 460 552 q 366 380 399 469 q 308 206 332 290 q 271 47 284 121 q 257 -81 257 -26 q 263 -131 257 -114 q 277 -158 269 -149 q 216 -155 249 -158 q 156 -139 184 -153 q 109 -95 127 -125 q 90 -11 90 -65 q 105 100 90 35 q 146 238 119 164 q 211 394 174 313 q 294 554 248 475 q 187 534 229 550 q 132 482 146 519 q 138 478 135 482 q 144 469 141 475 q 148 455 146 463 q 150 439 150 447 q 127 399 150 414 q 72 385 104 385 q 11 405 35 385 q -14 465 -14 425 q 8 532 -14 500 q 67 586 29 563 q 157 623 105 609 q 269 636 208 636 q 342 632 298 636 q 454 790 395 715 q 575 920 513 864 q 701 1009 637 976 q 825 1042 764 1042 q 879 1038 849 1042 q 935 1022 909 1034 l 717 0 l 517 0 m 717 943 q 653 895 686 926 q 590 820 621 863 q 527 725 558 777 q 467 614 496 672 q 552 594 509 606 q 636 566 595 582 l 717 943 z "},"":{"ha":895,"x_min":17,"x_max":888,"o":"m 126 0 l 326 928 q 253 912 286 926 q 196 866 220 899 q 159 779 172 833 q 146 640 146 724 q 149 597 146 614 q 156 571 152 581 q 162 555 159 561 q 165 546 165 550 q 102 553 130 546 q 55 576 74 560 q 26 617 36 591 q 17 681 17 643 q 43 815 17 750 q 125 930 68 880 q 272 1011 182 981 q 490 1042 361 1042 q 542 1039 511 1042 q 610 1033 573 1036 q 686 1027 646 1030 q 762 1025 725 1025 q 826 1028 795 1025 q 888 1042 858 1032 q 878 991 884 1020 q 859 937 872 962 q 821 893 846 911 q 755 875 797 875 q 636 883 696 875 q 521 903 576 891 l 452 581 q 525 600 492 593 q 593 606 558 606 q 697 586 653 606 q 771 533 742 567 q 814 451 800 498 q 828 349 828 404 q 821 273 828 314 q 798 191 813 232 q 759 111 783 149 q 702 42 734 72 q 626 -6 669 12 q 530 -24 583 -24 q 452 -8 483 -24 q 405 32 420 7 q 389 91 389 58 q 404 160 389 124 q 449 121 426 132 q 497 110 472 110 q 562 133 535 110 q 604 192 588 156 q 628 270 621 227 q 635 353 635 313 q 628 420 635 389 q 607 474 622 451 q 566 510 591 497 q 503 524 541 524 q 468 520 485 524 q 436 510 452 517 l 326 0 l 126 0 z "},"":{"ha":890,"x_min":17,"x_max":842,"o":"m 139 0 l 328 884 l 533 911 l 468 603 l 476 603 q 554 623 517 603 q 617 676 590 644 q 660 749 644 709 q 676 828 676 789 q 666 884 676 857 q 634 932 656 911 q 577 965 612 953 q 493 978 543 978 q 411 969 452 978 q 331 941 369 960 q 258 895 292 922 q 200 829 224 867 q 160 744 175 791 q 146 640 146 697 q 149 597 146 614 q 156 571 152 581 q 162 555 159 561 q 165 546 165 550 q 56 574 95 546 q 17 673 17 603 q 36 767 17 722 q 89 854 55 813 q 171 929 123 895 q 274 989 218 964 q 392 1028 330 1014 q 521 1042 455 1042 q 653 1023 597 1042 q 745 974 709 1004 q 799 903 781 943 q 817 821 817 863 q 808 758 817 789 q 781 699 799 727 q 738 645 764 670 q 677 600 711 619 q 753 571 722 592 q 804 519 785 549 q 833 452 824 489 q 842 376 842 416 q 835 300 842 343 q 814 213 829 258 q 777 126 800 169 q 720 50 754 83 q 641 -3 686 17 q 538 -24 596 -24 q 491 -20 515 -24 q 447 -4 467 -16 q 413 27 427 7 q 400 79 400 47 q 404 117 400 97 q 418 160 408 136 q 466 121 444 132 q 511 110 488 110 q 575 134 549 110 q 618 195 602 158 q 641 276 634 232 q 648 359 648 320 q 642 428 648 395 q 620 484 635 460 q 580 522 605 508 q 517 536 555 536 q 490 536 508 536 q 453 532 473 535 l 339 0 l 139 0 z "},"":{"ha":595,"x_min":17,"x_max":872,"o":"m 126 0 l 326 928 q 251 912 284 926 q 194 866 218 899 q 158 779 171 833 q 146 640 146 724 q 149 597 146 614 q 156 571 152 581 q 162 555 159 561 q 165 546 165 550 q 102 553 130 546 q 55 576 74 560 q 26 617 36 591 q 17 681 17 643 q 27 772 17 727 q 61 857 38 817 q 122 930 85 897 q 213 989 160 964 q 337 1028 267 1014 q 498 1042 408 1042 q 548 1039 521 1042 q 607 1033 576 1036 q 671 1027 637 1030 q 741 1025 705 1025 q 808 1028 775 1025 q 872 1042 842 1032 q 862 1009 867 1027 q 852 972 858 991 q 837 937 846 954 q 815 905 829 919 q 782 883 802 892 q 733 875 762 875 q 627 883 680 875 q 521 903 574 891 l 326 0 l 126 0 z "},"":{"ha":929,"x_min":-35,"x_max":904,"o":"m 203 310 l 328 884 l 533 911 l 382 199 q 374 165 378 181 q 364 134 370 149 q 405 111 384 117 q 446 104 426 104 q 523 130 487 104 q 588 200 559 156 q 641 304 618 245 q 681 432 665 364 q 705 573 696 500 q 713 715 713 645 q 698 836 713 786 q 657 917 684 886 q 593 963 630 949 q 510 978 555 978 q 366 955 432 978 q 250 888 299 932 q 174 782 201 844 q 146 640 146 720 q 149 597 146 614 q 156 571 152 581 q 162 555 159 561 q 165 546 165 550 q 56 575 95 546 q 17 675 17 604 q 36 768 17 722 q 88 854 54 814 q 170 929 122 895 q 274 989 217 964 q 397 1028 332 1014 q 533 1042 463 1042 q 705 1009 634 1042 q 820 922 775 977 q 884 794 864 867 q 904 642 904 722 q 890 482 904 562 q 850 329 876 402 q 789 192 825 256 q 711 82 753 129 q 620 8 668 35 q 519 -18 571 -18 q 474 -14 497 -18 q 426 1 450 -9 q 378 27 402 11 q 332 69 355 44 q 286 17 311 37 q 235 -16 261 -4 q 181 -33 208 -28 q 129 -37 154 -37 q 68 -26 98 -37 q 16 4 39 -16 q -21 51 -7 24 q -35 113 -35 79 q -20 188 -35 154 q 20 244 -5 221 q 77 280 45 268 q 146 293 110 293 q 173 290 161 293 q 197 282 186 288 l 203 310 m 186 229 q 164 240 174 237 q 144 243 154 243 q 107 234 125 243 q 74 211 89 226 q 51 176 60 196 q 41 132 41 155 q 57 99 41 111 q 97 86 73 86 q 119 91 107 86 q 142 109 131 96 q 163 142 153 121 q 179 195 173 163 l 186 229 z "},"":{"ha":637,"x_min":9,"x_max":685,"o":"m 672 236 q 601 127 644 175 q 504 45 558 79 q 389 -7 450 11 q 265 -25 328 -25 q 150 -5 198 -25 q 70 49 101 15 q 24 127 39 83 q 9 220 9 171 q 27 332 9 275 q 78 438 45 389 q 158 526 111 488 q 267 579 206 564 q 202 655 222 612 q 182 746 182 699 q 204 853 182 800 q 268 949 227 906 q 364 1018 308 991 q 486 1044 420 1044 q 564 1033 528 1044 q 627 1000 600 1022 q 670 946 654 979 q 685 871 685 913 q 677 813 685 840 q 654 767 669 787 q 622 737 640 748 q 582 726 603 726 q 517 764 544 726 q 540 781 529 768 q 560 810 551 793 q 573 847 568 827 q 578 885 578 867 q 571 921 578 906 q 554 945 564 936 q 529 958 543 954 q 501 962 515 962 q 444 945 470 962 q 399 901 418 928 q 370 838 380 873 q 359 766 359 803 q 367 707 359 736 q 392 653 375 677 q 436 609 409 628 q 500 581 463 591 q 430 553 463 572 q 369 508 397 534 q 320 450 342 482 q 283 384 298 418 q 260 315 268 350 q 252 249 252 281 q 259 194 252 220 q 282 149 267 168 q 323 119 298 130 q 383 109 348 109 q 452 117 415 109 q 524 144 489 126 q 590 189 559 162 q 640 250 621 215 l 672 236 z "},"":{"ha":1079,"x_min":-64,"x_max":1149,"o":"m 343 0 l 450 505 q 433 507 441 507 q 418 507 425 507 q 365 500 389 509 q 323 474 341 491 q 292 432 304 456 q 271 379 279 408 q 254 309 260 346 q 241 236 247 272 q 231 167 236 200 q 221 109 227 134 q 206 59 215 83 q 181 17 197 35 q 143 -13 166 -1 q 86 -24 120 -24 q 20 -20 57 -24 q -64 0 -18 -16 q -12 42 -32 17 q 22 99 9 68 q 43 167 35 131 q 57 241 51 203 q 71 317 64 279 q 90 391 78 355 q 120 460 102 427 q 168 518 139 492 q 250 565 201 551 q 355 578 298 578 l 359 578 q 362 684 362 634 q 355 775 362 734 q 334 850 349 817 q 294 907 320 884 q 201 851 266 851 q 148 875 168 851 q 127 936 127 899 q 139 984 127 964 q 169 1017 150 1004 q 212 1036 188 1029 q 261 1042 235 1042 q 344 1017 311 1042 q 399 952 378 992 q 431 862 420 912 q 445 759 441 811 q 445 658 448 707 q 436 572 441 609 q 450 572 444 572 q 464 570 456 571 l 555 996 l 764 1039 l 664 570 q 680 572 672 571 q 696 572 688 572 q 724 675 707 623 q 761 774 741 727 q 802 860 781 821 q 840 921 823 898 q 941 1013 887 983 q 1044 1042 996 1042 q 1084 1036 1065 1042 q 1118 1018 1103 1029 q 1140 989 1132 1006 q 1149 949 1149 972 q 1141 903 1149 922 q 1120 873 1133 884 q 1091 856 1107 861 q 1059 851 1075 851 q 977 907 999 851 q 911 850 939 883 q 861 775 883 817 q 819 684 838 734 q 778 578 799 635 l 798 578 q 881 567 848 578 q 934 535 914 555 q 962 488 954 515 q 970 429 970 461 q 959 340 970 386 q 936 250 948 294 q 912 165 923 205 q 901 92 901 124 q 916 34 901 59 q 956 0 930 9 q 877 -18 911 -13 q 818 -24 843 -24 q 763 -15 784 -24 q 730 6 742 -7 q 714 36 718 20 q 710 69 710 53 q 722 149 710 104 q 747 240 733 193 q 772 332 760 287 q 783 412 783 376 q 779 451 783 433 q 765 480 774 468 q 739 500 755 493 q 700 507 723 507 q 675 506 688 507 q 650 503 663 505 l 543 0 l 343 0 z "},"":{"ha":729,"x_min":-14,"x_max":688,"o":"m 214 522 l 236 625 l 286 625 q 370 647 334 625 q 431 701 406 669 q 467 771 455 734 q 479 840 479 809 q 452 920 479 890 q 371 949 424 949 q 255 910 309 949 q 158 789 201 872 l 126 803 q 172 907 141 863 q 244 982 203 952 q 334 1026 285 1011 q 436 1040 383 1040 q 548 1025 500 1040 q 626 981 595 1009 q 672 911 657 952 q 688 821 688 871 q 673 742 688 779 q 632 674 659 705 q 566 620 605 644 q 479 579 528 595 q 554 547 521 567 q 610 500 587 528 q 646 436 633 472 q 659 357 659 400 q 630 210 659 279 q 548 88 602 140 q 418 5 494 36 q 245 -25 341 -25 q 139 -13 187 -25 q 58 22 92 -1 q 5 82 24 46 q -14 165 -14 117 q -5 217 -14 194 q 19 256 3 240 q 55 281 34 273 q 100 290 75 290 q 148 281 130 290 q 176 254 165 271 q 136 211 148 237 q 125 154 125 184 q 132 118 125 135 q 152 87 138 100 q 186 67 166 75 q 235 60 207 60 q 320 85 283 60 q 382 151 357 110 q 419 244 407 192 q 432 349 432 296 q 421 429 432 396 q 390 483 410 462 q 340 513 370 503 q 272 522 310 522 l 214 522 z "},"":{"ha":979,"x_min":17,"x_max":1019,"o":"m 599 0 l 750 714 l 339 0 l 139 0 l 340 945 q 197 829 248 906 q 146 640 146 752 q 149 597 146 614 q 156 571 152 581 q 162 555 159 561 q 165 546 165 550 q 102 553 130 546 q 55 576 74 560 q 26 617 36 591 q 17 681 17 643 q 37 772 17 727 q 92 857 57 817 q 173 930 126 897 q 275 989 220 964 q 387 1028 329 1014 q 504 1042 446 1042 q 533 1041 519 1042 q 559 1039 546 1040 l 403 300 l 819 1039 l 1019 1039 l 799 0 l 599 0 z "},"":{"ha":979,"x_min":17,"x_max":1019,"o":"m 599 0 l 750 714 l 339 0 l 139 0 l 340 945 q 197 829 248 906 q 146 640 146 752 q 149 597 146 614 q 156 571 152 581 q 162 555 159 561 q 165 546 165 550 q 102 553 130 546 q 55 576 74 560 q 26 617 36 591 q 17 681 17 643 q 37 772 17 727 q 92 857 57 817 q 173 930 126 897 q 275 989 220 964 q 387 1028 329 1014 q 504 1042 446 1042 q 533 1041 519 1042 q 559 1039 546 1040 l 403 300 l 819 1039 l 1019 1039 l 799 0 l 599 0 m 981 1348 q 926 1233 957 1278 q 857 1160 895 1187 q 777 1122 819 1133 q 688 1111 734 1111 q 554 1143 601 1111 q 507 1231 507 1175 q 532 1304 507 1276 q 600 1332 557 1332 q 664 1313 641 1332 q 686 1257 686 1293 q 686 1245 686 1253 q 682 1227 685 1237 q 672 1208 678 1218 q 653 1190 665 1198 q 677 1186 663 1187 q 708 1185 690 1185 q 765 1192 734 1185 q 824 1218 795 1200 q 878 1269 852 1237 q 922 1348 904 1300 l 981 1348 z "},"":{"ha":882,"x_min":17,"x_max":946,"o":"m 139 0 l 340 945 q 197 829 248 906 q 146 640 146 752 q 149 597 146 614 q 156 571 152 581 q 162 555 159 561 q 165 546 165 550 q 102 553 130 546 q 55 576 74 560 q 26 617 36 591 q 17 681 17 643 q 37 772 17 727 q 92 857 57 817 q 173 930 126 897 q 275 989 220 964 q 387 1028 329 1014 q 504 1042 446 1042 q 533 1041 519 1042 q 559 1039 546 1040 l 471 624 q 507 714 486 669 q 552 799 529 759 q 598 870 576 838 q 637 921 621 901 q 741 1013 688 984 q 842 1042 793 1042 q 882 1036 863 1042 q 915 1018 901 1029 q 938 989 929 1006 q 946 949 946 972 q 938 903 946 922 q 917 873 930 884 q 888 856 904 861 q 856 851 872 851 q 774 907 796 851 q 641 780 699 862 q 534 590 584 699 q 566 591 551 591 q 593 591 581 591 q 677 580 644 591 q 730 549 710 569 q 757 502 749 529 q 765 443 765 475 q 754 352 765 399 q 731 257 744 304 q 708 168 718 210 q 697 92 697 125 q 712 34 697 59 q 751 0 726 9 q 673 -18 707 -13 q 614 -24 639 -24 q 559 -15 580 -24 q 526 6 538 -7 q 510 36 514 20 q 505 69 505 53 q 517 151 505 104 q 542 247 528 197 q 568 346 556 297 q 579 435 579 395 q 575 473 579 456 q 561 503 570 490 q 535 522 551 515 q 496 529 519 529 q 475 528 486 529 q 450 524 464 527 l 339 0 l 139 0 z "},"":{"ha":762,"x_min":-41,"x_max":803,"o":"m 385 0 l 585 943 q 504 878 545 922 q 424 773 463 833 q 346 639 384 712 q 275 487 309 566 q 215 328 242 408 q 167 173 187 248 q 136 33 147 98 q 125 -81 125 -32 q 131 -131 125 -114 q 144 -158 137 -149 q 84 -155 117 -158 q 24 -139 52 -153 q -23 -95 -4 -125 q -41 -11 -41 -65 q -23 114 -41 41 q 27 270 -5 186 q 103 444 59 354 q 201 619 148 533 q 315 781 254 705 q 438 916 375 858 q 566 1008 501 974 q 693 1042 631 1042 q 719 1041 705 1042 q 748 1038 733 1040 q 777 1032 762 1036 q 803 1022 791 1028 l 585 0 l 385 0 z "},"":{"ha":1131,"x_min":93,"x_max":1117,"o":"m 771 0 l 860 624 l 599 0 l 408 0 l 436 627 l 204 0 l 93 0 l 446 954 q 283 841 342 920 q 225 642 225 762 q 228 597 225 614 q 235 571 231 581 q 241 556 238 561 q 244 546 244 551 q 183 553 210 546 q 136 574 155 559 q 106 613 117 589 q 96 672 96 637 q 114 761 96 716 q 163 847 132 806 q 237 923 195 888 q 329 985 280 959 q 432 1027 378 1012 q 538 1042 485 1042 q 643 1022 590 1042 l 611 290 l 917 1022 l 1117 1022 l 971 0 l 771 0 z "},"":{"ha":924,"x_min":17,"x_max":964,"o":"m 543 0 l 654 522 l 450 522 l 339 0 l 139 0 l 340 945 q 197 829 248 906 q 146 640 146 752 q 149 597 146 614 q 156 571 152 581 q 162 555 159 561 q 165 546 165 550 q 102 553 130 546 q 55 576 74 560 q 26 617 36 591 q 17 681 17 643 q 37 772 17 727 q 92 857 57 817 q 173 930 126 897 q 275 989 220 964 q 387 1028 329 1014 q 504 1042 446 1042 q 533 1041 519 1042 q 559 1039 546 1040 l 471 625 l 675 625 l 764 1039 l 964 1039 l 743 0 l 543 0 z "},"":{"ha":924,"x_min":22,"x_max":911,"o":"m 599 911 q 537 851 567 892 q 479 757 507 811 q 430 640 452 703 q 390 511 407 576 q 365 382 374 446 q 355 265 355 319 q 360 200 355 230 q 374 150 365 171 q 399 116 384 128 q 436 104 414 104 q 506 132 471 104 q 574 205 541 159 q 634 314 606 252 q 682 447 662 376 q 714 591 703 517 q 726 734 726 665 q 719 841 726 795 q 692 917 712 886 q 638 963 673 947 q 549 978 604 978 q 397 953 469 978 q 269 882 324 928 q 181 769 214 836 q 149 621 149 703 q 151 588 149 600 q 156 567 153 575 q 160 555 158 559 q 163 546 163 550 q 59 572 96 546 q 22 663 22 599 q 43 758 22 711 q 102 847 64 805 q 192 925 140 890 q 307 987 244 961 q 439 1027 369 1013 q 582 1042 509 1042 q 736 1015 673 1042 q 838 942 799 989 q 893 829 876 895 q 911 686 911 764 q 898 542 911 619 q 859 387 886 464 q 791 238 832 310 q 693 112 750 167 q 563 25 636 58 q 399 -8 490 -8 q 298 7 344 -8 q 220 55 253 22 q 168 141 186 88 q 150 271 150 195 q 160 397 150 327 q 192 539 171 467 q 244 681 213 612 q 318 804 276 750 q 412 890 359 857 q 526 922 464 922 q 562 920 544 922 q 599 911 579 918 z "},"":{"ha":956,"x_min":17,"x_max":1095,"o":"m 543 0 l 732 876 q 632 892 681 884 q 533 908 583 901 l 339 0 l 139 0 l 335 914 q 258 889 293 907 q 199 838 224 871 q 160 756 174 806 q 146 639 146 707 q 149 596 146 612 q 156 569 152 579 q 162 554 159 559 q 165 545 165 549 q 102 552 130 545 q 55 574 74 559 q 26 616 36 590 q 17 679 17 642 q 43 813 17 748 q 125 929 68 879 q 272 1010 182 979 q 490 1040 361 1040 q 600 1035 549 1040 q 702 1024 651 1030 q 808 1012 753 1017 q 933 1007 864 1007 q 1024 1016 983 1007 q 1095 1036 1066 1025 q 928 860 1090 862 l 743 0 l 543 0 z "},"":{"ha":796,"x_min":8,"x_max":823,"o":"m 131 0 l 319 884 l 525 911 l 427 447 q 493 466 462 450 q 552 508 525 482 q 601 566 579 533 q 638 636 623 600 q 661 712 653 673 q 669 789 669 751 q 660 862 669 827 q 629 922 650 896 q 575 963 608 948 q 497 978 543 978 q 346 955 412 978 q 233 888 279 932 q 162 782 186 845 q 138 640 138 720 q 141 597 138 614 q 147 571 144 581 q 154 555 151 561 q 157 546 157 550 q 93 553 121 546 q 46 576 65 560 q 18 617 28 591 q 8 681 8 643 q 28 772 8 727 q 83 857 48 817 q 165 930 118 897 q 266 989 212 964 q 379 1028 320 1014 q 496 1042 437 1042 q 643 1019 581 1042 q 745 958 705 996 q 804 871 785 920 q 823 768 823 822 q 796 635 823 702 q 716 516 768 569 q 590 429 665 463 q 422 396 516 396 l 415 396 l 330 0 l 131 0 z "},"":{"ha":690,"x_min":26,"x_max":743,"o":"m 726 236 q 651 117 699 166 q 548 37 604 68 q 436 -8 493 6 q 330 -22 378 -22 q 196 -4 253 -22 q 101 55 139 14 q 45 161 64 96 q 26 319 26 226 q 32 423 26 367 q 51 538 38 479 q 84 659 64 598 q 132 775 104 719 q 198 880 161 831 q 282 964 235 928 q 386 1021 329 1000 q 511 1042 443 1042 q 602 1031 559 1042 q 676 998 644 1021 q 725 941 707 976 q 743 856 743 905 q 738 805 743 828 q 721 764 733 781 q 691 737 709 747 q 646 728 672 728 q 608 734 629 728 q 567 764 587 740 q 591 783 579 770 q 611 813 602 796 q 625 851 620 831 q 631 892 631 871 q 626 924 631 908 q 612 951 622 939 q 585 969 602 962 q 546 977 569 977 q 471 948 507 977 q 402 871 435 920 q 343 758 370 823 q 298 622 317 694 q 268 474 279 550 q 257 328 257 398 q 264 240 257 279 q 290 172 271 200 q 341 127 309 143 q 424 111 373 111 q 576 148 506 111 q 694 250 646 184 l 726 236 z "},"":{"ha":668,"x_min":8,"x_max":999,"o":"m 218 0 l 415 920 l 399 920 q 296 907 344 920 q 213 863 248 895 q 158 777 178 831 q 138 639 138 723 q 141 596 138 612 q 147 569 144 579 q 154 554 151 559 q 157 545 157 549 q 93 552 121 545 q 46 574 65 559 q 18 616 28 590 q 8 679 8 642 q 34 813 8 748 q 116 929 60 879 q 263 1010 173 979 q 482 1040 353 1040 q 557 1038 524 1040 q 618 1032 590 1036 q 671 1024 646 1029 q 722 1017 696 1020 q 775 1011 747 1013 q 838 1008 804 1008 q 928 1017 886 1008 q 999 1038 970 1026 q 952 904 996 946 q 825 861 908 861 q 721 871 774 861 q 610 892 667 880 l 418 0 l 218 0 z "},"":{"ha":895,"x_min":17,"x_max":991,"o":"m 353 949 q 201 834 256 912 q 146 640 146 756 q 149 597 146 614 q 156 571 152 581 q 162 555 159 561 q 165 546 165 550 q 102 553 130 546 q 55 576 74 560 q 26 617 36 591 q 17 681 17 643 q 37 772 17 727 q 92 857 57 817 q 173 930 126 897 q 275 989 220 964 q 387 1028 329 1014 q 504 1042 446 1042 q 533 1041 519 1042 q 559 1039 546 1040 l 681 518 l 900 1035 l 991 1035 l 644 214 q 611 144 631 182 q 563 72 591 106 q 497 16 535 39 q 408 -7 459 -7 q 355 1 378 -7 q 316 22 332 9 q 294 54 301 36 q 286 94 286 73 q 311 167 286 140 q 382 193 336 193 q 440 172 418 193 q 468 111 463 150 q 514 150 493 121 q 551 214 536 179 l 353 949 z "},"":{"ha":1092,"x_min":26,"x_max":1050,"o":"m 329 0 l 359 143 q 206 170 269 144 q 103 238 143 196 q 45 333 63 279 q 26 444 26 387 q 44 567 26 512 q 94 666 62 623 q 171 743 126 710 q 270 800 216 777 q 386 838 324 823 q 513 859 447 852 l 557 1067 q 440 1053 490 1062 q 359 1027 391 1043 q 311 987 327 1010 q 296 930 296 963 q 299 901 296 916 q 307 871 302 886 q 253 872 279 868 q 209 886 228 876 q 178 916 189 897 q 167 962 167 935 q 200 1034 168 1004 q 285 1084 233 1064 q 405 1114 338 1104 q 543 1124 472 1124 q 657 1119 603 1124 q 764 1103 711 1114 l 711 860 q 860 825 797 852 q 966 759 924 799 q 1029 669 1008 720 q 1050 561 1050 618 q 1017 400 1050 476 q 925 267 985 324 q 781 177 865 210 q 593 143 696 143 l 559 143 l 529 0 l 329 0 m 582 208 q 700 241 647 208 q 789 326 752 273 q 847 442 827 378 q 867 571 867 507 q 824 721 867 667 q 697 790 781 774 l 574 208 l 582 208 m 497 790 q 289 679 359 766 q 218 425 218 591 q 229 346 218 384 q 259 278 239 308 q 308 230 279 248 q 374 208 337 211 l 497 790 z "},"":{"ha":861,"x_min":8,"x_max":869,"o":"m 546 0 l 472 347 l 271 0 l 186 0 l 447 461 l 345 949 q 192 834 247 912 q 138 640 138 756 q 141 597 138 614 q 147 571 144 581 q 154 555 151 561 q 157 546 157 550 q 93 553 121 546 q 46 576 65 560 q 18 617 28 591 q 8 681 8 643 q 28 772 8 727 q 83 857 48 817 q 165 930 118 897 q 266 989 212 964 q 379 1028 320 1014 q 496 1042 437 1042 q 525 1041 511 1042 q 551 1039 538 1040 l 611 750 l 772 1035 l 869 1035 l 636 631 l 766 0 l 546 0 z "},"":{"ha":961,"x_min":17,"x_max":989,"o":"m 764 1039 l 964 1039 l 736 -24 q 805 -48 772 -39 q 869 -57 837 -57 q 895 -56 880 -57 q 926 -53 910 -56 q 958 -46 942 -50 q 989 -33 975 -41 q 972 -121 984 -83 q 940 -183 961 -159 q 888 -221 920 -208 q 814 -233 857 -233 q 724 -216 764 -233 q 649 -173 685 -199 q 576 -117 612 -147 q 495 -60 539 -86 q 394 -17 450 -35 q 264 0 338 0 q 184 -2 213 0 q 144 -7 156 -3 l 138 -8 l 138 -7 q 139 -4 138 -5 l 340 943 q 197 829 249 905 q 146 640 146 753 q 149 597 146 614 q 156 571 152 581 q 162 555 159 561 q 165 546 165 550 q 102 553 130 546 q 55 576 74 560 q 26 617 36 591 q 17 681 17 643 q 37 772 17 727 q 92 857 57 817 q 173 930 126 897 q 275 989 220 964 q 387 1028 329 1014 q 504 1042 446 1042 q 533 1041 519 1042 q 559 1039 546 1040 l 361 102 l 374 102 q 464 89 418 102 q 554 58 509 76 l 764 1039 z "},"":{"ha":965,"x_min":17,"x_max":1006,"o":"m 585 0 l 684 463 q 574 418 625 428 q 478 408 523 408 q 401 420 437 408 q 339 455 366 431 q 297 517 313 479 q 282 607 282 555 q 285 672 282 635 q 297 751 288 709 l 340 945 q 197 829 248 906 q 146 640 146 752 q 149 597 146 614 q 156 571 152 581 q 162 555 159 561 q 165 546 165 550 q 102 553 130 546 q 55 576 74 560 q 26 617 36 591 q 17 681 17 643 q 37 772 17 727 q 92 857 57 817 q 173 930 126 897 q 275 989 220 964 q 387 1028 329 1014 q 504 1042 446 1042 q 533 1041 519 1042 q 559 1039 546 1040 l 497 751 q 484 675 489 711 q 478 618 478 640 q 487 569 478 589 q 511 538 496 550 q 544 522 526 526 q 582 517 562 517 q 650 529 620 517 q 704 561 680 541 l 806 1039 l 1006 1039 l 785 0 l 585 0 z "},"":{"ha":1258,"x_min":17,"x_max":1299,"o":"m 139 0 l 340 945 q 197 829 248 906 q 146 640 146 752 q 149 597 146 614 q 156 571 152 581 q 162 555 159 561 q 165 546 165 550 q 102 553 130 546 q 55 576 74 560 q 26 617 36 591 q 17 681 17 643 q 37 772 17 727 q 92 857 57 817 q 173 930 126 897 q 275 989 220 964 q 387 1028 329 1014 q 504 1042 446 1042 q 533 1041 519 1042 q 559 1039 546 1040 l 359 103 l 522 103 l 722 1039 l 922 1039 l 722 103 l 899 103 l 1099 1039 l 1299 1039 l 1078 0 l 139 0 z "},"":{"ha":1297,"x_min":17,"x_max":1325,"o":"m 1099 1039 l 1299 1039 l 1069 -37 q 1146 -52 1112 -46 q 1204 -57 1181 -57 q 1271 -52 1241 -57 q 1325 -33 1301 -47 q 1309 -121 1320 -83 q 1276 -183 1297 -159 q 1225 -221 1256 -208 q 1153 -233 1195 -233 q 1038 -216 1103 -233 q 900 -173 974 -199 q 745 -117 826 -147 q 583 -60 665 -86 q 419 -17 500 -35 q 264 0 338 0 q 183 -2 211 0 q 143 -7 155 -3 l 138 -8 l 138 -5 q 139 0 138 -1 l 340 945 q 197 830 248 907 q 146 642 146 753 q 149 597 146 614 q 156 571 152 581 q 162 556 159 561 q 165 546 165 551 q 56 574 95 546 q 17 673 17 603 q 37 769 17 722 q 92 856 57 815 q 174 931 127 897 q 275 990 221 965 q 387 1028 329 1015 q 503 1042 445 1042 q 532 1041 518 1042 q 559 1039 546 1040 l 359 102 q 382 102 371 102 q 407 103 393 103 q 519 89 450 103 l 722 1039 l 922 1039 l 711 47 q 795 27 753 38 q 879 5 837 17 l 1099 1039 z "},"":{"ha":991,"x_min":17,"x_max":943,"o":"m 240 0 l 437 918 q 419 919 428 918 q 401 920 411 920 q 343 918 372 920 q 288 910 314 916 q 238 892 261 904 q 196 860 214 880 q 161 798 174 835 q 148 718 149 761 q 159 630 147 675 q 200 542 172 584 q 131 539 164 535 q 73 561 98 544 q 32 607 47 578 q 17 679 17 636 q 30 765 17 722 q 70 848 43 808 q 137 924 97 888 q 232 985 178 959 q 354 1025 286 1010 q 504 1040 422 1040 q 592 1038 555 1040 q 663 1029 630 1035 l 566 581 q 640 600 606 594 q 708 606 673 606 q 813 586 768 606 q 886 533 857 567 q 929 451 915 498 q 943 349 943 404 q 936 273 943 314 q 913 191 928 232 q 874 111 898 149 q 817 42 850 72 q 741 -6 784 12 q 646 -24 699 -24 q 567 -8 598 -24 q 520 32 536 7 q 505 91 505 58 q 519 160 505 124 q 564 121 541 132 q 612 110 587 110 q 677 133 650 110 q 720 192 703 156 q 743 270 736 227 q 750 353 750 313 q 744 420 750 389 q 722 474 737 451 q 681 510 707 497 q 618 524 656 524 q 585 520 602 524 q 550 509 567 517 l 440 0 l 240 0 z "},"":{"ha":1263,"x_min":17,"x_max":1303,"o":"m 139 0 l 340 945 q 197 829 248 906 q 146 640 146 752 q 149 597 146 614 q 156 571 152 581 q 162 555 159 561 q 165 546 165 550 q 102 553 130 546 q 55 576 74 560 q 26 617 36 591 q 17 681 17 643 q 37 772 17 727 q 92 857 57 817 q 173 930 126 897 q 275 989 220 964 q 387 1028 329 1014 q 504 1042 446 1042 q 533 1041 519 1042 q 559 1039 546 1040 l 463 581 q 537 600 503 593 q 606 606 571 606 q 710 586 666 606 q 783 533 754 567 q 826 451 812 498 q 840 349 840 404 q 833 273 840 314 q 810 191 825 232 q 771 111 795 149 q 714 42 747 72 q 638 -6 681 12 q 543 -24 596 -24 q 464 -8 496 -24 q 417 32 433 7 q 401 91 401 58 q 416 160 401 124 q 461 121 438 132 q 510 110 484 110 q 574 133 548 110 q 616 192 600 156 q 640 270 633 227 q 647 353 647 313 q 641 420 647 389 q 619 474 634 451 q 578 510 604 497 q 515 524 553 524 q 482 520 500 524 q 447 509 464 517 l 339 0 l 139 0 m 882 0 l 1103 1039 l 1303 1039 l 1082 0 l 882 0 z "},"":{"ha":889,"x_min":17,"x_max":840,"o":"m 139 0 l 340 945 q 197 829 248 906 q 146 640 146 752 q 149 597 146 614 q 156 571 152 581 q 162 555 159 561 q 165 546 165 550 q 102 553 130 546 q 55 576 74 560 q 26 617 36 591 q 17 681 17 643 q 37 772 17 727 q 92 857 57 817 q 173 930 126 897 q 275 989 220 964 q 387 1028 329 1014 q 504 1042 446 1042 q 533 1041 519 1042 q 559 1039 546 1040 l 463 581 q 537 600 503 593 q 606 606 571 606 q 710 586 666 606 q 783 533 754 567 q 826 451 812 498 q 840 349 840 404 q 833 273 840 314 q 810 191 825 232 q 771 111 795 149 q 714 42 747 72 q 638 -6 681 12 q 543 -24 596 -24 q 464 -8 496 -24 q 417 32 433 7 q 401 91 401 58 q 416 160 401 124 q 461 121 438 132 q 510 110 484 110 q 574 133 548 110 q 616 192 600 156 q 640 270 633 227 q 647 353 647 313 q 641 420 647 389 q 619 474 634 451 q 578 510 604 497 q 515 524 553 524 q 482 520 500 524 q 447 509 464 517 l 339 0 l 139 0 z "},"":{"ha":755,"x_min":-16,"x_max":743,"o":"m 203 522 l 225 625 l 510 625 q 512 658 511 642 q 513 692 513 675 q 505 786 513 743 q 479 859 498 828 q 428 906 460 889 q 346 922 395 922 q 273 911 305 922 q 215 881 241 901 q 164 833 188 861 q 117 770 140 804 l 85 783 q 154 902 113 853 q 243 982 195 951 q 341 1027 290 1013 q 439 1042 391 1042 q 573 1023 516 1042 q 668 964 630 1005 q 725 859 706 924 q 743 700 743 793 q 737 597 743 653 q 717 481 731 541 q 682 361 703 422 q 630 244 661 300 q 560 140 600 189 q 470 55 520 92 q 358 -2 420 19 q 224 -22 297 -22 q 129 -12 173 -22 q 53 21 85 -1 q 3 79 21 43 q -16 164 -16 114 q -11 215 -16 191 q 6 255 -5 238 q 37 282 18 273 q 82 292 56 292 q 120 286 99 292 q 161 256 142 279 q 142 236 151 250 q 126 206 134 223 q 115 168 119 189 q 111 127 111 148 q 116 96 111 111 q 132 68 121 80 q 160 50 143 57 q 203 43 178 43 q 267 62 235 43 q 328 114 299 81 q 384 193 357 147 q 432 291 410 238 q 470 403 454 345 q 497 522 487 462 l 203 522 z "},"":{"ha":1314,"x_min":17,"x_max":1301,"o":"m 139 0 l 340 945 q 197 829 248 906 q 146 640 146 752 q 149 597 146 614 q 156 571 152 581 q 162 555 159 561 q 165 546 165 550 q 102 553 130 546 q 55 576 74 560 q 26 617 36 591 q 17 681 17 643 q 37 772 17 727 q 92 857 57 817 q 173 930 126 897 q 275 989 220 964 q 387 1028 329 1014 q 504 1042 446 1042 q 533 1041 519 1042 q 559 1039 546 1040 l 471 625 l 611 625 q 663 733 633 682 q 731 823 693 785 q 813 885 768 862 q 911 908 859 908 q 946 906 928 908 q 983 897 964 905 q 922 839 952 878 q 866 747 892 800 q 818 633 840 694 q 780 507 795 571 q 755 381 764 444 q 746 265 746 319 q 751 200 746 230 q 765 150 755 171 q 790 116 774 128 q 827 104 805 104 q 897 131 861 104 q 964 202 932 157 q 1024 307 996 247 q 1073 436 1052 368 q 1105 577 1093 505 q 1117 721 1117 650 q 1107 821 1117 776 q 1075 898 1097 866 q 1016 946 1053 929 q 925 964 979 964 q 805 940 855 964 q 730 875 755 916 q 733 938 720 907 q 779 991 747 968 q 858 1028 811 1014 q 958 1042 904 1042 q 1219 953 1136 1042 q 1301 686 1301 864 q 1289 542 1301 619 q 1250 387 1276 464 q 1182 238 1223 310 q 1084 112 1141 167 q 953 25 1027 58 q 789 -8 880 -8 q 688 7 734 -8 q 610 55 643 22 q 559 141 577 88 q 541 271 541 195 q 550 389 541 324 q 576 522 559 454 l 450 522 l 339 0 l 139 0 z "},"":{"ha":875,"x_min":-64,"x_max":961,"o":"m 345 0 l 443 464 q 395 458 415 463 q 360 448 376 454 q 333 432 345 441 q 309 412 321 423 q 274 356 288 393 q 250 277 260 320 q 231 190 239 234 q 215 109 223 145 q 201 59 210 83 q 178 17 193 35 q 142 -13 164 -1 q 86 -24 119 -24 q 21 -20 60 -24 q -64 0 -18 -16 q -21 28 -39 13 q 9 61 -3 43 q 30 102 22 79 q 45 154 39 125 l 77 307 q 102 393 87 357 q 140 454 118 429 q 193 493 163 478 q 262 514 222 507 q 179 597 203 547 q 154 713 154 647 q 184 838 154 778 q 272 942 214 897 q 416 1015 330 987 q 615 1042 503 1042 q 751 1026 688 1042 q 861 981 814 1010 q 934 910 907 951 q 961 819 961 869 q 951 756 961 782 q 923 715 941 730 q 877 692 904 699 q 815 685 850 685 q 820 697 817 690 q 826 715 823 704 q 831 742 829 726 q 833 779 833 758 q 820 868 833 831 q 778 928 806 905 q 709 962 750 951 q 612 972 667 972 q 477 951 535 972 q 379 895 418 930 q 320 813 340 860 q 300 714 300 766 q 314 628 300 664 q 351 569 329 592 q 401 534 374 545 q 454 524 429 524 l 456 524 l 533 884 l 739 911 l 545 0 l 345 0 z "},"":{"ha":730,"x_min":-18,"x_max":789,"o":"m 789 249 q 746 151 769 193 q 698 81 723 110 q 648 35 673 53 q 597 8 622 18 q 551 -5 573 -1 q 510 -8 528 -8 q 416 24 451 -8 q 374 119 381 56 q 336 73 357 96 q 291 32 316 50 q 235 3 266 14 q 167 -8 204 -8 q 98 3 131 -8 q 39 41 64 15 q -3 111 13 68 q -18 215 -18 153 q -9 317 -18 262 q 20 425 1 371 q 70 529 40 479 q 139 617 99 579 q 229 679 178 656 q 339 701 279 701 q 425 681 398 701 q 452 631 452 661 l 452 621 l 467 694 l 667 694 l 567 222 q 562 200 564 211 q 561 178 561 189 q 618 118 561 118 q 655 129 638 118 q 687 157 673 139 q 712 198 701 174 q 730 249 723 222 l 789 249 m 439 562 q 436 577 439 568 q 427 595 433 587 q 410 609 420 604 q 382 615 399 615 q 327 596 353 615 q 279 546 300 577 q 240 474 257 514 q 211 392 223 434 q 193 308 199 349 q 187 235 187 267 q 195 173 187 195 q 213 141 202 151 q 235 128 223 130 q 257 126 248 126 q 290 134 273 126 q 323 157 307 142 q 352 195 339 172 q 372 249 366 218 l 439 562 z "},"":{"ha":597,"x_min":-18,"x_max":778,"o":"m 410 808 q 397 806 402 808 q 392 791 392 803 q 403 772 392 786 q 430 738 414 759 q 466 688 446 717 q 501 624 485 660 q 528 545 517 589 q 539 452 539 502 q 529 347 539 401 q 499 243 519 294 q 451 147 480 192 q 385 68 422 102 q 302 14 348 34 q 204 -5 257 -5 q 111 8 152 -5 q 41 51 69 22 q -3 124 12 79 q -18 229 -18 168 q 6 385 -18 308 q 80 522 31 461 q 199 620 128 583 q 361 657 269 657 q 374 656 368 657 q 385 656 379 656 q 327 718 357 689 q 272 773 297 746 q 231 829 248 801 q 215 892 215 858 q 251 969 215 945 q 366 994 287 994 l 576 994 q 638 994 614 994 q 678 1000 663 994 q 702 1020 693 1006 q 717 1061 710 1034 l 778 1061 q 743 932 761 981 q 698 855 724 882 q 634 818 671 827 q 543 808 597 808 l 410 808 m 257 119 q 313 141 288 119 q 356 198 338 163 q 388 275 375 233 q 409 357 401 317 q 420 430 416 397 q 424 481 424 464 q 420 526 424 508 q 410 554 417 544 q 394 568 404 564 q 371 572 384 572 q 311 551 338 572 q 263 497 284 530 q 228 424 243 465 q 203 345 213 384 q 189 273 193 307 q 184 222 184 240 q 189 172 184 192 q 201 140 193 152 q 224 124 210 128 q 257 119 237 119 z "},"":{"ha":624,"x_min":-20,"x_max":770,"o":"m 770 528 q 670 457 732 487 q 534 415 609 428 q 541 382 539 399 q 542 346 542 366 q 519 214 542 277 q 454 102 497 151 q 350 24 412 53 q 211 -5 289 -5 q 108 13 151 -5 q 36 65 64 32 q -6 144 7 98 q -20 244 -20 190 q -11 336 -20 281 q 13 453 -3 390 q 52 585 28 517 q 103 719 75 653 q 166 843 132 784 q 240 946 201 902 q 322 1017 279 991 q 411 1043 365 1043 q 474 1033 446 1043 q 522 999 503 1022 q 553 940 542 977 q 564 852 564 904 q 553 763 564 808 q 525 674 542 718 q 488 591 508 631 q 450 519 469 551 q 478 502 466 512 q 503 478 491 492 q 570 486 535 478 q 640 506 606 494 q 704 534 673 519 q 757 566 734 550 l 770 528 m 403 390 q 382 384 391 386 q 353 382 372 382 q 300 400 320 382 q 281 450 281 418 q 288 488 281 473 q 309 513 296 503 q 339 527 321 522 q 378 533 357 532 q 413 607 396 566 q 445 691 431 648 q 467 777 458 734 q 475 859 475 820 q 464 918 475 901 q 429 935 453 935 q 385 911 407 935 q 341 847 362 887 q 300 753 320 806 q 263 643 281 701 q 232 525 246 585 q 208 411 218 465 q 193 312 198 357 q 187 240 187 268 q 192 191 187 213 q 207 153 197 169 q 233 128 217 137 q 272 119 249 119 q 333 137 306 119 q 378 183 359 155 q 406 245 396 211 q 415 314 415 280 q 403 390 415 366 z "},"":{"ha":521,"x_min":-29,"x_max":568,"o":"m 568 249 q 496 149 535 196 q 410 67 457 102 q 308 12 363 33 q 186 -8 252 -8 q 97 1 136 -8 q 29 29 57 10 q -14 78 1 48 q -29 149 -29 107 q -17 217 -29 187 q 17 271 -4 248 q 64 314 37 295 q 118 351 90 334 q 172 385 146 368 q 219 421 199 402 q 253 464 240 441 q 265 515 265 486 q 250 563 265 546 q 201 581 234 581 q 120 546 157 581 q 52 436 83 512 l -16 436 q 32 545 5 496 q 95 631 59 595 q 179 687 132 667 q 288 707 226 707 q 358 698 324 707 q 418 670 392 689 q 459 621 444 651 q 475 550 475 591 q 453 453 475 493 q 399 382 431 412 q 328 330 366 353 q 258 285 290 307 q 203 239 225 263 q 182 182 182 214 q 209 125 182 141 q 281 109 236 109 q 340 116 311 109 q 398 139 369 123 q 457 183 427 156 q 521 249 488 210 l 568 249 z "},"":{"ha":704,"x_min":-18,"x_max":762,"o":"m 496 -111 q 453 -232 481 -186 q 390 -304 425 -278 q 318 -338 355 -330 q 245 -347 280 -347 q 185 -339 214 -347 q 136 -314 157 -330 q 103 -272 115 -297 q 90 -212 90 -246 q 111 -136 90 -169 q 164 -78 132 -102 q 237 -35 197 -53 q 317 -5 277 -18 l 334 68 q 262 14 303 35 q 167 -8 221 -8 q 98 3 131 -8 q 39 41 64 15 q -3 111 13 68 q -18 215 -18 153 q -9 317 -18 262 q 20 425 1 371 q 70 529 40 479 q 139 617 99 579 q 229 679 178 656 q 339 701 279 701 q 425 681 398 701 q 452 631 452 661 l 452 623 l 467 694 l 667 694 l 529 50 q 587 76 561 61 q 634 115 612 92 q 672 171 655 138 q 704 249 690 203 l 762 249 q 712 134 741 180 q 651 58 684 87 q 584 13 618 28 q 517 -11 549 -3 l 496 -111 m 439 564 q 436 578 439 570 q 427 595 433 587 q 410 609 420 604 q 382 615 399 615 q 327 596 353 615 q 279 546 300 577 q 240 474 257 514 q 211 392 223 434 q 193 308 199 349 q 187 235 187 267 q 195 173 187 195 q 213 141 202 151 q 235 128 223 130 q 257 126 248 126 q 288 133 271 126 q 320 154 304 140 q 349 188 336 168 q 368 235 361 208 l 439 564 m 302 -75 q 251 -97 275 -85 q 208 -123 227 -109 q 178 -155 189 -138 q 167 -193 167 -172 q 170 -209 167 -201 q 178 -224 172 -217 q 193 -235 184 -231 q 214 -239 201 -239 q 258 -209 235 -239 q 294 -115 281 -178 l 302 -75 z "},"":{"ha":533,"x_min":-18,"x_max":581,"o":"m 581 249 q 514 154 551 200 q 429 72 476 108 q 325 14 382 36 q 199 -8 267 -8 q 109 4 149 -8 q 41 43 69 17 q -3 112 12 70 q -18 212 -18 153 q -10 304 -18 252 q 16 412 -2 357 q 62 519 33 467 q 133 614 92 572 q 230 681 174 656 q 357 707 286 707 q 433 695 404 707 q 480 666 463 684 q 504 624 497 648 q 510 574 510 600 q 484 461 510 513 q 413 371 457 410 q 311 309 368 332 q 191 281 253 285 q 188 251 189 265 q 187 225 187 237 q 194 167 187 190 q 213 132 200 144 q 244 114 225 119 q 288 109 262 109 q 362 119 329 109 q 425 149 396 130 q 480 194 454 168 q 533 249 507 220 l 581 249 m 201 347 q 277 370 241 350 q 342 421 314 389 q 386 493 370 452 q 403 576 403 533 q 395 618 403 602 q 368 633 388 633 q 316 608 342 633 q 269 542 291 583 q 229 450 246 501 q 201 347 212 399 z "},"":{"ha":1225,"x_min":-52,"x_max":1283,"o":"m 1283 249 q 1227 155 1261 201 q 1149 72 1192 109 q 1055 14 1105 36 q 950 -8 1004 -8 q 865 7 903 -8 q 801 52 827 23 q 761 121 775 81 q 747 212 747 162 q 749 271 747 241 q 758 334 751 301 l 679 334 l 610 0 l 424 0 l 494 334 l 416 334 q 380 212 404 273 q 319 102 356 151 q 231 22 281 53 q 114 -8 180 -8 q 35 4 67 -8 q -16 38 3 17 q -43 85 -35 58 q -52 139 -52 111 q -45 190 -52 168 q -27 226 -38 212 q -1 248 -16 241 q 31 256 14 256 q 56 252 42 256 q 81 236 69 248 q 67 188 71 211 q 62 144 62 165 q 67 107 62 122 q 79 82 72 92 q 95 69 86 73 q 113 65 104 65 q 151 83 132 65 q 186 131 170 100 q 218 200 203 161 q 242 284 232 240 q 258 372 252 328 q 264 458 264 417 q 242 569 264 534 q 179 604 221 604 q 115 577 138 604 q 72 500 92 550 l 0 500 q 34 586 14 547 q 80 651 53 624 q 145 692 108 677 q 231 707 182 707 q 316 691 278 707 q 380 647 354 675 q 419 577 406 618 q 433 486 433 536 q 429 416 433 452 l 513 416 l 571 694 l 757 694 l 699 416 l 777 416 q 818 524 793 471 q 879 616 844 576 q 959 682 913 657 q 1061 707 1004 707 q 1131 695 1103 707 q 1175 666 1159 684 q 1198 625 1192 648 q 1204 579 1204 602 q 1184 503 1204 528 q 1133 478 1163 478 q 1109 482 1122 478 q 1084 494 1096 486 q 1095 538 1092 518 q 1099 576 1099 559 q 1090 618 1099 602 q 1067 633 1082 633 q 1030 616 1048 633 q 995 568 1012 598 q 964 498 979 538 q 940 415 950 458 q 923 326 929 371 q 917 240 917 281 q 945 129 917 164 q 1019 94 973 94 q 1072 103 1044 94 q 1129 132 1100 113 q 1185 180 1158 151 q 1236 249 1213 209 l 1283 249 z "},"":{"ha":692,"x_min":0,"x_max":750,"o":"m 750 249 q 699 131 729 178 q 634 54 669 84 q 564 8 600 24 q 496 -16 528 -7 q 475 -156 494 -94 q 421 -260 455 -218 q 339 -325 387 -302 q 233 -347 291 -347 q 173 -339 201 -347 q 124 -314 145 -330 q 90 -272 102 -297 q 78 -212 78 -246 q 97 -138 78 -170 q 148 -80 117 -105 q 218 -38 179 -56 q 296 -8 257 -20 q 196 139 292 139 l 153 139 l 171 222 l 211 222 q 280 241 248 222 q 334 292 311 260 q 369 368 357 325 q 382 461 382 412 q 378 503 382 481 q 366 541 375 524 q 340 569 357 558 q 297 581 323 581 q 227 562 260 581 q 164 504 193 544 q 108 401 134 465 q 58 249 81 338 l 0 249 q 32 369 16 311 q 70 478 49 427 q 117 571 90 529 q 180 643 144 613 q 263 690 216 673 q 372 707 311 707 q 463 692 422 707 q 532 649 503 677 q 576 580 560 621 q 591 486 591 539 q 579 401 591 441 q 548 328 567 361 q 505 269 529 295 q 457 223 481 242 q 411 193 433 204 q 376 179 390 182 q 410 161 393 174 q 443 132 427 149 q 471 91 458 114 q 490 40 484 68 q 557 66 528 51 q 612 105 587 81 q 655 164 636 129 q 692 249 675 199 l 750 249 m 292 -75 q 240 -96 264 -85 q 196 -122 215 -108 q 165 -155 177 -137 q 154 -193 154 -172 q 166 -226 154 -213 q 201 -239 178 -239 q 231 -225 216 -239 q 258 -190 245 -212 q 279 -138 270 -168 q 292 -75 288 -108 z "},"":{"ha":701,"x_min":-11,"x_max":760,"o":"m 760 249 q 717 151 740 193 q 669 81 694 110 q 618 35 644 53 q 568 8 593 18 q 522 -5 544 -1 q 481 -8 499 -8 q 386 25 421 -8 q 343 123 351 58 q 290 55 317 81 q 236 15 262 29 q 184 -4 210 1 q 138 -8 159 -8 q 79 1 106 -8 q 32 31 52 11 q 1 83 12 52 q -11 158 -11 114 q -8 200 -11 177 q 0 249 -5 222 l 94 694 l 294 694 l 195 222 q 191 183 191 201 q 199 143 191 159 q 232 126 208 126 q 269 135 252 126 q 300 161 286 144 q 325 200 314 177 q 343 249 335 222 l 437 694 l 637 694 l 538 222 q 533 200 534 211 q 532 178 532 189 q 546 137 532 149 q 589 126 559 126 q 626 135 609 126 q 658 161 644 144 q 683 200 672 177 q 701 249 694 222 l 760 249 z "},"":{"ha":701,"x_min":-11,"x_max":760,"o":"m 760 249 q 717 151 740 193 q 669 81 694 110 q 618 35 644 53 q 568 8 593 18 q 522 -5 544 -1 q 481 -8 499 -8 q 386 25 421 -8 q 343 123 351 58 q 290 55 317 81 q 236 15 262 29 q 184 -4 210 1 q 138 -8 159 -8 q 79 1 106 -8 q 32 31 52 11 q 1 83 12 52 q -11 158 -11 114 q -8 200 -11 177 q 0 249 -5 222 l 94 694 l 294 694 l 195 222 q 191 183 191 201 q 199 143 191 159 q 232 126 208 126 q 269 135 252 126 q 300 161 286 144 q 325 200 314 177 q 343 249 335 222 l 437 694 l 637 694 l 538 222 q 533 200 534 211 q 532 178 532 189 q 546 137 532 149 q 589 126 559 126 q 626 135 609 126 q 658 161 644 144 q 683 200 672 177 q 701 249 694 222 l 760 249 m 654 999 q 600 884 631 930 q 533 812 570 839 q 453 773 496 785 q 361 762 410 762 q 227 794 274 762 q 180 882 180 827 q 205 955 180 927 q 273 983 231 983 q 337 964 314 983 q 359 908 359 945 q 359 896 359 904 q 355 879 358 888 q 345 860 351 869 q 326 842 338 850 q 351 837 337 838 q 382 836 364 836 q 441 844 411 836 q 500 870 471 851 q 553 920 528 888 q 596 999 578 951 l 654 999 z "},"":{"ha":696,"x_min":-53,"x_max":754,"o":"m 754 249 q 501 -8 667 -8 q 375 34 416 -8 q 334 146 334 75 q 336 181 334 163 q 341 217 338 199 q 347 250 345 235 q 350 278 350 266 q 297 345 350 345 q 278 341 287 345 q 259 332 269 338 q 237 316 249 326 q 208 293 224 306 l 147 0 l -53 0 l 96 694 l 296 694 l 236 419 q 323 509 286 469 q 390 581 360 549 q 443 637 419 613 q 489 676 467 661 q 533 699 511 692 q 583 707 556 707 q 655 680 632 707 q 679 615 679 654 q 656 549 679 573 q 591 525 633 525 q 556 531 571 525 q 532 548 541 538 q 519 571 523 559 q 515 596 515 584 q 471 564 492 582 q 432 525 451 545 q 393 481 412 504 q 351 437 373 459 q 382 442 367 441 q 410 443 397 443 q 472 434 447 443 q 513 410 498 426 q 535 369 529 393 q 542 314 542 345 q 539 281 542 298 q 533 248 536 264 q 528 214 530 231 q 525 178 525 196 q 581 126 525 126 q 617 133 602 126 q 645 156 632 140 q 670 194 658 171 q 696 249 682 217 l 754 249 z "},"":{"ha":775,"x_min":-53,"x_max":833,"o":"m 833 249 q 575 -8 746 -8 q 502 4 533 -8 q 451 37 471 16 q 421 84 431 57 q 411 139 411 111 q 418 214 411 168 q 441 328 426 260 l 503 603 q 440 588 466 603 q 394 541 414 573 q 359 458 374 509 q 328 336 343 408 q 294 189 310 254 q 254 81 278 125 q 194 15 230 37 q 100 -8 157 -8 q 30 5 59 -8 q -17 41 1 19 q -44 91 -35 63 q -53 149 -53 119 q -30 229 -53 197 q 33 260 -7 260 q 86 240 66 260 q 106 187 106 220 q 89 137 106 153 q 50 123 72 120 q 53 108 51 116 q 62 94 56 100 q 78 83 68 87 q 104 79 88 79 q 159 102 138 79 q 194 161 180 124 q 217 248 208 199 q 239 350 227 297 q 288 526 261 458 q 348 630 315 593 q 419 681 380 668 q 505 694 458 694 l 710 694 l 636 350 q 612 242 621 283 q 603 184 603 202 q 659 126 603 126 q 695 133 680 126 q 723 156 710 140 q 749 194 736 171 q 775 249 761 217 l 833 249 z "},"":{"ha":1074,"x_min":-53,"x_max":1132,"o":"m 1132 249 q 873 -8 1044 -8 q 801 4 831 -8 q 750 37 770 16 q 720 84 730 57 q 710 139 710 111 q 739 323 710 196 l 761 422 l 555 0 l 361 0 l 336 424 l 318 336 q 285 189 301 254 q 246 81 269 125 q 189 15 223 37 q 100 -8 154 -8 q 32 6 60 -8 q -16 44 3 21 q -44 95 -35 67 q -53 151 -53 123 q -30 228 -53 200 q 33 256 -7 256 q 86 236 66 256 q 106 183 106 216 q 89 133 106 149 q 50 119 72 116 q 52 102 50 111 q 60 85 54 93 q 77 72 66 77 q 104 66 87 66 q 165 91 142 66 q 202 154 188 115 q 227 245 217 194 q 248 350 237 296 l 321 694 l 515 694 l 545 161 l 803 694 l 1008 694 l 935 350 q 910 242 919 283 q 901 184 901 202 q 957 126 901 126 q 994 133 978 126 q 1022 156 1009 140 q 1047 194 1036 171 q 1074 249 1059 217 l 1132 249 z "},"":{"ha":704,"x_min":-53,"x_max":762,"o":"m 762 249 q 504 -8 675 -8 q 431 4 462 -8 q 380 37 400 16 q 350 84 360 57 q 340 139 340 111 q 350 217 340 168 q 372 334 359 267 l 218 334 l 147 0 l -53 0 l 94 694 l 294 694 l 235 416 l 390 416 l 453 694 l 639 694 l 566 350 q 541 242 550 283 q 532 184 532 202 q 587 126 532 126 q 624 133 608 126 q 653 156 640 140 q 678 194 666 171 q 704 249 690 217 l 762 249 z "},"":{"ha":610,"x_min":-20,"x_max":781,"o":"m 781 528 q 675 455 740 485 q 534 412 611 425 q 497 239 526 316 q 425 107 469 161 q 323 24 380 53 q 203 -5 267 -5 q 114 6 155 -5 q 43 44 73 18 q -3 112 14 71 q -20 214 -20 154 q -11 306 -20 254 q 16 413 -3 358 q 64 520 35 468 q 136 614 94 573 q 234 681 178 656 q 361 707 290 707 q 539 485 539 707 l 539 484 q 546 482 543 482 q 554 482 549 482 q 607 489 578 482 q 663 508 635 496 q 719 535 692 519 q 768 566 746 550 l 781 528 m 419 408 q 390 430 397 414 q 382 467 382 446 q 394 514 382 496 q 425 542 406 533 q 420 579 424 564 q 411 605 417 595 q 396 618 405 614 q 372 623 387 623 q 324 603 347 623 q 280 552 301 584 q 242 479 260 520 q 213 395 225 438 q 194 309 201 351 q 187 232 187 267 q 191 176 187 197 q 203 141 195 154 q 225 124 212 129 q 258 119 239 119 q 309 142 283 119 q 356 203 334 164 q 394 294 378 241 q 419 408 411 347 z "},"":{"ha":701,"x_min":-53,"x_max":760,"o":"m 760 249 q 697 113 730 163 q 629 35 663 62 q 562 0 595 8 q 501 -8 529 -8 q 424 5 455 -8 q 374 40 393 18 q 346 91 355 62 q 338 149 338 119 q 348 231 338 184 q 369 328 357 278 q 390 423 380 377 q 400 503 400 469 q 350 574 400 574 q 315 564 331 574 q 285 536 298 553 q 260 495 271 519 q 241 446 250 472 l 147 0 l -53 0 l 94 694 l 294 694 l 279 623 q 324 663 302 648 q 367 686 346 678 q 407 697 388 694 q 441 700 425 700 q 503 691 475 700 q 552 663 532 682 q 585 614 573 644 q 596 543 596 585 q 591 483 596 515 q 578 417 586 451 q 563 351 571 384 q 547 287 554 317 q 534 230 539 256 q 529 184 529 204 q 541 142 529 159 q 585 126 553 126 q 624 135 607 126 q 654 160 641 144 q 679 199 668 176 q 701 249 690 222 l 760 249 z "},"":{"ha":671,"x_min":-126,"x_max":615,"o":"m -126 -347 l 106 746 l 306 746 l 283 642 q 353 684 314 667 q 446 701 393 701 q 512 690 481 701 q 566 653 543 679 q 602 586 589 628 q 615 482 615 544 q 609 381 615 435 q 587 272 602 326 q 546 166 571 217 q 482 77 520 116 q 392 15 444 39 q 273 -8 340 -8 q 227 -4 247 -8 q 194 7 208 0 q 171 23 180 14 q 155 41 161 32 l 83 -297 l -126 -347 m 178 144 q 194 123 182 133 q 231 113 207 113 q 296 131 267 113 q 346 181 324 150 q 382 251 368 212 q 407 332 397 290 q 421 413 416 373 q 425 486 425 454 q 418 549 425 526 q 400 584 410 572 q 377 598 389 595 q 355 602 365 602 q 306 584 332 602 q 260 533 279 567 l 178 144 z "},"":{"ha":533,"x_min":-18,"x_max":581,"o":"m 581 249 q 514 154 551 200 q 429 72 476 108 q 325 14 382 36 q 199 -8 267 -8 q 109 4 149 -8 q 41 43 69 17 q -3 112 12 70 q -18 212 -18 153 q -10 305 -18 252 q 16 412 -2 357 q 63 520 34 467 q 133 614 92 573 q 230 681 175 656 q 355 707 285 707 q 431 695 401 707 q 479 666 461 684 q 503 625 496 648 q 510 579 510 602 q 504 535 510 553 q 488 503 498 516 q 465 484 478 490 q 436 478 451 478 q 387 494 412 478 q 404 576 404 539 q 395 618 404 602 q 366 633 385 633 q 322 614 344 633 q 280 562 300 594 q 243 487 260 529 q 214 399 227 445 q 194 309 201 354 q 187 225 187 264 q 194 167 187 190 q 213 132 200 144 q 244 114 225 119 q 288 109 262 109 q 362 119 329 109 q 425 149 396 130 q 480 194 454 168 q 533 249 507 220 l 581 249 z "},"":{"ha":1044,"x_min":-53,"x_max":1103,"o":"m 1103 249 q 1040 113 1074 163 q 972 35 1006 62 q 905 0 938 8 q 844 -8 872 -8 q 767 5 798 -8 q 717 40 736 18 q 689 91 698 62 q 681 149 681 119 q 691 231 681 184 q 712 328 701 278 q 733 423 724 377 q 743 503 743 469 q 693 574 743 574 q 658 564 674 574 q 628 536 642 553 q 604 495 614 519 q 585 446 593 472 l 490 0 l 290 0 l 392 479 q 396 514 396 496 q 394 537 396 526 q 387 556 392 548 q 374 570 382 565 q 354 575 366 575 q 316 565 334 575 q 285 537 299 555 q 260 496 271 519 q 241 446 250 472 l 147 0 l -53 0 l 94 694 l 294 694 l 279 623 q 324 663 302 648 q 368 687 347 678 q 410 698 390 695 q 449 701 431 701 q 500 695 476 701 q 542 674 524 688 q 573 637 560 660 q 591 582 586 614 q 643 644 616 621 q 694 680 669 667 q 743 696 720 692 q 785 700 766 700 q 846 691 818 700 q 895 663 874 682 q 927 614 916 644 q 939 543 939 585 q 933 483 939 515 q 921 417 928 451 q 905 351 914 384 q 889 287 897 317 q 877 230 882 256 q 872 184 872 204 q 884 142 872 159 q 928 126 896 126 q 967 135 950 126 q 998 160 984 144 q 1022 199 1011 176 q 1044 249 1034 222 l 1103 249 z "},"":{"ha":675,"x_min":-11,"x_max":733,"o":"m 467 -111 q 424 -232 452 -186 q 361 -304 395 -278 q 289 -338 326 -330 q 216 -347 251 -347 q 156 -339 184 -347 q 107 -314 128 -330 q 74 -272 86 -297 q 61 -212 61 -246 q 82 -136 61 -169 q 135 -78 102 -102 q 208 -35 168 -53 q 288 -5 248 -18 l 304 69 q 260 30 282 45 q 216 6 237 14 q 176 -5 195 -2 q 138 -8 156 -8 q 79 1 106 -8 q 32 31 52 11 q 1 83 12 52 q -11 158 -11 114 q -8 200 -11 177 q 0 249 -5 222 l 94 694 l 294 694 l 195 222 q 191 187 191 205 q 193 164 191 175 q 199 145 195 153 q 212 131 204 136 q 232 126 220 126 q 268 135 251 126 q 298 158 284 143 q 322 195 311 174 q 340 240 332 216 l 437 694 l 637 694 l 500 50 q 557 76 532 61 q 605 115 583 92 q 643 171 626 138 q 675 249 661 203 l 733 249 q 683 134 712 180 q 622 58 654 87 q 555 13 589 28 q 488 -11 520 -3 l 467 -111 m 273 -75 q 222 -97 246 -85 q 179 -123 197 -109 q 149 -155 160 -138 q 138 -193 138 -172 q 140 -209 138 -201 q 149 -224 143 -217 q 163 -235 155 -231 q 184 -239 172 -239 q 229 -209 206 -239 q 265 -115 252 -178 l 273 -75 z "},"":{"ha":1025,"x_min":-20,"x_max":970,"o":"m 532 144 q 585 113 543 113 q 643 128 616 113 q 691 171 670 144 q 729 235 713 198 q 757 313 746 271 q 773 398 768 354 q 779 486 779 443 q 710 602 779 602 q 614 533 653 602 l 532 144 m 437 568 q 376 615 429 615 q 278 546 327 615 q 237 471 254 510 q 208 390 220 433 q 188 280 192 325 q 187 205 184 235 q 197 161 190 176 q 212 139 205 145 q 243 127 223 128 q 287 135 264 125 q 330 167 309 145 q 364 225 351 189 l 437 568 m 241 -347 l 334 68 q 172 -8 262 -8 q 93 5 128 -8 q 33 45 58 18 q -6 115 7 73 q -20 215 -20 157 q 68 528 -20 372 q 117 597 89 565 q 180 652 145 629 q 254 688 214 675 q 338 701 294 701 q 452 625 452 701 l 521 945 l 713 972 l 637 642 q 712 687 672 672 q 800 701 753 701 q 970 482 970 701 q 961 358 970 419 q 935 243 953 298 q 889 142 917 189 q 823 63 861 96 q 734 11 785 30 q 623 -8 684 -8 q 510 41 538 -8 l 437 -297 l 241 -347 z "},"":{"ha":725,"x_min":0,"x_max":783,"o":"m 783 249 q 719 118 755 168 q 644 39 683 67 q 568 2 606 12 q 500 -8 530 -8 q 442 5 469 -8 q 394 48 416 19 q 357 123 373 78 q 330 233 340 169 l 139 0 l 39 0 l 319 317 l 297 472 q 286 530 292 507 q 274 565 280 552 q 260 583 268 578 q 244 587 253 587 q 199 567 224 587 q 150 504 175 546 q 100 398 124 462 q 58 249 77 335 l 0 249 q 27 354 12 300 q 63 457 43 407 q 111 552 84 508 q 170 630 137 597 q 241 682 202 663 q 328 701 281 701 q 397 685 369 701 q 442 645 425 669 q 467 592 459 621 q 478 536 475 563 l 490 431 q 578 544 549 496 q 611 631 608 592 q 598 629 604 629 q 587 628 593 628 q 557 634 569 628 q 537 651 545 640 q 526 675 529 661 q 522 705 522 689 q 530 736 522 724 q 551 758 538 749 q 581 770 564 766 q 616 774 598 774 q 650 763 635 774 q 675 733 665 751 q 689 693 684 715 q 694 647 694 670 q 683 583 694 614 q 647 515 671 551 q 586 439 623 480 q 501 345 550 397 l 514 248 q 525 190 518 214 q 543 153 532 167 q 568 132 553 138 q 600 126 582 126 q 640 135 621 126 q 675 161 659 144 q 704 200 691 177 q 725 249 717 222 l 783 249 z "},"":{"ha":743,"x_min":-11,"x_max":660,"o":"m 298 -261 q 237 -261 262 -261 q 197 -267 213 -261 q 173 -287 182 -273 q 158 -328 164 -300 l 97 -328 q 132 -199 114 -248 q 177 -122 151 -149 q 240 -85 203 -94 q 332 -75 277 -75 l 440 -75 q 493 -74 470 -75 q 535 -60 517 -72 q 567 -23 553 -49 q 590 49 580 2 q 556 18 571 29 q 527 1 541 7 q 498 -6 513 -5 q 467 -8 484 -8 q 384 25 418 -8 q 343 123 351 58 q 290 55 317 81 q 236 15 262 29 q 184 -4 210 1 q 138 -8 159 -8 q 79 1 106 -8 q 32 31 52 11 q 1 83 12 52 q -11 158 -11 114 q -8 200 -11 177 q 0 249 -5 222 l 94 694 l 294 694 l 195 222 q 191 183 191 201 q 199 143 191 159 q 232 126 208 126 q 269 135 252 126 q 300 161 286 144 q 325 200 314 177 q 343 249 335 222 l 437 694 l 637 694 l 538 222 q 533 200 534 211 q 532 178 532 189 q 546 137 532 149 q 589 126 559 126 l 660 126 q 635 -28 652 36 q 596 -135 618 -92 q 548 -203 574 -178 q 495 -241 522 -229 q 442 -258 468 -254 q 395 -261 416 -261 l 298 -261 z "},"":{"ha":701,"x_min":35,"x_max":760,"o":"m 760 249 q 717 151 740 193 q 669 81 694 110 q 618 35 644 53 q 568 8 593 18 q 522 -5 544 -1 q 481 -8 499 -8 q 422 1 450 -8 q 375 31 395 11 q 343 83 355 52 q 332 158 332 114 q 335 200 332 177 q 343 249 338 222 l 350 283 q 306 244 328 259 q 262 220 283 229 q 221 209 241 212 q 183 205 201 205 q 125 215 152 205 q 78 245 98 224 q 46 297 58 265 q 35 372 35 328 q 46 463 35 409 l 94 694 l 294 694 l 240 436 q 236 397 236 416 q 245 357 236 374 q 278 340 254 340 q 316 350 298 340 q 348 375 334 359 q 373 414 362 391 q 389 463 383 436 l 437 694 l 637 694 l 538 222 q 533 200 534 211 q 532 178 532 189 q 546 137 532 149 q 589 126 559 126 q 626 135 609 126 q 658 161 644 144 q 683 200 672 177 q 701 249 694 222 l 760 249 z "},"":{"ha":1044,"x_min":-11,"x_max":1103,"o":"m 1103 249 q 1037 113 1074 164 q 961 35 1000 62 q 887 0 923 8 q 823 -8 851 -8 q 729 25 764 -8 q 686 123 694 58 q 633 55 660 81 q 579 15 606 29 q 528 -4 553 1 q 481 -8 503 -8 q 386 25 421 -8 q 343 123 351 58 q 290 55 317 81 q 236 15 262 29 q 184 -4 210 1 q 138 -8 159 -8 q 79 1 106 -8 q 32 31 52 11 q 1 83 12 52 q -11 158 -11 114 q -8 200 -11 177 q 0 249 -5 222 l 94 694 l 294 694 l 195 222 q 191 183 191 201 q 199 143 191 159 q 232 126 208 126 q 269 135 252 126 q 300 161 286 144 q 325 200 314 177 q 343 249 335 222 l 437 694 l 637 694 l 538 222 q 533 183 533 203 q 542 143 533 159 q 575 126 551 126 q 612 135 595 126 q 643 161 629 144 q 668 200 657 177 q 686 249 678 222 l 781 694 l 981 694 l 880 222 q 876 200 877 211 q 875 178 875 189 q 889 137 875 149 q 932 126 903 126 q 969 135 952 126 q 1001 161 987 144 q 1025 200 1015 177 q 1044 249 1036 222 l 1103 249 z "},"":{"ha":1086,"x_min":-11,"x_max":1003,"o":"m 642 -261 q 581 -261 605 -261 q 541 -267 556 -261 q 516 -287 525 -273 q 501 -328 507 -300 l 440 -328 q 475 -199 457 -248 q 520 -122 494 -149 q 584 -85 547 -94 q 675 -75 621 -75 l 783 -75 q 837 -74 813 -75 q 878 -60 860 -72 q 910 -23 897 -49 q 933 49 923 2 q 899 18 913 29 q 869 1 884 7 q 841 -6 855 -5 q 810 -8 827 -8 q 727 25 761 -8 q 686 123 694 58 q 633 55 660 81 q 579 15 606 29 q 528 -4 553 1 q 481 -8 503 -8 q 386 25 421 -8 q 343 123 351 58 q 290 55 317 81 q 236 15 262 29 q 184 -4 210 1 q 138 -8 159 -8 q 79 1 106 -8 q 32 31 52 11 q 1 83 12 52 q -11 158 -11 114 q -8 200 -11 177 q 0 249 -5 222 l 94 694 l 294 694 l 195 222 q 191 183 191 201 q 199 143 191 159 q 232 126 208 126 q 269 135 252 126 q 300 161 286 144 q 325 200 314 177 q 343 249 335 222 l 437 694 l 637 694 l 538 222 q 533 183 533 203 q 542 143 533 159 q 575 126 551 126 q 612 135 595 126 q 643 161 629 144 q 668 200 657 177 q 686 249 678 222 l 781 694 l 981 694 l 880 222 q 876 200 877 211 q 875 178 875 189 q 889 137 875 149 q 932 126 903 126 l 1003 126 q 978 -28 995 36 q 939 -135 961 -92 q 891 -203 917 -178 q 838 -241 865 -229 q 785 -258 811 -254 q 737 -261 759 -261 l 642 -261 z "},"":{"ha":623,"x_min":-24,"x_max":567,"o":"m 346 628 q 323 589 335 610 q 300 545 311 568 q 278 500 288 523 q 260 454 268 477 q 329 486 292 475 q 404 497 366 497 q 464 487 435 497 q 516 456 494 477 q 553 402 539 435 q 567 323 567 369 q 537 186 567 248 q 457 82 507 125 q 341 15 407 39 q 201 -8 275 -8 q 119 3 157 -8 q 53 36 81 14 q 8 91 24 58 q -8 171 -8 125 q 3 249 -8 210 q 32 327 14 288 q 76 405 51 366 q 129 480 100 444 q 186 552 157 517 q 244 619 216 587 l 176 619 q 146 618 160 619 q 122 616 132 618 q 106 609 112 614 q 100 597 100 605 q 102 593 100 594 q 107 591 104 593 q 113 584 111 589 q 115 567 115 579 q 109 533 115 547 q 92 511 102 519 q 68 497 81 502 q 40 493 54 493 q 17 497 28 493 q -4 509 5 501 q -18 528 -13 516 q -24 554 -24 539 q -13 606 -24 581 q 19 651 -1 631 q 70 683 40 671 q 138 694 100 694 l 387 694 l 346 628 m 235 371 q 212 307 220 334 q 198 257 203 279 q 191 216 193 235 q 189 180 189 198 q 244 110 189 110 q 300 131 275 110 q 345 182 326 151 q 374 250 363 214 q 385 318 385 287 q 378 357 385 342 q 362 381 372 372 q 341 392 353 389 q 317 395 329 395 q 272 389 293 395 q 235 371 252 382 z "},"":{"ha":909,"x_min":-8,"x_max":968,"o":"m 968 249 q 711 -8 880 -8 q 638 4 669 -8 q 587 38 607 17 q 557 86 566 58 q 547 143 547 113 q 548 156 547 148 q 551 180 549 164 q 558 223 553 196 q 571 291 563 250 q 593 393 580 333 q 624 534 606 452 q 547 488 586 511 q 468 444 509 466 q 501 306 501 393 q 493 242 501 277 q 469 173 486 208 q 427 105 452 138 q 368 47 402 73 q 289 7 334 22 q 191 -8 245 -8 q 43 39 95 -8 q -8 170 -8 85 q -6 209 -8 189 q 1 249 -4 229 l 93 694 l 285 694 l 182 205 q 178 186 178 197 q 178 167 178 174 q 240 110 178 110 q 295 128 269 110 q 343 177 322 146 q 376 250 363 208 q 389 340 389 292 q 384 371 389 358 q 368 393 378 384 q 350 384 361 388 q 328 380 339 380 q 307 384 317 380 q 287 394 296 387 q 272 413 278 401 q 267 440 267 424 q 273 468 267 456 q 291 488 280 480 q 316 500 302 496 q 345 504 330 504 q 401 496 376 504 q 496 543 453 519 q 582 592 540 567 q 666 643 623 617 q 758 694 708 668 l 844 694 l 771 350 q 746 242 755 283 q 737 184 737 202 q 793 126 737 126 q 829 133 814 126 q 858 156 845 140 q 883 194 871 171 q 909 249 895 217 l 968 249 z "},"":{"ha":623,"x_min":-8,"x_max":567,"o":"m 96 694 l 296 694 l 249 469 q 293 485 273 479 q 328 493 312 490 q 359 496 345 496 q 387 497 373 497 q 462 485 429 497 q 519 449 496 472 q 554 391 542 425 q 567 313 567 356 q 558 248 567 283 q 531 177 549 213 q 483 109 512 142 q 413 49 454 75 q 319 7 372 23 q 200 -8 267 -8 q 113 4 152 -8 q 48 39 75 16 q 6 95 21 62 q -8 170 -8 127 q -6 209 -8 189 q 1 249 -4 229 l 96 694 m 193 205 q 190 186 190 197 q 189 167 189 174 q 249 110 189 110 q 300 129 276 110 q 343 176 325 147 q 373 239 362 205 q 385 304 385 273 q 366 370 385 345 q 310 395 347 395 q 291 392 302 395 q 268 387 279 390 q 245 379 256 383 q 228 370 234 374 l 193 205 z "},"":{"ha":595,"x_min":-52,"x_max":539,"o":"m 146 334 l 164 416 l 330 416 q 333 443 332 430 q 334 469 334 456 q 327 528 334 505 q 306 565 320 551 q 270 584 292 578 q 220 590 249 590 q 148 567 178 590 q 93 500 118 545 l 22 500 q 66 584 41 546 q 124 649 91 622 q 203 692 158 677 q 310 707 249 707 q 405 693 362 707 q 477 652 447 680 q 523 581 507 624 q 539 479 539 538 q 530 390 539 441 q 500 285 520 339 q 447 178 479 231 q 371 84 415 125 q 268 17 326 43 q 138 -8 210 -8 q -5 32 41 -8 q -52 139 -52 71 q -45 190 -52 168 q -27 226 -39 212 q -2 248 -16 241 q 29 256 13 256 q 54 252 41 256 q 81 236 67 249 q 67 187 71 211 q 62 142 62 163 q 139 65 62 65 q 196 87 169 65 q 247 147 224 110 q 288 233 270 184 q 318 334 307 281 l 146 334 z "},"":{"ha":937,"x_min":-53,"x_max":1108,"o":"m 1108 528 q 1003 455 1067 485 q 863 412 939 425 q 825 239 854 316 q 752 107 796 161 q 651 24 708 53 q 530 -5 594 -5 q 441 6 482 -5 q 371 44 401 18 q 325 112 342 71 q 309 214 309 154 q 321 334 309 267 l 216 334 l 147 0 l -53 0 l 94 694 l 294 694 l 236 416 l 345 416 q 393 523 363 471 q 465 616 422 575 q 563 682 507 656 q 689 707 618 707 q 867 485 867 707 l 867 484 q 873 482 870 482 q 882 482 876 482 q 934 489 906 482 q 991 508 962 496 q 1046 535 1019 519 q 1096 566 1074 550 l 1108 528 m 747 408 q 718 430 726 414 q 710 467 710 446 q 722 514 710 496 q 753 542 733 533 q 748 579 751 564 q 739 605 745 595 q 723 618 732 614 q 700 623 714 623 q 652 603 675 623 q 608 552 629 584 q 571 479 588 520 q 541 395 553 438 q 522 309 529 351 q 515 232 515 267 q 519 176 515 197 q 531 141 523 154 q 553 124 539 129 q 586 119 566 119 q 637 142 612 119 q 684 203 662 164 q 723 294 706 241 q 747 408 739 347 z "},"":{"ha":732,"x_min":-53,"x_max":790,"o":"m 790 249 q 532 -8 703 -8 q 459 4 490 -8 q 408 37 428 16 q 378 84 388 57 q 368 139 368 111 q 369 158 368 147 q 372 186 370 169 q 380 230 375 203 q 393 294 385 256 q 315 286 355 286 q 281 160 298 215 q 241 68 264 106 q 185 11 218 31 q 103 -8 152 -8 q 35 5 64 -8 q -14 39 5 18 q -43 89 -33 60 q -53 149 -53 117 q -30 229 -53 197 q 33 260 -7 260 q 86 240 66 260 q 106 187 106 220 q 89 137 106 153 q 50 123 72 120 q 54 108 51 116 q 62 94 56 100 q 79 83 68 87 q 104 79 89 79 q 146 94 129 79 q 177 137 163 109 q 201 204 190 165 q 222 293 212 243 q 169 312 193 299 q 127 345 144 325 q 100 391 110 364 q 90 454 90 418 q 109 546 90 503 q 169 623 127 590 q 282 675 212 656 q 456 694 352 694 l 667 694 l 593 350 q 568 242 577 283 q 559 184 559 202 q 615 126 559 126 q 652 133 636 126 q 681 156 667 140 q 706 194 694 171 q 732 249 718 217 l 790 249 m 464 619 l 431 619 q 358 607 389 619 q 307 574 328 595 q 276 523 286 553 q 265 458 265 494 q 273 407 265 428 q 294 374 281 387 q 326 356 308 361 q 366 351 345 351 q 388 351 378 351 q 406 354 397 351 l 464 619 z "},"":{"ha":1383,"x_min":10,"x_max":1356,"o":"m 1141 476 q 1086 484 1112 476 q 1043 507 1061 491 q 1015 550 1025 524 q 1004 612 1004 576 q 1009 670 1004 637 q 1026 736 1015 702 q 1056 802 1038 770 q 1100 860 1074 835 q 1160 901 1126 886 q 1239 917 1195 917 q 1356 779 1356 917 q 1338 655 1356 711 q 1292 559 1321 599 q 1223 498 1262 519 q 1141 476 1185 476 m 937 309 l 962 418 l 1324 418 l 1300 309 l 937 309 m 1175 553 q 1213 572 1194 553 q 1246 625 1232 592 q 1270 702 1261 659 q 1279 794 1279 746 q 1272 846 1279 829 q 1246 864 1265 864 q 1216 852 1230 864 q 1189 820 1202 840 q 1166 775 1177 800 q 1148 723 1156 749 q 1136 670 1140 696 q 1132 624 1132 644 q 1142 569 1132 586 q 1175 553 1152 553 m 1000 1039 l 773 0 l 581 0 l 420 689 l 262 0 l 130 0 l 339 951 q 195 846 243 918 q 146 673 146 775 q 156 592 146 629 q 184 532 166 555 q 53 568 95 532 q 10 682 10 604 q 25 778 10 732 q 68 865 41 824 q 134 939 96 905 q 220 997 173 972 q 320 1034 267 1021 q 432 1047 374 1047 q 489 1043 465 1047 q 542 1028 513 1038 l 709 285 l 865 1039 l 1000 1039 z "},"":{"ha":533,"x_min":-18,"x_max":585,"o":"m 581 249 q 514 154 551 200 q 429 72 476 108 q 325 14 382 36 q 199 -8 267 -8 q 109 4 149 -8 q 41 43 69 17 q -3 112 12 70 q -18 212 -18 153 q -10 304 -18 252 q 16 412 -2 357 q 62 519 33 467 q 133 614 92 572 q 230 681 174 656 q 357 707 286 707 q 433 695 404 707 q 480 666 463 684 q 504 624 497 648 q 510 574 510 600 q 484 461 510 513 q 413 371 457 410 q 311 309 368 332 q 191 281 253 285 q 188 251 189 265 q 187 225 187 237 q 194 167 187 190 q 213 132 200 144 q 244 114 225 119 q 288 109 262 109 q 362 119 329 109 q 425 149 396 130 q 480 194 454 168 q 533 249 507 220 l 581 249 m 201 347 q 277 370 241 350 q 342 421 314 389 q 386 493 370 452 q 403 576 403 533 q 395 618 403 602 q 368 633 388 633 q 316 608 342 633 q 269 542 291 583 q 229 450 246 501 q 201 347 212 399 m 585 880 q 578 847 585 862 q 559 820 571 831 q 532 803 548 809 q 500 796 517 796 q 466 803 481 796 q 439 820 451 809 q 421 847 428 831 q 415 880 415 862 q 421 913 415 897 q 439 940 428 928 q 466 958 451 951 q 500 965 481 965 q 532 958 517 965 q 559 940 548 951 q 578 913 571 928 q 585 880 585 897 m 335 880 q 328 847 335 862 q 310 820 321 831 q 282 803 298 809 q 250 796 267 796 q 216 803 232 796 q 190 820 201 809 q 172 847 178 831 q 165 880 165 862 q 172 913 165 897 q 190 940 178 928 q 216 958 201 951 q 250 965 232 965 q 282 958 267 965 q 310 940 298 951 q 328 913 321 928 q 335 880 335 897 z "},"":{"ha":682,"x_min":-53,"x_max":741,"o":"m 458 -111 q 416 -232 441 -186 q 359 -304 390 -278 q 293 -338 328 -330 q 224 -347 258 -347 q 164 -339 192 -347 q 114 -314 136 -330 q 80 -272 93 -297 q 68 -212 68 -246 q 89 -132 68 -167 q 143 -72 110 -98 q 216 -30 176 -47 q 296 -1 257 -12 q 329 151 315 87 q 352 257 343 214 q 367 327 361 300 q 376 370 373 354 q 379 393 378 385 q 380 407 380 401 q 330 478 380 478 q 295 468 312 478 q 263 440 277 458 q 237 400 248 423 q 221 350 227 376 l 147 0 l -53 0 l 94 694 l 20 694 l 35 770 l 111 770 l 149 945 l 354 972 l 311 770 l 485 770 l 468 694 l 294 694 l 258 526 q 303 567 281 551 q 347 590 326 582 q 387 602 368 599 q 422 604 406 604 q 484 595 456 604 q 533 567 512 587 q 565 518 553 548 q 576 447 576 488 q 575 427 576 437 q 571 398 574 416 q 563 354 568 380 q 548 286 557 327 q 526 187 539 245 q 496 50 513 130 q 556 76 528 61 q 607 115 584 92 q 649 171 630 138 q 682 249 667 203 l 741 249 q 689 133 720 180 q 624 58 659 87 q 552 13 589 28 q 481 -11 515 -3 l 458 -111 m 272 -115 q 277 -91 275 -102 q 282 -71 279 -80 q 231 -93 256 -81 q 186 -119 205 -104 q 156 -153 168 -134 q 144 -193 144 -171 q 148 -209 144 -201 q 156 -224 151 -217 q 171 -235 162 -231 q 192 -239 180 -239 q 236 -209 214 -239 q 272 -115 258 -178 z "},"":{"ha":521,"x_min":-29,"x_max":568,"o":"m 568 249 q 496 149 535 196 q 410 67 457 102 q 308 12 363 33 q 186 -8 252 -8 q 97 1 136 -8 q 29 29 57 10 q -14 78 1 48 q -29 149 -29 107 q -17 217 -29 187 q 17 271 -4 248 q 64 314 37 295 q 118 351 90 334 q 172 385 146 368 q 219 421 199 402 q 253 464 240 441 q 265 515 265 486 q 250 563 265 546 q 201 581 234 581 q 120 546 157 581 q 52 436 83 512 l -16 436 q 32 545 5 496 q 95 631 59 595 q 179 687 132 667 q 288 707 226 707 q 358 698 324 707 q 418 670 392 689 q 459 621 444 651 q 475 550 475 591 q 453 453 475 493 q 399 382 431 412 q 328 330 366 353 q 258 285 290 307 q 203 239 225 263 q 182 182 182 214 q 209 125 182 141 q 281 109 236 109 q 340 116 311 109 q 398 139 369 123 q 457 183 427 156 q 521 249 488 210 l 568 249 m 271 779 l 397 1042 l 543 1042 l 375 779 l 271 779 z "},"":{"ha":533,"x_min":-18,"x_max":581,"o":"m 581 249 q 514 154 551 200 q 429 72 476 108 q 325 14 382 36 q 199 -8 267 -8 q 109 4 149 -8 q 41 43 69 17 q -3 112 12 70 q -18 212 -18 153 q -10 305 -18 252 q 16 412 -2 357 q 63 520 34 467 q 133 614 92 573 q 230 681 175 656 q 355 707 285 707 q 431 695 401 707 q 479 666 461 684 q 503 625 496 648 q 510 579 510 602 q 504 535 510 553 q 488 503 498 516 q 465 484 478 490 q 436 478 451 478 q 387 494 412 478 q 404 576 404 539 q 395 618 404 602 q 366 633 385 633 q 324 615 345 633 q 284 568 303 597 q 249 498 265 538 q 220 416 232 459 l 385 416 l 367 334 l 199 334 q 190 276 193 304 q 187 225 187 249 q 194 167 187 190 q 213 132 200 144 q 244 114 225 119 q 288 109 262 109 q 362 119 329 109 q 425 149 396 130 q 480 194 454 168 q 533 249 507 220 l 581 249 z "},"":{"ha":530,"x_min":-45,"x_max":589,"o":"m 589 249 q 480 145 534 186 q 376 75 425 104 q 328 36 355 52 q 272 11 301 20 q 214 -4 243 1 q 158 -8 184 -8 q 67 8 106 -8 q 4 49 29 24 q -33 106 -21 75 q -45 170 -45 138 q -38 215 -45 194 q -22 252 -32 235 q 2 280 -12 268 q 29 298 15 292 q 127 505 87 403 q 200 710 168 607 l 406 737 q 413 581 410 647 q 420 466 417 515 q 427 384 424 418 q 432 324 429 350 q 435 276 434 298 q 436 232 436 255 q 435 203 436 216 q 431 179 434 191 q 486 214 461 197 q 530 249 511 231 l 589 249 m 29 199 q 48 126 29 150 q 114 102 68 102 q 159 108 137 102 q 197 130 180 115 q 224 170 214 145 q 235 231 235 194 q 234 265 235 248 q 231 300 233 281 q 228 342 230 319 q 222 395 225 365 q 216 466 219 426 q 208 559 212 506 q 159 428 187 492 q 96 297 130 364 q 118 278 109 290 q 127 249 127 267 q 123 224 127 236 q 111 202 119 212 q 92 186 103 192 q 66 180 81 180 q 45 184 55 180 q 29 199 35 187 z "},"":{"ha":371,"x_min":-11,"x_max":429,"o":"m 343 879 q 334 836 343 856 q 310 801 326 816 q 275 778 295 787 q 232 770 255 770 q 189 778 209 770 q 154 801 169 787 q 131 836 139 816 q 122 879 122 856 q 131 922 122 902 q 154 957 139 942 q 189 981 169 972 q 232 990 209 990 q 275 981 255 990 q 310 957 295 972 q 334 922 326 942 q 343 879 343 902 m 429 249 q 386 151 410 193 q 335 81 361 110 q 282 35 309 53 q 229 8 254 18 q 179 -5 203 -1 q 138 -8 156 -8 q 79 1 106 -8 q 32 31 52 11 q 1 83 12 52 q -11 158 -11 114 q -8 200 -11 177 q 0 249 -5 222 l 94 694 l 294 694 l 195 222 q 190 200 191 211 q 189 178 189 189 q 203 137 189 149 q 245 126 216 126 q 285 135 266 126 q 321 161 304 144 q 350 200 337 177 q 371 249 363 222 l 429 249 z "},"":{"ha":371,"x_min":-11,"x_max":441,"o":"m 429 249 q 386 151 410 193 q 335 81 361 110 q 282 35 309 53 q 229 8 254 18 q 179 -5 203 -1 q 138 -8 156 -8 q 79 1 106 -8 q 32 31 52 11 q 1 83 12 52 q -11 158 -11 114 q -8 200 -11 177 q 0 249 -5 222 l 94 694 l 294 694 l 195 222 q 190 200 191 211 q 189 178 189 189 q 203 137 189 149 q 245 126 216 126 q 285 135 266 126 q 321 161 304 144 q 350 200 337 177 q 371 249 363 222 l 429 249 m 192 880 q 185 847 192 862 q 166 820 178 831 q 139 803 155 809 q 107 796 124 796 q 73 803 89 796 q 46 820 58 809 q 29 847 35 831 q 22 880 22 862 q 29 913 22 897 q 46 940 35 928 q 73 958 58 951 q 107 965 89 965 q 139 958 124 965 q 166 940 155 951 q 185 913 178 928 q 192 880 192 897 m 441 880 q 435 847 441 862 q 416 820 428 831 q 389 803 405 809 q 357 796 374 796 q 323 803 338 796 q 296 820 308 809 q 278 847 285 831 q 272 880 272 862 q 278 913 272 897 q 296 940 285 928 q 323 958 308 951 q 357 965 338 965 q 389 958 374 965 q 416 940 405 951 q 435 913 428 928 q 441 880 441 897 z "},"":{"ha":334,"x_min":-281,"x_max":392,"o":"m 125 -111 q 82 -232 110 -186 q 19 -304 54 -278 q -53 -338 -15 -330 q -125 -347 -90 -347 q -185 -339 -157 -347 q -234 -314 -213 -330 q -268 -272 -256 -297 q -281 -212 -281 -246 q -260 -136 -281 -169 q -207 -78 -239 -103 q -133 -35 -174 -53 q -53 -5 -92 -18 l 96 694 l 296 694 l 158 50 q 216 76 190 61 q 263 115 241 92 q 301 171 284 138 q 334 249 319 203 l 392 249 q 342 134 371 180 q 280 58 313 87 q 213 13 248 28 q 146 -11 178 -3 l 125 -111 m 332 880 q 323 837 332 857 q 299 803 314 817 q 264 780 284 788 q 221 771 244 771 q 178 780 198 771 q 143 803 158 788 q 120 837 128 817 q 111 880 111 857 q 120 924 111 903 q 143 959 128 944 q 178 983 158 974 q 221 991 198 991 q 264 983 244 991 q 299 959 284 974 q 323 924 314 944 q 332 880 332 903 m -68 -75 q -120 -97 -95 -85 q -163 -123 -144 -109 q -193 -155 -182 -138 q -204 -193 -204 -172 q -201 -209 -204 -201 q -193 -224 -199 -217 q -178 -235 -186 -231 q -157 -239 -169 -239 q -113 -209 -135 -239 q -77 -115 -90 -178 l -68 -75 z "},"":{"ha":1035,"x_min":-53,"x_max":979,"o":"m 503 603 q 440 588 466 603 q 394 541 414 573 q 359 458 374 509 q 328 336 343 408 q 294 189 310 254 q 254 81 278 125 q 194 15 230 37 q 100 -8 157 -8 q 30 5 59 -8 q -17 41 1 19 q -44 91 -35 63 q -53 149 -53 119 q -30 229 -53 197 q 33 260 -7 260 q 86 240 66 260 q 106 187 106 220 q 89 137 106 153 q 50 123 72 120 q 53 108 51 116 q 62 94 56 100 q 78 83 68 87 q 104 79 88 79 q 159 102 138 79 q 194 161 180 124 q 217 248 208 199 q 239 350 227 297 q 288 526 261 458 q 348 630 315 593 q 419 681 380 668 q 505 694 458 694 l 710 694 l 661 469 q 705 485 686 479 q 741 493 724 490 q 772 496 758 496 q 800 497 786 497 q 931 449 884 497 q 979 313 979 401 q 971 248 979 283 q 944 177 962 213 q 897 109 926 142 q 829 49 869 75 q 736 7 789 23 q 619 -8 684 -8 q 534 4 572 -8 q 470 39 496 16 q 429 95 444 62 q 415 170 415 127 q 417 209 415 189 q 425 249 420 229 l 503 603 m 606 205 q 602 186 602 197 q 602 167 602 174 q 661 110 602 110 q 713 129 688 110 q 756 176 737 147 q 786 239 775 205 q 798 304 798 273 q 779 370 798 345 q 722 395 760 395 q 704 392 715 395 q 680 387 692 390 q 657 379 668 383 q 640 370 646 374 l 606 205 z "},"":{"ha":964,"x_min":-53,"x_max":908,"o":"m -53 0 l 94 694 l 294 694 l 235 416 l 392 416 l 453 694 l 639 694 l 590 469 q 634 485 614 479 q 670 493 654 490 q 701 496 686 496 q 729 497 715 497 q 861 449 813 497 q 908 313 908 401 q 900 248 908 283 q 873 177 891 213 q 826 109 854 142 q 758 49 798 75 q 666 7 718 23 q 549 -8 614 -8 q 464 4 501 -8 q 399 39 426 16 q 359 95 373 62 q 345 170 345 127 q 347 209 345 189 q 354 249 349 229 l 372 334 l 218 334 l 147 0 l -53 0 m 534 205 q 531 186 531 197 q 530 167 530 174 q 590 110 530 110 q 642 129 617 110 q 685 176 667 147 q 715 239 704 205 q 726 304 726 273 q 708 370 726 345 q 652 395 689 395 q 633 392 644 395 q 609 387 621 390 q 587 379 597 383 q 570 370 576 374 l 534 205 z "},"":{"ha":701,"x_min":-53,"x_max":760,"o":"m 760 249 q 697 113 730 163 q 629 35 663 62 q 562 0 595 8 q 501 -8 529 -8 q 424 5 455 -8 q 374 40 393 18 q 346 91 355 62 q 338 149 338 119 q 345 215 338 179 q 359 286 351 250 q 374 352 367 321 q 380 407 380 384 q 330 478 380 478 q 295 468 312 478 q 263 440 277 458 q 237 400 248 423 q 221 350 227 376 l 147 0 l -53 0 l 94 694 l 20 694 l 35 770 l 111 770 l 149 945 l 354 972 l 311 770 l 485 770 l 468 694 l 294 694 l 258 526 q 303 567 281 551 q 347 590 326 582 q 387 602 368 599 q 422 604 406 604 q 484 595 456 604 q 533 567 512 587 q 565 518 553 548 q 576 447 576 488 q 569 380 576 415 q 553 311 562 345 q 536 243 544 276 q 529 184 529 211 q 541 142 529 159 q 585 126 553 126 q 624 135 607 126 q 654 160 641 144 q 679 199 668 176 q 701 249 690 222 l 760 249 z "},"":{"ha":696,"x_min":-53,"x_max":754,"o":"m 754 249 q 501 -8 667 -8 q 375 34 416 -8 q 334 146 334 75 q 336 181 334 163 q 341 217 338 199 q 347 250 345 235 q 350 278 350 266 q 297 345 350 345 q 278 341 287 345 q 259 332 269 338 q 237 316 249 326 q 208 293 224 306 l 147 0 l -53 0 l 96 694 l 296 694 l 236 419 q 323 509 286 469 q 390 581 360 549 q 443 637 419 613 q 489 676 467 661 q 533 699 511 692 q 583 707 556 707 q 655 680 632 707 q 679 615 679 654 q 656 549 679 573 q 591 525 633 525 q 556 531 571 525 q 532 548 541 538 q 519 571 523 559 q 515 596 515 584 q 471 564 492 582 q 432 525 451 545 q 393 481 412 504 q 351 437 373 459 q 382 442 367 441 q 410 443 397 443 q 472 434 447 443 q 513 410 498 426 q 535 369 529 393 q 542 314 542 345 q 539 281 542 298 q 533 248 536 264 q 528 214 530 231 q 525 178 525 196 q 581 126 525 126 q 617 133 602 126 q 645 156 632 140 q 670 194 658 171 q 696 249 682 217 l 754 249 m 322 779 l 449 1042 l 595 1042 l 427 779 l 322 779 z "},"":{"ha":753,"x_min":11,"x_max":729,"o":"m 542 184 q 522 77 542 125 q 463 -5 501 28 q 368 -57 424 -39 q 240 -75 311 -75 q 195 -73 220 -75 q 144 -64 170 -71 q 95 -45 119 -58 q 52 -13 71 -33 q 22 37 33 7 q 11 107 11 66 q 21 177 11 145 q 49 231 31 208 q 91 266 66 253 q 144 278 116 278 q 182 272 165 278 q 211 255 198 265 q 235 233 224 245 q 254 208 245 220 q 201 199 223 205 q 166 179 180 192 q 148 148 153 167 q 142 103 142 130 q 168 22 142 49 q 256 -5 193 -5 q 337 26 307 -5 q 367 129 367 58 q 356 205 367 172 q 328 266 345 238 q 288 315 310 293 q 242 358 265 338 q 196 399 218 379 q 156 443 174 420 q 127 492 138 466 q 117 553 117 519 q 127 615 117 586 q 158 669 138 645 q 203 712 177 694 q 261 743 230 731 q 256 773 258 759 q 254 802 254 788 q 280 909 254 863 q 349 984 307 954 q 443 1027 391 1013 q 549 1042 496 1042 q 580 1040 562 1042 q 618 1035 598 1039 q 658 1022 638 1030 q 694 998 678 1013 q 719 962 709 983 q 729 909 729 940 q 723 864 729 885 q 705 829 716 844 q 676 806 693 814 q 637 798 659 798 q 612 802 625 798 q 586 819 599 806 q 623 860 610 833 q 636 916 636 887 q 632 943 636 930 q 617 967 627 957 q 593 984 608 978 q 558 990 578 990 q 506 978 530 990 q 465 945 482 966 q 438 898 448 924 q 428 842 428 871 q 448 766 428 798 q 499 707 469 734 q 565 652 530 679 q 631 593 601 626 q 682 519 662 561 q 703 421 703 478 q 692 343 703 381 q 661 273 682 304 q 611 219 641 241 q 542 189 581 197 l 542 184 m 533 254 q 559 342 559 287 q 545 413 559 382 q 508 471 531 445 q 456 521 485 498 q 397 568 427 545 q 339 617 367 592 q 290 675 311 643 q 271 657 279 667 q 264 627 264 646 q 281 572 264 597 q 324 522 298 547 q 382 470 350 497 q 444 412 414 444 q 498 341 473 380 q 533 254 522 303 z "},"":{"ha":675,"x_min":-11,"x_max":733,"o":"m 467 -111 q 424 -232 452 -186 q 361 -304 395 -278 q 289 -338 326 -330 q 216 -347 251 -347 q 156 -339 184 -347 q 107 -314 128 -330 q 74 -272 86 -297 q 61 -212 61 -246 q 82 -136 61 -169 q 135 -78 102 -102 q 208 -35 168 -53 q 288 -5 248 -18 l 304 69 q 260 30 282 45 q 216 6 237 14 q 176 -5 195 -2 q 138 -8 156 -8 q 79 1 106 -8 q 32 31 52 11 q 1 83 12 52 q -11 158 -11 114 q -8 200 -11 177 q 0 249 -5 222 l 94 694 l 294 694 l 195 222 q 191 187 191 205 q 193 164 191 175 q 199 145 195 153 q 212 131 204 136 q 232 126 220 126 q 268 135 251 126 q 300 158 286 143 q 324 194 314 174 q 340 240 334 215 l 437 694 l 637 694 l 500 50 q 557 76 532 61 q 605 115 583 92 q 643 171 626 138 q 675 249 661 203 l 733 249 q 683 134 712 180 q 622 58 654 87 q 555 13 589 28 q 488 -11 520 -3 l 467 -111 m 654 999 q 600 884 631 930 q 533 812 570 839 q 453 773 496 785 q 361 762 410 762 q 227 794 274 762 q 180 882 180 827 q 205 955 180 927 q 273 983 231 983 q 337 964 314 983 q 359 908 359 945 q 359 896 359 904 q 355 879 358 888 q 345 860 351 869 q 326 842 338 850 q 351 837 337 838 q 382 836 364 836 q 441 844 411 836 q 500 870 471 851 q 553 920 528 888 q 596 999 578 951 l 654 999 m 273 -75 q 222 -97 246 -85 q 179 -123 197 -109 q 149 -155 160 -138 q 138 -193 138 -172 q 140 -209 138 -201 q 149 -224 143 -217 q 163 -235 155 -231 q 184 -239 172 -239 q 229 -209 206 -239 q 265 -115 252 -178 l 273 -75 z "},"":{"ha":701,"x_min":-11,"x_max":760,"o":"m 760 249 q 717 151 740 193 q 669 81 694 110 q 618 35 644 53 q 568 8 593 18 q 522 -5 544 -1 q 481 -8 499 -8 q 386 25 421 -8 q 343 123 351 58 q 290 55 317 81 q 236 15 262 29 q 184 -4 210 1 q 138 -8 159 -8 q 79 1 106 -8 q 32 31 52 11 q 1 83 12 52 q -11 158 -11 114 q -8 200 -11 177 q 0 249 -5 222 l 94 694 l 294 694 l 195 222 q 191 183 191 201 q 199 143 191 159 q 232 126 208 126 q 269 135 252 126 q 300 161 286 144 q 325 200 314 177 q 343 249 335 222 l 437 694 l 637 694 l 538 222 q 533 200 534 211 q 532 178 532 189 q 546 137 532 149 q 589 126 559 126 q 626 135 609 126 q 658 161 644 144 q 683 200 672 177 q 701 249 694 222 l 760 249 m 258 -347 q 272 -327 267 -339 q 277 -304 277 -314 q 266 -270 277 -284 q 243 -240 256 -256 q 220 -205 231 -225 q 210 -155 210 -186 q 283 0 210 -74 l 354 0 q 341 -20 346 -8 q 336 -41 336 -32 q 347 -74 336 -59 q 370 -106 357 -89 q 394 -145 383 -123 q 404 -197 404 -167 q 382 -274 403 -236 q 329 -347 361 -313 l 258 -347 z "},"":{"ha":1061,"x_min":12,"x_max":1263,"o":"m 543 0 l 650 504 q 552 539 597 528 q 463 554 507 551 q 391 380 424 469 q 334 208 358 292 q 297 50 311 123 q 283 -79 283 -24 q 287 -120 283 -106 q 293 -140 290 -134 q 299 -150 296 -147 q 302 -157 302 -153 q 233 -152 267 -155 q 174 -133 199 -148 q 132 -87 148 -118 q 117 -1 117 -56 q 131 105 117 43 q 173 241 146 168 q 237 395 200 315 q 321 554 275 475 q 216 535 258 550 q 158 482 174 519 q 170 468 163 482 q 176 439 176 454 q 156 401 176 417 q 92 385 136 385 q 62 389 77 385 q 37 405 48 394 q 19 432 26 416 q 12 472 12 448 q 35 533 12 504 q 94 584 57 562 q 181 619 132 606 q 283 632 230 632 q 366 628 319 632 q 477 787 418 712 q 599 920 536 863 q 725 1010 661 977 q 850 1043 789 1043 q 907 1039 878 1043 q 967 1029 937 1034 q 1030 1020 998 1024 q 1100 1015 1063 1015 q 1177 1021 1137 1015 q 1263 1042 1217 1026 q 1247 992 1255 1019 q 1223 942 1239 965 q 1182 904 1208 920 q 1114 889 1156 889 q 1064 893 1087 889 q 1021 904 1042 897 q 982 918 1001 910 q 942 933 962 926 l 867 582 l 1082 582 l 1054 479 l 844 479 l 774 147 l 1084 147 l 1055 0 l 543 0 m 743 943 q 679 894 711 926 q 614 820 646 863 q 551 724 582 777 q 490 612 519 671 q 578 593 535 604 q 663 566 622 581 l 743 943 z "},"":{"ha":928,"x_min":12,"x_max":1069,"o":"m 543 0 l 650 504 q 553 539 597 528 q 464 554 509 550 q 392 380 425 469 q 335 206 359 290 q 297 47 311 121 q 283 -81 283 -26 q 289 -131 283 -114 q 302 -158 295 -149 q 242 -155 275 -158 q 182 -139 210 -153 q 135 -95 154 -125 q 117 -11 117 -65 q 131 100 117 35 q 173 238 146 164 q 237 394 200 313 q 321 554 275 475 q 213 534 255 550 q 158 482 172 518 q 170 468 163 482 q 176 439 176 454 q 154 399 176 414 q 98 385 131 385 q 64 390 80 385 q 37 405 49 395 q 19 430 26 414 q 12 465 12 445 q 34 532 12 500 q 93 586 55 563 q 183 623 131 609 q 296 636 235 636 q 368 632 324 636 q 480 790 421 715 q 602 920 539 864 q 727 1009 664 976 q 851 1042 790 1042 q 906 1038 876 1042 q 961 1022 936 1034 l 743 0 l 543 0 m 743 943 q 680 895 712 926 q 616 820 648 863 q 553 725 585 777 q 493 614 522 672 q 578 594 535 606 q 663 566 622 582 l 743 943 m 797 1126 l 924 1389 l 1069 1389 l 901 1126 l 797 1126 z "},"":{"ha":928,"x_min":12,"x_max":1061,"o":"m 543 0 l 650 504 q 553 539 597 528 q 464 554 509 550 q 392 380 425 469 q 335 206 359 290 q 297 47 311 121 q 283 -81 283 -26 q 289 -131 283 -114 q 302 -158 295 -149 q 242 -155 275 -158 q 182 -139 210 -153 q 135 -95 154 -125 q 117 -11 117 -65 q 131 100 117 35 q 173 238 146 164 q 237 394 200 313 q 321 554 275 475 q 213 534 255 550 q 158 482 172 518 q 170 468 163 482 q 176 439 176 454 q 154 399 176 414 q 98 385 131 385 q 64 390 80 385 q 37 405 49 395 q 19 430 26 414 q 12 465 12 445 q 34 532 12 500 q 93 586 55 563 q 183 623 131 609 q 296 636 235 636 q 368 632 324 636 q 480 790 421 715 q 602 920 539 864 q 727 1009 664 976 q 851 1042 790 1042 q 906 1038 876 1042 q 961 1022 936 1034 l 743 0 l 543 0 m 743 943 q 680 895 712 926 q 616 820 648 863 q 553 725 585 777 q 493 614 522 672 q 578 594 535 606 q 663 566 622 582 l 743 943 m 1016 1126 l 932 1238 l 715 1126 l 654 1126 l 948 1389 l 977 1389 l 1061 1126 l 1016 1126 z "},"":{"ha":928,"x_min":12,"x_max":1050,"o":"m 543 0 l 650 504 q 553 539 597 528 q 464 554 509 550 q 392 380 425 469 q 335 206 359 290 q 297 47 311 121 q 283 -81 283 -26 q 289 -131 283 -114 q 302 -158 295 -149 q 242 -155 275 -158 q 182 -139 210 -153 q 135 -95 154 -125 q 117 -11 117 -65 q 131 100 117 35 q 173 238 146 164 q 237 394 200 313 q 321 554 275 475 q 213 534 255 550 q 158 482 172 518 q 170 468 163 482 q 176 439 176 454 q 154 399 176 414 q 98 385 131 385 q 64 390 80 385 q 37 405 49 395 q 19 430 26 414 q 12 465 12 445 q 34 532 12 500 q 93 586 55 563 q 183 623 131 609 q 296 636 235 636 q 368 632 324 636 q 480 790 421 715 q 602 920 539 864 q 727 1009 664 976 q 851 1042 790 1042 q 906 1038 876 1042 q 961 1022 936 1034 l 743 0 l 543 0 m 743 943 q 680 895 712 926 q 616 820 648 863 q 553 725 585 777 q 493 614 522 672 q 578 594 535 606 q 663 566 622 582 l 743 943 m 716 1143 q 682 1150 698 1143 q 655 1167 667 1156 q 638 1194 644 1179 q 631 1227 631 1209 q 638 1260 631 1244 q 655 1287 644 1276 q 682 1305 667 1299 q 716 1312 698 1312 q 748 1305 733 1312 q 775 1287 764 1299 q 793 1260 787 1276 q 800 1227 800 1244 q 793 1194 800 1209 q 775 1167 787 1179 q 748 1150 764 1156 q 716 1143 733 1143 m 1050 1227 q 1044 1194 1050 1209 q 1025 1167 1037 1179 q 998 1150 1014 1156 q 966 1143 983 1143 q 932 1150 947 1143 q 905 1167 917 1156 q 887 1194 894 1179 q 881 1227 881 1209 q 887 1260 881 1244 q 905 1287 894 1276 q 932 1305 917 1299 q 966 1312 947 1312 q 998 1305 983 1312 q 1025 1287 1014 1299 q 1044 1260 1037 1276 q 1050 1227 1050 1244 z "},"":{"ha":928,"x_min":12,"x_max":961,"o":"m 543 0 l 650 504 q 553 539 597 528 q 464 554 509 550 q 392 380 425 469 q 335 206 359 290 q 297 47 311 121 q 283 -81 283 -26 q 289 -131 283 -114 q 302 -158 295 -149 q 242 -155 275 -158 q 182 -139 210 -153 q 135 -95 154 -125 q 117 -11 117 -65 q 131 100 117 35 q 173 238 146 164 q 237 394 200 313 q 321 554 275 475 q 213 534 255 550 q 158 482 172 518 q 170 468 163 482 q 176 439 176 454 q 154 399 176 414 q 98 385 131 385 q 64 390 80 385 q 37 405 49 395 q 19 430 26 414 q 12 465 12 445 q 34 532 12 500 q 93 586 55 563 q 183 623 131 609 q 296 636 235 636 q 368 632 324 636 q 480 790 421 715 q 602 920 539 864 q 727 1009 664 976 q 851 1042 790 1042 q 906 1038 876 1042 q 961 1022 936 1034 l 743 0 l 543 0 m 743 943 q 680 895 712 926 q 616 820 648 863 q 553 725 585 777 q 493 614 522 672 q 578 594 535 606 q 663 566 622 582 l 743 943 m 757 1126 l 675 1389 l 821 1389 l 861 1126 l 757 1126 z "},"":{"ha":928,"x_min":12,"x_max":961,"o":"m 692 0 q 664 -20 677 -8 q 640 -48 651 -33 q 623 -81 629 -63 q 616 -117 616 -98 q 620 -141 616 -129 q 629 -163 623 -153 q 646 -179 635 -173 q 671 -186 656 -186 q 695 -181 683 -186 q 720 -169 708 -176 q 743 -154 732 -162 q 765 -139 755 -146 q 763 -160 764 -151 q 762 -182 762 -170 q 735 -209 750 -194 q 701 -237 720 -224 q 660 -259 682 -250 q 611 -268 637 -268 q 562 -258 583 -268 q 527 -232 541 -248 q 508 -197 514 -216 q 501 -160 501 -178 q 526 -82 501 -123 q 600 0 551 -40 l 543 0 l 650 504 q 553 539 597 528 q 464 554 509 550 q 392 380 425 469 q 335 206 359 290 q 297 47 311 121 q 283 -81 283 -26 q 289 -131 283 -114 q 302 -158 295 -149 q 242 -155 275 -158 q 182 -139 210 -153 q 135 -95 154 -125 q 117 -11 117 -65 q 131 100 117 35 q 173 238 146 164 q 237 394 200 313 q 321 554 275 475 q 213 534 255 550 q 158 482 172 518 q 170 468 163 482 q 176 439 176 454 q 154 399 176 414 q 98 385 131 385 q 64 390 80 385 q 37 405 49 395 q 19 430 26 414 q 12 465 12 445 q 34 532 12 500 q 93 586 55 563 q 183 623 131 609 q 296 636 235 636 q 368 632 324 636 q 480 790 421 715 q 602 920 539 864 q 727 1009 664 976 q 851 1042 790 1042 q 906 1038 876 1042 q 961 1022 936 1034 l 743 0 l 692 0 m 743 943 q 680 895 712 926 q 616 820 648 863 q 553 725 585 777 q 493 614 522 672 q 578 594 535 606 q 663 566 622 582 l 743 943 z "},"":{"ha":928,"x_min":12,"x_max":961,"o":"m 543 0 l 650 504 q 553 539 597 528 q 464 554 509 550 q 392 380 425 469 q 335 206 359 290 q 297 47 311 121 q 283 -81 283 -26 q 289 -131 283 -114 q 302 -158 295 -149 q 242 -155 275 -158 q 182 -139 210 -153 q 135 -95 154 -125 q 117 -11 117 -65 q 131 100 117 35 q 173 238 146 164 q 237 394 200 313 q 321 554 275 475 q 213 534 255 550 q 158 482 172 518 q 170 468 163 482 q 176 439 176 454 q 154 399 176 414 q 98 385 131 385 q 64 390 80 385 q 37 405 49 395 q 19 430 26 414 q 12 465 12 445 q 34 532 12 500 q 93 586 55 563 q 183 623 131 609 q 296 636 235 636 q 368 632 324 636 q 480 790 421 715 q 602 920 539 864 q 727 1009 664 976 q 851 1042 790 1042 q 906 1038 876 1042 q 961 1022 936 1034 l 743 0 l 543 0 m 743 943 q 680 895 712 926 q 616 820 648 863 q 553 725 585 777 q 493 614 522 672 q 578 594 535 606 q 663 566 622 582 l 743 943 m 953 1231 q 946 1186 953 1208 q 925 1149 940 1165 q 888 1123 911 1133 q 832 1114 865 1114 q 792 1121 810 1114 q 761 1142 774 1128 q 741 1173 748 1155 q 734 1211 734 1191 q 741 1252 734 1230 q 762 1293 748 1274 q 799 1325 777 1312 q 852 1337 821 1337 q 897 1329 878 1337 q 928 1306 916 1321 q 947 1273 941 1292 q 953 1231 953 1253 m 901 1226 q 900 1248 901 1236 q 895 1270 899 1260 q 881 1285 890 1279 q 855 1292 872 1292 q 825 1284 837 1292 q 805 1266 812 1277 q 793 1241 797 1255 q 790 1214 790 1227 q 801 1176 790 1190 q 838 1162 812 1162 q 886 1180 870 1162 q 901 1226 901 1197 z "},"":{"ha":928,"x_min":12,"x_max":1125,"o":"m 543 0 l 650 504 q 553 539 597 528 q 464 554 509 550 q 392 380 425 469 q 335 206 359 290 q 297 47 311 121 q 283 -81 283 -26 q 289 -131 283 -114 q 302 -158 295 -149 q 242 -155 275 -158 q 182 -139 210 -153 q 135 -95 154 -125 q 117 -11 117 -65 q 131 100 117 35 q 173 238 146 164 q 237 394 200 313 q 321 554 275 475 q 213 534 255 550 q 158 482 172 518 q 170 468 163 482 q 176 439 176 454 q 154 399 176 414 q 98 385 131 385 q 64 390 80 385 q 37 405 49 395 q 19 430 26 414 q 12 465 12 445 q 34 532 12 500 q 93 586 55 563 q 183 623 131 609 q 296 636 235 636 q 368 632 324 636 q 480 790 421 715 q 602 920 539 864 q 727 1009 664 976 q 851 1042 790 1042 q 906 1038 876 1042 q 961 1022 936 1034 l 743 0 l 543 0 m 743 943 q 680 895 712 926 q 616 820 648 863 q 553 725 585 777 q 493 614 522 672 q 578 594 535 606 q 663 566 622 582 l 743 943 m 1125 1276 q 1099 1227 1120 1252 q 1047 1182 1078 1202 q 979 1150 1017 1162 q 901 1137 941 1137 q 837 1145 867 1137 q 779 1163 807 1154 q 724 1181 751 1173 q 668 1189 697 1189 q 576 1153 616 1189 l 568 1156 q 661 1257 602 1223 q 800 1292 720 1292 q 867 1285 838 1292 q 922 1269 896 1278 q 974 1253 948 1260 q 1029 1246 999 1246 q 1078 1254 1055 1246 q 1117 1278 1101 1262 l 1125 1276 z "},"":{"ha":690,"x_min":26,"x_max":743,"o":"m 726 236 q 651 117 699 166 q 548 37 604 68 q 436 -8 493 6 q 330 -22 378 -22 q 196 -4 253 -22 q 101 55 139 14 q 45 161 64 96 q 26 319 26 226 q 32 423 26 367 q 51 538 38 479 q 84 659 64 598 q 132 775 104 719 q 198 880 161 831 q 282 964 235 928 q 386 1021 329 1000 q 511 1042 443 1042 q 602 1031 559 1042 q 676 998 644 1021 q 725 941 707 976 q 743 856 743 905 q 738 805 743 828 q 721 764 733 781 q 691 737 709 747 q 646 728 672 728 q 608 734 629 728 q 567 764 587 740 q 591 783 579 770 q 611 813 602 796 q 625 851 620 831 q 631 892 631 871 q 626 924 631 908 q 612 951 622 939 q 585 969 602 962 q 546 977 569 977 q 471 948 507 977 q 402 871 435 920 q 343 758 370 823 q 298 622 317 694 q 268 474 279 550 q 257 328 257 398 q 264 240 257 279 q 290 172 271 200 q 341 127 309 143 q 424 111 373 111 q 576 148 506 111 q 694 250 646 184 l 726 236 m 468 1126 l 595 1389 l 741 1389 l 572 1126 l 468 1126 z "},"":{"ha":690,"x_min":26,"x_max":812,"o":"m 726 236 q 651 117 699 166 q 548 37 604 68 q 436 -8 493 6 q 330 -22 378 -22 q 196 -4 253 -22 q 101 55 139 14 q 45 161 64 96 q 26 319 26 226 q 32 423 26 367 q 51 538 38 479 q 84 659 64 598 q 132 775 104 719 q 198 880 161 831 q 282 964 235 928 q 386 1021 329 1000 q 511 1042 443 1042 q 602 1031 559 1042 q 676 998 644 1021 q 725 941 707 976 q 743 856 743 905 q 738 805 743 828 q 721 764 733 781 q 691 737 709 747 q 646 728 672 728 q 608 734 629 728 q 567 764 587 740 q 591 783 579 770 q 611 813 602 796 q 625 851 620 831 q 631 892 631 871 q 626 924 631 908 q 612 951 622 939 q 585 969 602 962 q 546 977 569 977 q 471 948 507 977 q 402 871 435 920 q 343 758 370 823 q 298 622 317 694 q 268 474 279 550 q 257 328 257 398 q 264 240 257 279 q 290 172 271 200 q 341 127 309 143 q 424 111 373 111 q 576 148 506 111 q 694 250 646 184 l 726 236 m 518 1126 l 489 1126 l 406 1389 l 450 1389 l 533 1278 l 751 1389 l 812 1389 l 518 1126 z "},"":{"ha":690,"x_min":26,"x_max":743,"o":"m 726 236 q 661 128 701 174 q 571 51 620 82 q 471 3 523 20 q 372 -20 419 -14 l 343 -92 q 384 -83 365 -86 q 416 -81 402 -81 q 482 -99 461 -81 q 503 -150 503 -117 q 488 -216 503 -188 q 450 -264 473 -245 q 397 -293 427 -283 q 336 -302 367 -302 q 289 -299 310 -302 q 250 -291 268 -296 q 217 -279 233 -286 q 187 -264 202 -272 q 210 -233 197 -247 q 243 -220 223 -220 q 277 -225 264 -220 q 300 -238 290 -231 q 321 -251 311 -245 q 346 -257 331 -257 q 362 -252 355 -257 q 375 -239 370 -247 q 384 -220 381 -231 q 387 -199 387 -210 q 375 -164 387 -179 q 334 -149 363 -149 q 289 -154 305 -149 q 261 -165 273 -160 l 313 -22 q 186 -1 239 -20 q 97 60 132 19 q 44 164 61 100 q 26 319 26 229 q 32 423 26 367 q 51 538 38 479 q 84 659 64 598 q 132 775 104 719 q 198 880 161 831 q 282 964 235 928 q 386 1021 329 1000 q 511 1042 443 1042 q 602 1031 559 1042 q 676 998 644 1021 q 725 941 707 976 q 743 856 743 905 q 738 805 743 828 q 721 764 733 781 q 691 737 709 747 q 646 728 672 728 q 608 734 629 728 q 567 764 587 740 q 591 783 579 770 q 611 813 602 796 q 625 851 620 831 q 631 892 631 871 q 626 924 631 908 q 612 951 622 939 q 585 969 602 962 q 546 977 569 977 q 471 948 507 977 q 402 871 435 920 q 343 758 370 823 q 298 622 317 694 q 268 474 279 550 q 257 328 257 398 q 264 240 257 279 q 290 172 271 200 q 341 127 309 143 q 424 111 373 111 q 576 148 506 111 q 694 250 646 184 l 726 236 z "},"":{"ha":690,"x_min":26,"x_max":743,"o":"m 726 236 q 651 117 699 166 q 548 37 604 68 q 436 -8 493 6 q 330 -22 378 -22 q 196 -4 253 -22 q 101 55 139 14 q 45 161 64 96 q 26 319 26 226 q 32 423 26 367 q 51 538 38 479 q 84 659 64 598 q 132 775 104 719 q 198 880 161 831 q 282 964 235 928 q 386 1021 329 1000 q 511 1042 443 1042 q 602 1031 559 1042 q 676 998 644 1021 q 725 941 707 976 q 743 856 743 905 q 738 805 743 828 q 721 764 733 781 q 691 737 709 747 q 646 728 672 728 q 608 734 629 728 q 567 764 587 740 q 591 783 579 770 q 611 813 602 796 q 625 851 620 831 q 631 892 631 871 q 626 924 631 908 q 612 951 622 939 q 585 969 602 962 q 546 977 569 977 q 471 948 507 977 q 402 871 435 920 q 343 758 370 823 q 298 622 317 694 q 268 474 279 550 q 257 328 257 398 q 264 240 257 279 q 290 172 271 200 q 341 127 309 143 q 424 111 373 111 q 576 148 506 111 q 694 250 646 184 l 726 236 m 643 1126 l 559 1238 l 342 1126 l 281 1126 l 575 1389 l 604 1389 l 688 1126 l 643 1126 z "},"":{"ha":637,"x_min":9,"x_max":730,"o":"m 672 236 q 601 127 644 175 q 504 45 558 79 q 389 -7 450 11 q 265 -25 328 -25 q 150 -5 198 -25 q 70 49 101 15 q 24 127 39 83 q 9 220 9 171 q 27 332 9 275 q 78 438 45 389 q 158 526 111 488 q 267 579 206 564 q 202 655 222 612 q 182 746 182 699 q 204 853 182 800 q 268 949 227 906 q 364 1018 308 991 q 486 1044 420 1044 q 564 1033 528 1044 q 627 1000 600 1022 q 670 946 654 979 q 685 871 685 913 q 677 813 685 840 q 654 767 669 787 q 622 737 640 748 q 582 726 603 726 q 517 764 544 726 q 540 781 529 768 q 560 810 551 793 q 573 847 568 827 q 578 885 578 867 q 571 921 578 906 q 554 945 564 936 q 529 958 543 954 q 501 962 515 962 q 444 945 470 962 q 399 901 418 928 q 370 838 380 873 q 359 766 359 803 q 367 707 359 736 q 392 653 375 677 q 436 609 409 628 q 500 581 463 591 q 430 553 463 572 q 369 508 397 534 q 320 450 342 482 q 283 384 298 418 q 260 315 268 350 q 252 249 252 281 q 259 194 252 220 q 282 149 267 168 q 323 119 298 130 q 383 109 348 109 q 452 117 415 109 q 524 144 489 126 q 590 189 559 162 q 640 250 621 215 l 672 236 m 458 1126 l 585 1389 l 730 1389 l 562 1126 l 458 1126 z "},"":{"ha":637,"x_min":9,"x_max":688,"o":"m 672 236 q 601 127 644 175 q 504 45 558 79 q 389 -7 450 11 q 265 -25 328 -25 q 150 -5 198 -25 q 70 49 101 15 q 24 127 39 83 q 9 220 9 171 q 27 332 9 275 q 78 438 45 389 q 158 526 111 488 q 267 579 206 564 q 202 655 222 612 q 182 746 182 699 q 204 853 182 800 q 268 949 227 906 q 364 1018 308 991 q 486 1044 420 1044 q 564 1033 528 1044 q 627 1000 600 1022 q 670 946 654 979 q 685 871 685 913 q 677 813 685 840 q 654 767 669 787 q 622 737 640 748 q 582 726 603 726 q 517 764 544 726 q 540 781 529 768 q 560 810 551 793 q 573 847 568 827 q 578 885 578 867 q 571 921 578 906 q 554 945 564 936 q 529 958 543 954 q 501 962 515 962 q 444 945 470 962 q 399 901 418 928 q 370 838 380 873 q 359 766 359 803 q 367 707 359 736 q 392 653 375 677 q 436 609 409 628 q 500 581 463 591 q 430 553 463 572 q 369 508 397 534 q 320 450 342 482 q 283 384 298 418 q 260 315 268 350 q 252 249 252 281 q 259 194 252 220 q 282 149 267 168 q 323 119 298 130 q 383 109 348 109 q 452 117 415 109 q 524 144 489 126 q 590 189 559 162 q 640 250 621 215 l 672 236 m 643 1126 l 559 1238 l 342 1126 l 281 1126 l 575 1389 l 604 1389 l 688 1126 l 643 1126 z "},"":{"ha":637,"x_min":9,"x_max":750,"o":"m 672 236 q 601 127 644 175 q 504 45 558 79 q 389 -7 450 11 q 265 -25 328 -25 q 150 -5 198 -25 q 70 49 101 15 q 24 127 39 83 q 9 220 9 171 q 27 332 9 275 q 78 438 45 389 q 158 526 111 488 q 267 579 206 564 q 202 655 222 612 q 182 746 182 699 q 204 853 182 800 q 268 949 227 906 q 364 1018 308 991 q 486 1044 420 1044 q 564 1033 528 1044 q 627 1000 600 1022 q 670 946 654 979 q 685 871 685 913 q 677 813 685 840 q 654 767 669 787 q 622 737 640 748 q 582 726 603 726 q 517 764 544 726 q 540 781 529 768 q 560 810 551 793 q 573 847 568 827 q 578 885 578 867 q 571 921 578 906 q 554 945 564 936 q 529 958 543 954 q 501 962 515 962 q 444 945 470 962 q 399 901 418 928 q 370 838 380 873 q 359 766 359 803 q 367 707 359 736 q 392 653 375 677 q 436 609 409 628 q 500 581 463 591 q 430 553 463 572 q 369 508 397 534 q 320 450 342 482 q 283 384 298 418 q 260 315 268 350 q 252 249 252 281 q 259 194 252 220 q 282 149 267 168 q 323 119 298 130 q 383 109 348 109 q 452 117 415 109 q 524 144 489 126 q 590 189 559 162 q 640 250 621 215 l 672 236 m 500 1227 q 493 1194 500 1209 q 475 1167 486 1179 q 448 1150 463 1156 q 415 1143 432 1143 q 381 1150 397 1143 q 355 1167 366 1156 q 337 1194 343 1179 q 330 1227 330 1209 q 337 1260 330 1244 q 355 1287 343 1276 q 381 1305 366 1299 q 415 1312 397 1312 q 448 1305 432 1312 q 475 1287 463 1299 q 493 1260 486 1276 q 500 1227 500 1244 m 750 1227 q 743 1194 750 1209 q 725 1167 736 1179 q 698 1150 713 1156 q 665 1143 682 1143 q 631 1150 647 1143 q 605 1167 616 1156 q 587 1194 593 1179 q 581 1227 581 1209 q 587 1260 581 1244 q 605 1287 593 1276 q 631 1305 616 1299 q 665 1312 647 1312 q 698 1305 682 1312 q 725 1287 713 1299 q 743 1260 736 1276 q 750 1227 750 1244 z "},"":{"ha":637,"x_min":9,"x_max":685,"o":"m 672 236 q 601 127 644 175 q 504 45 558 79 q 389 -7 450 11 q 265 -25 328 -25 q 150 -5 198 -25 q 70 49 101 15 q 24 127 39 83 q 9 220 9 171 q 27 332 9 275 q 78 438 45 389 q 158 526 111 488 q 267 579 206 564 q 202 655 222 612 q 182 746 182 699 q 204 853 182 800 q 268 949 227 906 q 364 1018 308 991 q 486 1044 420 1044 q 564 1033 528 1044 q 627 1000 600 1022 q 670 946 654 979 q 685 871 685 913 q 677 813 685 840 q 654 767 669 787 q 622 737 640 748 q 582 726 603 726 q 517 764 544 726 q 540 781 529 768 q 560 810 551 793 q 573 847 568 827 q 578 885 578 867 q 571 921 578 906 q 554 945 564 936 q 529 958 543 954 q 501 962 515 962 q 444 945 470 962 q 399 901 418 928 q 370 838 380 873 q 359 766 359 803 q 367 707 359 736 q 392 653 375 677 q 436 609 409 628 q 500 581 463 591 q 430 553 463 572 q 369 508 397 534 q 320 450 342 482 q 283 384 298 418 q 260 315 268 350 q 252 249 252 281 q 259 194 252 220 q 282 149 267 168 q 323 119 298 130 q 383 109 348 109 q 452 117 415 109 q 524 144 489 126 q 590 189 559 162 q 640 250 621 215 l 672 236 m 432 1126 l 350 1389 l 496 1389 l 536 1126 l 432 1126 z "},"":{"ha":637,"x_min":16,"x_max":693,"o":"m 672 236 q 631 153 656 186 q 578 95 606 120 q 523 51 551 71 q 473 8 495 31 q 436 -44 450 -15 q 422 -117 422 -74 q 426 -141 422 -129 q 435 -163 429 -153 q 452 -179 441 -173 q 476 -186 462 -186 q 502 -181 489 -186 q 526 -169 514 -176 q 549 -154 538 -162 q 571 -139 561 -146 q 569 -160 570 -151 q 568 -182 568 -170 q 541 -209 556 -194 q 507 -237 526 -224 q 465 -259 488 -250 q 416 -268 443 -268 q 367 -258 388 -268 q 333 -232 347 -248 q 314 -197 320 -216 q 307 -160 307 -178 q 333 -80 307 -122 q 407 1 358 -37 q 355 -6 381 -4 q 302 -8 328 -8 q 177 16 231 -8 q 87 78 123 39 q 34 168 52 117 q 16 272 16 218 q 31 371 16 321 q 78 463 47 420 q 157 536 110 505 q 267 579 204 567 q 205 623 231 598 q 162 674 179 647 q 137 731 145 702 q 129 790 129 760 q 149 883 129 838 q 209 964 170 928 q 306 1020 248 999 q 437 1042 363 1042 q 532 1031 486 1042 q 614 998 578 1021 q 671 941 650 976 q 693 856 693 905 q 688 805 693 828 q 671 764 683 781 q 641 737 659 747 q 596 728 623 728 q 558 734 579 728 q 517 764 536 740 q 540 781 529 768 q 560 812 551 795 q 573 847 568 829 q 578 878 578 865 q 576 903 578 886 q 566 938 574 920 q 538 968 557 955 q 486 981 519 981 q 417 967 448 981 q 363 930 386 954 q 329 876 341 907 q 317 810 317 844 q 327 748 317 779 q 359 687 337 716 q 416 630 381 657 q 500 581 450 603 q 388 519 433 553 q 313 450 342 486 q 271 376 284 414 q 258 301 258 338 q 271 230 258 263 q 306 171 284 196 q 358 131 328 146 q 421 117 387 117 q 493 125 461 117 q 551 150 525 134 q 599 192 578 167 q 640 250 621 217 l 672 236 z "},"":{"ha":921,"x_min":8,"x_max":896,"o":"m 131 0 l 233 479 l 179 479 l 207 582 l 256 582 l 319 884 l 525 911 l 454 582 l 564 582 l 536 479 l 432 479 l 358 132 q 437 104 396 104 q 515 131 479 104 q 580 201 551 157 q 633 305 610 245 q 672 431 656 364 q 696 568 688 498 q 704 705 704 639 q 696 821 704 770 q 668 907 689 872 q 610 960 647 941 q 513 978 572 978 q 359 955 428 978 q 241 888 290 932 q 164 782 191 844 q 138 640 138 720 q 141 597 138 614 q 147 571 144 581 q 154 555 151 561 q 157 546 157 550 q 93 553 121 546 q 46 576 65 560 q 18 617 28 591 q 8 681 8 643 q 28 772 8 727 q 83 857 48 817 q 165 930 118 897 q 266 989 212 964 q 379 1028 320 1014 q 496 1042 437 1042 q 637 1027 576 1042 q 742 988 698 1013 q 816 927 787 962 q 863 850 846 892 q 888 762 881 808 q 896 667 896 715 q 882 491 896 577 q 842 329 867 406 q 781 189 817 253 q 703 79 745 125 q 611 7 660 33 q 511 -18 563 -18 q 429 -1 471 -18 q 342 56 387 17 l 330 0 l 131 0 z "},"":{"ha":921,"x_min":8,"x_max":935,"o":"m 726 996 l 935 1042 l 726 56 q 686 -80 711 -17 q 619 -189 660 -142 q 519 -261 578 -235 q 379 -288 460 -288 q 279 -273 321 -288 q 209 -234 237 -259 q 169 -173 182 -208 q 155 -97 155 -138 q 161 -45 155 -68 q 176 0 166 -21 l 131 0 l 332 943 q 189 829 239 905 q 138 640 138 753 q 141 597 138 614 q 147 571 144 581 q 154 555 151 561 q 157 546 157 550 q 93 553 121 546 q 46 576 65 560 q 18 617 28 591 q 8 681 8 643 q 28 772 8 727 q 83 857 48 817 q 165 930 118 897 q 266 989 212 964 q 379 1028 320 1014 q 496 1042 437 1042 q 525 1041 511 1042 q 551 1039 538 1040 l 347 81 q 415 51 390 74 q 440 -8 440 27 q 431 -54 440 -28 q 363 -22 399 -22 q 327 -31 344 -22 q 298 -52 311 -39 q 279 -84 286 -66 q 272 -123 272 -102 q 279 -161 272 -144 q 298 -191 286 -178 q 330 -211 311 -204 q 371 -218 348 -218 q 410 -211 391 -218 q 444 -185 428 -204 q 474 -133 460 -165 q 498 -47 488 -100 l 726 996 z "},"":{"ha":521,"x_min":8,"x_max":680,"o":"m 131 0 l 332 943 q 189 829 239 905 q 138 640 138 753 q 141 597 138 614 q 147 571 144 581 q 154 555 151 561 q 157 546 157 550 q 93 553 121 546 q 46 576 65 560 q 18 617 28 591 q 8 681 8 643 q 28 772 8 727 q 83 857 48 817 q 165 930 118 897 q 266 989 212 964 q 379 1028 320 1014 q 496 1042 437 1042 q 525 1041 511 1042 q 551 1039 538 1040 l 330 0 l 131 0 m 408 1126 l 534 1389 l 680 1389 l 512 1126 l 408 1126 z "},"":{"ha":521,"x_min":8,"x_max":644,"o":"m 131 0 l 332 943 q 189 829 239 905 q 138 640 138 753 q 141 597 138 614 q 147 571 144 581 q 154 555 151 561 q 157 546 157 550 q 93 553 121 546 q 46 576 65 560 q 18 617 28 591 q 8 681 8 643 q 28 772 8 727 q 83 857 48 817 q 165 930 118 897 q 266 989 212 964 q 379 1028 320 1014 q 496 1042 437 1042 q 525 1041 511 1042 q 551 1039 538 1040 l 330 0 l 131 0 m 600 1126 l 516 1238 l 298 1126 l 237 1126 l 531 1389 l 560 1389 l 644 1126 l 600 1126 z "},"":{"ha":521,"x_min":8,"x_max":679,"o":"m 131 0 l 332 943 q 189 829 239 905 q 138 640 138 753 q 141 597 138 614 q 147 571 144 581 q 154 555 151 561 q 157 546 157 550 q 93 553 121 546 q 46 576 65 560 q 18 617 28 591 q 8 681 8 643 q 28 772 8 727 q 83 857 48 817 q 165 930 118 897 q 266 989 212 964 q 379 1028 320 1014 q 496 1042 437 1042 q 525 1041 511 1042 q 551 1039 538 1040 l 330 0 l 131 0 m 429 1227 q 422 1194 429 1209 q 404 1167 415 1179 q 376 1150 392 1156 q 344 1143 361 1143 q 310 1150 326 1143 q 283 1167 294 1156 q 266 1194 272 1179 q 259 1227 259 1209 q 266 1260 259 1244 q 283 1287 272 1276 q 310 1305 294 1299 q 344 1312 326 1312 q 376 1305 361 1312 q 404 1287 392 1299 q 422 1260 415 1276 q 429 1227 429 1244 m 679 1227 q 672 1194 679 1209 q 653 1167 665 1179 q 626 1150 642 1156 q 594 1143 611 1143 q 560 1150 576 1143 q 533 1167 545 1156 q 516 1194 522 1179 q 509 1227 509 1209 q 516 1260 509 1244 q 533 1287 522 1276 q 560 1305 545 1299 q 594 1312 576 1312 q 626 1305 611 1312 q 653 1287 642 1299 q 672 1260 665 1276 q 679 1227 679 1244 z "},"":{"ha":521,"x_min":8,"x_max":551,"o":"m 131 0 l 332 943 q 189 829 239 905 q 138 640 138 753 q 141 597 138 614 q 147 571 144 581 q 154 555 151 561 q 157 546 157 550 q 93 553 121 546 q 46 576 65 560 q 18 617 28 591 q 8 681 8 643 q 28 772 8 727 q 83 857 48 817 q 165 930 118 897 q 266 989 212 964 q 379 1028 320 1014 q 496 1042 437 1042 q 525 1041 511 1042 q 551 1039 538 1040 l 330 0 l 131 0 m 380 1126 l 298 1389 l 444 1389 l 485 1126 l 380 1126 z "},"":{"ha":545,"x_min":8,"x_max":921,"o":"m 222 410 l 132 355 l 135 429 l 240 497 l 332 929 q 189 815 239 891 q 138 627 138 740 q 141 584 138 600 q 147 557 144 567 q 154 541 151 547 q 157 532 157 536 q 93 539 121 532 q 46 562 65 546 q 18 604 28 578 q 8 667 8 629 q 28 758 8 713 q 83 842 48 802 q 165 917 118 882 q 266 976 212 951 q 379 1014 320 1000 q 496 1028 437 1028 q 525 1027 511 1028 q 551 1025 538 1026 l 475 660 l 636 755 l 631 671 l 454 562 l 338 28 q 410 3 374 20 q 483 -34 446 -14 q 558 -74 520 -54 q 636 -112 597 -95 q 718 -140 676 -130 q 804 -151 760 -151 q 862 -146 833 -151 q 921 -129 890 -142 q 902 -219 915 -179 q 871 -288 890 -260 q 829 -332 853 -317 q 777 -347 805 -347 q 679 -324 727 -347 q 582 -266 631 -300 q 484 -190 534 -231 q 382 -114 435 -149 q 274 -55 330 -79 q 157 -32 218 -32 q 141 -32 149 -32 q 125 -33 134 -32 l 222 410 z "},"":{"ha":975,"x_min":8,"x_max":998,"o":"m 689 1126 l 815 1389 l 961 1389 l 793 1126 l 689 1126 m 998 1039 l 771 0 l 579 0 l 418 689 l 260 0 l 128 0 l 337 951 q 193 846 241 918 q 144 673 144 775 q 154 592 144 629 q 182 532 164 555 q 51 568 93 532 q 8 682 8 604 q 23 778 8 732 q 66 865 39 824 q 132 939 94 905 q 218 997 171 972 q 318 1034 264 1021 q 430 1047 372 1047 q 487 1043 463 1047 q 540 1028 511 1038 l 707 285 l 863 1039 l 998 1039 z "},"":{"ha":1175,"x_min":22,"x_max":1270,"o":"m 497 0 l 498 3 q 450 -5 475 -3 q 399 -8 425 -8 q 298 7 344 -8 q 220 55 253 22 q 168 141 186 88 q 150 271 150 195 q 160 397 150 327 q 192 539 171 467 q 244 681 213 612 q 318 804 276 750 q 412 890 359 857 q 526 922 464 922 q 562 920 544 922 q 599 911 579 918 q 537 851 567 892 q 479 757 507 811 q 430 640 452 703 q 390 511 407 576 q 365 382 374 446 q 355 265 355 319 q 360 200 355 230 q 374 150 365 171 q 399 116 384 128 q 436 104 414 104 q 506 132 471 104 q 574 205 541 159 q 634 314 606 252 q 682 447 662 376 q 714 591 703 517 q 726 734 726 665 q 719 841 726 795 q 692 917 712 886 q 638 963 673 947 q 549 978 604 978 q 397 953 469 978 q 269 882 324 928 q 181 769 214 836 q 149 621 149 703 q 151 588 149 600 q 156 567 153 575 q 160 555 158 559 q 163 546 163 550 q 59 572 96 546 q 22 663 22 599 q 43 758 22 711 q 102 847 64 805 q 192 925 140 890 q 307 987 244 961 q 439 1027 369 1013 q 582 1042 509 1042 q 665 1035 627 1042 q 734 1015 703 1028 q 812 1035 770 1028 q 914 1042 854 1042 q 961 1039 935 1042 q 1017 1033 987 1036 q 1079 1027 1046 1030 q 1145 1025 1111 1025 q 1209 1028 1177 1025 q 1270 1042 1240 1032 q 1256 995 1263 1020 q 1237 945 1250 969 q 1200 902 1223 922 q 1137 875 1177 883 q 1059 881 1097 875 q 987 896 1022 888 q 918 913 952 905 q 850 925 884 922 q 897 818 882 879 q 911 686 911 758 q 909 635 911 661 q 904 582 907 609 l 1089 582 l 1061 479 l 885 479 q 825 303 864 390 q 725 147 786 216 l 1064 147 l 1035 0 l 497 0 z "},"":{"ha":924,"x_min":22,"x_max":911,"o":"m 599 911 q 537 851 567 892 q 479 757 507 811 q 430 640 452 703 q 390 511 407 576 q 365 382 374 446 q 355 265 355 319 q 360 200 355 230 q 374 150 365 171 q 399 116 384 128 q 436 104 414 104 q 506 132 471 104 q 574 205 541 159 q 634 314 606 252 q 682 447 662 376 q 714 591 703 517 q 726 734 726 665 q 719 841 726 795 q 692 917 712 886 q 638 963 673 947 q 549 978 604 978 q 397 953 469 978 q 269 882 324 928 q 181 769 214 836 q 149 621 149 703 q 151 588 149 600 q 156 567 153 575 q 160 555 158 559 q 163 546 163 550 q 59 572 96 546 q 22 663 22 599 q 43 758 22 711 q 102 847 64 805 q 192 925 140 890 q 307 987 244 961 q 439 1027 369 1013 q 582 1042 509 1042 q 736 1015 673 1042 q 838 942 799 989 q 893 829 876 895 q 911 686 911 764 q 898 542 911 619 q 859 387 886 464 q 791 238 832 310 q 693 112 750 167 q 563 25 636 58 q 399 -8 490 -8 q 298 7 344 -8 q 220 55 253 22 q 168 141 186 88 q 150 271 150 195 q 160 397 150 327 q 192 539 171 467 q 244 681 213 612 q 318 804 276 750 q 412 890 359 857 q 526 922 464 922 q 562 920 544 922 q 599 911 579 918 m 551 1126 l 677 1389 l 823 1389 l 656 1126 l 551 1126 z "},"":{"ha":924,"x_min":22,"x_max":911,"o":"m 599 911 q 537 851 567 892 q 479 757 507 811 q 430 640 452 703 q 390 511 407 576 q 365 382 374 446 q 355 265 355 319 q 360 200 355 230 q 374 150 365 171 q 399 116 384 128 q 436 104 414 104 q 506 132 471 104 q 574 205 541 159 q 634 314 606 252 q 682 447 662 376 q 714 591 703 517 q 726 734 726 665 q 719 841 726 795 q 692 917 712 886 q 638 963 673 947 q 549 978 604 978 q 397 953 469 978 q 269 882 324 928 q 181 769 214 836 q 149 621 149 703 q 151 588 149 600 q 156 567 153 575 q 160 555 158 559 q 163 546 163 550 q 59 572 96 546 q 22 663 22 599 q 43 758 22 711 q 102 847 64 805 q 192 925 140 890 q 307 987 244 961 q 439 1027 369 1013 q 582 1042 509 1042 q 736 1015 673 1042 q 838 942 799 989 q 893 829 876 895 q 911 686 911 764 q 898 542 911 619 q 859 387 886 464 q 791 238 832 310 q 693 112 750 167 q 563 25 636 58 q 399 -8 490 -8 q 298 7 344 -8 q 220 55 253 22 q 168 141 186 88 q 150 271 150 195 q 160 397 150 327 q 192 539 171 467 q 244 681 213 612 q 318 804 276 750 q 412 890 359 857 q 526 922 464 922 q 562 920 544 922 q 599 911 579 918 m 741 1126 l 657 1238 l 439 1126 l 378 1126 l 672 1389 l 701 1389 l 785 1126 l 741 1126 z "},"":{"ha":924,"x_min":22,"x_max":911,"o":"m 599 911 q 537 851 567 892 q 479 757 507 811 q 430 640 452 703 q 390 511 407 576 q 365 382 374 446 q 355 265 355 319 q 360 200 355 230 q 374 150 365 171 q 399 116 384 128 q 436 104 414 104 q 506 132 471 104 q 574 205 541 159 q 634 314 606 252 q 682 447 662 376 q 714 591 703 517 q 726 734 726 665 q 719 841 726 795 q 692 917 712 886 q 638 963 673 947 q 549 978 604 978 q 397 953 469 978 q 269 882 324 928 q 181 769 214 836 q 149 621 149 703 q 151 588 149 600 q 156 567 153 575 q 160 555 158 559 q 163 546 163 550 q 59 572 96 546 q 22 663 22 599 q 43 758 22 711 q 102 847 64 805 q 192 925 140 890 q 307 987 244 961 q 439 1027 369 1013 q 582 1042 509 1042 q 736 1015 673 1042 q 838 942 799 989 q 893 829 876 895 q 911 686 911 764 q 898 542 911 619 q 859 387 886 464 q 791 238 832 310 q 693 112 750 167 q 563 25 636 58 q 399 -8 490 -8 q 298 7 344 -8 q 220 55 253 22 q 168 141 186 88 q 150 271 150 195 q 160 397 150 327 q 192 539 171 467 q 244 681 213 612 q 318 804 276 750 q 412 890 359 857 q 526 922 464 922 q 562 920 544 922 q 599 911 579 918 m 570 1227 q 563 1194 570 1209 q 544 1167 556 1179 q 517 1150 532 1156 q 485 1143 502 1143 q 451 1150 467 1143 q 424 1167 435 1156 q 407 1194 413 1179 q 400 1227 400 1209 q 407 1260 400 1244 q 424 1287 413 1276 q 451 1305 435 1299 q 485 1312 467 1312 q 517 1305 502 1312 q 544 1287 532 1299 q 563 1260 556 1276 q 570 1227 570 1244 m 819 1227 q 812 1194 819 1209 q 794 1167 806 1179 q 767 1150 783 1156 q 734 1143 751 1143 q 701 1150 716 1143 q 674 1167 686 1156 q 656 1194 663 1179 q 650 1227 650 1209 q 656 1260 650 1244 q 674 1287 663 1276 q 701 1305 686 1299 q 734 1312 716 1312 q 767 1305 751 1312 q 794 1287 783 1299 q 812 1260 806 1276 q 819 1227 819 1244 z "},"":{"ha":924,"x_min":22,"x_max":911,"o":"m 599 911 q 537 851 567 892 q 479 757 507 811 q 430 640 452 703 q 390 511 407 576 q 365 382 374 446 q 355 265 355 319 q 360 200 355 230 q 374 150 365 171 q 399 116 384 128 q 436 104 414 104 q 506 132 471 104 q 574 205 541 159 q 634 314 606 252 q 682 447 662 376 q 714 591 703 517 q 726 734 726 665 q 719 841 726 795 q 692 917 712 886 q 638 963 673 947 q 549 978 604 978 q 397 953 469 978 q 269 882 324 928 q 181 769 214 836 q 149 621 149 703 q 151 588 149 600 q 156 567 153 575 q 160 555 158 559 q 163 546 163 550 q 59 572 96 546 q 22 663 22 599 q 43 758 22 711 q 102 847 64 805 q 192 925 140 890 q 307 987 244 961 q 439 1027 369 1013 q 582 1042 509 1042 q 736 1015 673 1042 q 838 942 799 989 q 893 829 876 895 q 911 686 911 764 q 898 542 911 619 q 859 387 886 464 q 791 238 832 310 q 693 112 750 167 q 563 25 636 58 q 399 -8 490 -8 q 298 7 344 -8 q 220 55 253 22 q 168 141 186 88 q 150 271 150 195 q 160 397 150 327 q 192 539 171 467 q 244 681 213 612 q 318 804 276 750 q 412 890 359 857 q 526 922 464 922 q 562 920 544 922 q 599 911 579 918 m 501 1126 l 419 1389 l 565 1389 l 605 1126 l 501 1126 z "},"":{"ha":914,"x_min":21,"x_max":878,"o":"m 368 -98 l 387 -8 l 385 -8 q 287 6 332 -8 q 211 52 243 20 q 162 133 180 83 q 144 254 144 183 q 155 372 144 307 q 185 506 165 438 q 236 637 205 573 q 306 752 266 702 q 397 833 347 803 q 507 864 447 864 q 539 862 524 864 q 570 854 555 860 l 582 911 q 557 915 570 913 q 529 916 544 916 q 382 892 452 916 q 259 825 312 869 q 175 720 206 782 q 143 581 143 658 q 145 550 143 562 q 150 531 147 538 q 155 519 153 524 q 157 511 157 515 q 57 536 93 511 q 21 619 21 560 q 41 709 21 665 q 98 793 62 753 q 185 866 134 833 q 295 924 235 899 q 423 962 355 948 q 561 975 490 975 q 578 975 570 975 q 595 974 586 975 l 610 1042 l 682 1042 l 665 964 q 764 920 724 949 q 830 849 804 891 q 866 755 855 808 q 878 642 878 703 q 867 517 878 584 q 835 384 857 451 q 780 254 813 317 q 700 138 746 190 q 594 48 654 85 q 461 -1 534 12 l 440 -98 l 368 -98 m 568 847 q 510 789 538 827 q 457 701 482 751 q 412 592 433 650 q 375 473 391 533 q 352 355 360 413 q 343 249 343 297 q 358 145 343 186 q 410 97 373 104 l 568 847 m 488 122 q 542 177 515 142 q 592 256 568 212 q 635 353 616 301 q 669 461 655 406 q 692 575 684 517 q 700 688 700 633 q 690 805 700 758 q 647 880 680 852 l 488 122 z "},"":{"ha":924,"x_min":22,"x_max":937,"o":"m 599 911 q 537 851 567 892 q 479 757 507 811 q 430 640 452 703 q 390 511 407 576 q 365 382 374 446 q 355 265 355 319 q 360 200 355 230 q 374 150 365 171 q 399 116 384 128 q 436 104 414 104 q 506 132 471 104 q 574 205 541 159 q 634 314 606 252 q 682 447 662 376 q 714 591 703 517 q 726 734 726 665 q 719 841 726 795 q 692 917 712 886 q 638 963 673 947 q 549 978 604 978 q 397 953 469 978 q 269 882 324 928 q 181 769 214 836 q 149 621 149 703 q 151 588 149 600 q 156 567 153 575 q 160 555 158 559 q 163 546 163 550 q 59 572 96 546 q 22 663 22 599 q 43 758 22 711 q 102 847 64 805 q 192 925 140 890 q 307 987 244 961 q 439 1027 369 1013 q 582 1042 509 1042 q 736 1015 673 1042 q 838 942 799 989 q 893 829 876 895 q 911 686 911 764 q 898 542 911 619 q 859 387 886 464 q 791 238 832 310 q 693 112 750 167 q 563 25 636 58 q 399 -8 490 -8 q 298 7 344 -8 q 220 55 253 22 q 168 141 186 88 q 150 271 150 195 q 160 397 150 327 q 192 539 171 467 q 244 681 213 612 q 318 804 276 750 q 412 890 359 857 q 526 922 464 922 q 562 920 544 922 q 599 911 579 918 m 937 1276 q 911 1227 932 1252 q 860 1182 890 1202 q 791 1150 829 1162 q 714 1137 753 1137 q 649 1145 679 1137 q 591 1163 619 1154 q 537 1181 564 1173 q 481 1189 510 1189 q 389 1153 429 1189 l 380 1156 q 474 1257 414 1223 q 612 1292 533 1292 q 679 1285 650 1292 q 734 1269 709 1278 q 786 1253 760 1260 q 842 1246 811 1246 q 890 1254 867 1246 q 929 1278 913 1262 l 937 1276 z "},"":{"ha":791,"x_min":47,"x_max":770,"o":"m 497 1126 l 624 1389 l 770 1389 l 602 1126 l 497 1126 m 768 854 q 760 801 768 825 q 739 760 752 777 q 705 733 725 743 q 663 724 686 724 q 615 735 636 724 q 578 767 593 746 q 619 818 604 786 q 635 885 635 849 q 608 956 635 930 q 536 982 582 982 q 485 971 508 982 q 445 942 461 961 q 419 898 428 924 q 410 842 410 872 q 432 755 410 795 q 488 675 454 714 q 562 595 522 635 q 635 509 601 555 q 691 410 669 463 q 713 292 713 357 q 685 166 713 224 q 606 65 656 108 q 487 -1 555 23 q 340 -25 419 -25 q 219 -8 273 -25 q 127 42 165 9 q 68 119 89 74 q 47 218 47 163 q 62 304 47 264 q 102 374 77 345 q 163 420 128 404 q 239 437 199 437 q 321 413 288 437 q 362 346 354 389 q 296 336 326 346 q 247 307 267 326 q 215 263 227 289 q 204 204 204 237 q 240 107 204 143 q 336 72 275 72 q 404 85 372 72 q 457 121 435 98 q 492 176 479 144 q 505 245 505 208 q 493 318 505 283 q 459 386 480 353 q 412 451 438 419 q 357 515 385 483 q 303 580 330 547 q 256 647 277 612 q 222 718 235 681 q 210 795 210 754 q 233 896 210 850 q 298 977 256 943 q 397 1030 340 1010 q 521 1049 454 1049 q 623 1035 577 1049 q 700 996 668 1021 q 750 935 732 970 q 768 854 768 899 z "},"":{"ha":791,"x_min":47,"x_max":888,"o":"m 594 1126 l 565 1126 l 481 1389 l 526 1389 l 610 1278 l 827 1389 l 888 1389 l 594 1126 m 768 854 q 760 801 768 825 q 739 760 752 777 q 705 733 725 743 q 663 724 686 724 q 615 735 636 724 q 578 767 593 746 q 619 818 604 786 q 635 885 635 849 q 608 956 635 930 q 536 982 582 982 q 485 971 508 982 q 445 942 461 961 q 419 898 428 924 q 410 842 410 872 q 432 755 410 795 q 488 675 454 714 q 562 595 522 635 q 635 509 601 555 q 691 410 669 463 q 713 292 713 357 q 685 166 713 224 q 606 65 656 108 q 487 -1 555 23 q 340 -25 419 -25 q 219 -8 273 -25 q 127 42 165 9 q 68 119 89 74 q 47 218 47 163 q 62 304 47 264 q 102 374 77 345 q 163 420 128 404 q 239 437 199 437 q 321 413 288 437 q 362 346 354 389 q 296 336 326 346 q 247 307 267 326 q 215 263 227 289 q 204 204 204 237 q 240 107 204 143 q 336 72 275 72 q 404 85 372 72 q 457 121 435 98 q 492 176 479 144 q 505 245 505 208 q 493 318 505 283 q 459 386 480 353 q 412 451 438 419 q 357 515 385 483 q 303 580 330 547 q 256 647 277 612 q 222 718 235 681 q 210 795 210 754 q 233 896 210 850 q 298 977 256 943 q 397 1030 340 1010 q 521 1049 454 1049 q 623 1035 577 1049 q 700 996 668 1021 q 750 935 732 970 q 768 854 768 899 z "},"":{"ha":810,"x_min":8,"x_max":823,"o":"m 131 0 l 297 781 q 178 666 219 740 q 138 488 138 593 q 141 445 138 461 q 147 418 144 428 q 154 402 151 408 q 157 393 157 397 q 93 400 121 393 q 46 423 65 408 q 18 465 28 439 q 8 528 8 490 q 33 628 8 578 q 98 721 57 677 q 195 799 140 764 q 313 856 250 834 l 347 1014 l 553 1042 l 519 889 q 656 861 599 885 q 750 800 713 837 q 805 715 787 763 q 823 615 823 667 q 796 483 823 549 q 716 363 768 416 q 590 276 665 309 q 422 243 516 243 l 382 243 l 330 0 l 131 0 m 412 294 q 483 309 449 294 q 545 350 516 324 q 596 409 573 375 q 635 480 619 442 q 661 558 652 518 q 669 636 669 598 q 660 706 669 673 q 631 766 651 740 q 581 807 612 791 q 507 825 551 823 l 393 294 l 412 294 z "},"":{"ha":994,"x_min":-7,"x_max":1050,"o":"m 854 1039 l 1050 1039 l 958 606 q 913 413 936 500 q 864 258 891 327 q 802 140 836 190 q 721 56 767 90 q 615 7 675 23 q 477 -9 555 -9 q 350 5 401 -9 q 268 48 299 20 q 222 117 236 76 q 208 211 208 158 q 218 325 208 263 q 243 457 227 387 q 279 609 258 528 q 322 778 300 689 l 368 961 q 266 918 311 946 q 189 849 220 890 q 139 757 157 809 q 122 642 122 705 q 125 597 122 614 q 132 571 128 581 q 139 556 136 561 q 142 546 142 551 q 79 553 107 546 q 33 574 52 559 q 3 614 14 589 q -7 673 -7 638 q 14 769 -7 722 q 70 856 34 815 q 155 931 105 897 q 262 990 204 965 q 386 1028 321 1015 q 518 1042 451 1042 q 549 1040 536 1042 q 585 1035 563 1039 q 526 819 552 916 q 479 645 500 722 q 443 508 458 568 q 417 400 427 448 q 402 317 408 353 q 397 252 397 281 q 419 159 397 192 q 493 126 440 126 q 547 131 523 126 q 593 151 572 135 q 634 197 615 166 q 674 282 654 229 q 715 416 694 336 q 762 610 736 496 l 854 1039 m 620 1126 l 746 1389 l 892 1389 l 724 1126 l 620 1126 z "},"":{"ha":994,"x_min":-7,"x_max":1050,"o":"m 854 1039 l 1050 1039 l 958 606 q 913 413 936 500 q 864 258 891 327 q 802 140 836 190 q 721 56 767 90 q 615 7 675 23 q 477 -9 555 -9 q 350 5 401 -9 q 268 48 299 20 q 222 117 236 76 q 208 211 208 158 q 218 325 208 263 q 243 457 227 387 q 279 609 258 528 q 322 778 300 689 l 368 961 q 266 918 311 946 q 189 849 220 890 q 139 757 157 809 q 122 642 122 705 q 125 597 122 614 q 132 571 128 581 q 139 556 136 561 q 142 546 142 551 q 79 553 107 546 q 33 574 52 559 q 3 614 14 589 q -7 673 -7 638 q 14 769 -7 722 q 70 856 34 815 q 155 931 105 897 q 262 990 204 965 q 386 1028 321 1015 q 518 1042 451 1042 q 549 1040 536 1042 q 585 1035 563 1039 q 526 819 552 916 q 479 645 500 722 q 443 508 458 568 q 417 400 427 448 q 402 317 408 353 q 397 252 397 281 q 419 159 397 192 q 493 126 440 126 q 547 131 523 126 q 593 151 572 135 q 634 197 615 166 q 674 282 654 229 q 715 416 694 336 q 762 610 736 496 l 854 1039 m 860 1126 l 777 1238 l 559 1126 l 497 1126 l 792 1389 l 821 1389 l 904 1126 l 860 1126 z "},"":{"ha":994,"x_min":-7,"x_max":1050,"o":"m 854 1039 l 1050 1039 l 958 606 q 913 413 936 500 q 864 258 891 327 q 802 140 836 190 q 721 56 767 90 q 615 7 675 23 q 477 -9 555 -9 q 350 5 401 -9 q 268 48 299 20 q 222 117 236 76 q 208 211 208 158 q 218 325 208 263 q 243 457 227 387 q 279 609 258 528 q 322 778 300 689 l 368 961 q 266 918 311 946 q 189 849 220 890 q 139 757 157 809 q 122 642 122 705 q 125 597 122 614 q 132 571 128 581 q 139 556 136 561 q 142 546 142 551 q 79 553 107 546 q 33 574 52 559 q 3 614 14 589 q -7 673 -7 638 q 14 769 -7 722 q 70 856 34 815 q 155 931 105 897 q 262 990 204 965 q 386 1028 321 1015 q 518 1042 451 1042 q 549 1040 536 1042 q 585 1035 563 1039 q 526 819 552 916 q 479 645 500 722 q 443 508 458 568 q 417 400 427 448 q 402 317 408 353 q 397 252 397 281 q 419 159 397 192 q 493 126 440 126 q 547 131 523 126 q 593 151 572 135 q 634 197 615 166 q 674 282 654 229 q 715 416 694 336 q 762 610 736 496 l 854 1039 m 694 1227 q 688 1194 694 1209 q 669 1167 681 1179 q 642 1150 657 1156 q 610 1143 627 1143 q 576 1150 591 1143 q 549 1167 560 1156 q 531 1194 538 1179 q 525 1227 525 1209 q 531 1260 525 1244 q 549 1287 538 1276 q 576 1305 560 1299 q 610 1312 591 1312 q 642 1305 627 1312 q 669 1287 657 1299 q 688 1260 681 1276 q 694 1227 694 1244 m 944 1227 q 937 1194 944 1209 q 919 1167 930 1179 q 892 1150 907 1156 q 859 1143 876 1143 q 799 1167 823 1143 q 775 1227 775 1191 q 782 1260 775 1244 q 799 1287 788 1276 q 826 1305 810 1299 q 859 1312 841 1312 q 892 1305 876 1312 q 919 1287 907 1299 q 937 1260 930 1276 q 944 1227 944 1244 z "},"":{"ha":994,"x_min":-7,"x_max":1050,"o":"m 854 1039 l 1050 1039 l 958 606 q 913 413 936 500 q 864 258 891 327 q 802 140 836 190 q 721 56 767 90 q 615 7 675 23 q 477 -9 555 -9 q 350 5 401 -9 q 268 48 299 20 q 222 117 236 76 q 208 211 208 158 q 218 325 208 263 q 243 457 227 387 q 279 609 258 528 q 322 778 300 689 l 368 961 q 266 918 311 946 q 189 849 220 890 q 139 757 157 809 q 122 642 122 705 q 125 597 122 614 q 132 571 128 581 q 139 556 136 561 q 142 546 142 551 q 79 553 107 546 q 33 574 52 559 q 3 614 14 589 q -7 673 -7 638 q 14 769 -7 722 q 70 856 34 815 q 155 931 105 897 q 262 990 204 965 q 386 1028 321 1015 q 518 1042 451 1042 q 549 1040 536 1042 q 585 1035 563 1039 q 526 819 552 916 q 479 645 500 722 q 443 508 458 568 q 417 400 427 448 q 402 317 408 353 q 397 252 397 281 q 419 159 397 192 q 493 126 440 126 q 547 131 523 126 q 593 151 572 135 q 634 197 615 166 q 674 282 654 229 q 715 416 694 336 q 762 610 736 496 l 854 1039 m 645 1126 l 563 1389 l 709 1389 l 749 1126 l 645 1126 z "},"":{"ha":861,"x_min":8,"x_max":970,"o":"m 386 0 l 478 428 l 345 949 q 192 834 247 912 q 138 640 138 756 q 141 597 138 614 q 147 571 144 581 q 154 555 151 561 q 157 546 157 550 q 93 553 121 546 q 46 576 65 560 q 18 617 28 591 q 8 681 8 643 q 28 772 8 727 q 83 857 48 817 q 165 930 118 897 q 266 989 212 964 q 379 1028 320 1014 q 496 1042 437 1042 q 525 1041 511 1042 q 551 1039 538 1040 l 672 542 l 878 1035 l 970 1035 l 700 428 l 608 0 l 386 0 m 684 1126 l 810 1389 l 956 1389 l 787 1126 l 684 1126 z "},"":{"ha":861,"x_min":8,"x_max":970,"o":"m 386 0 l 478 428 l 345 949 q 192 834 247 912 q 138 640 138 756 q 141 597 138 614 q 147 571 144 581 q 154 555 151 561 q 157 546 157 550 q 93 553 121 546 q 46 576 65 560 q 18 617 28 591 q 8 681 8 643 q 28 772 8 727 q 83 857 48 817 q 165 930 118 897 q 266 989 212 964 q 379 1028 320 1014 q 496 1042 437 1042 q 525 1041 511 1042 q 551 1039 538 1040 l 672 542 l 878 1035 l 970 1035 l 700 428 l 608 0 l 386 0 m 696 1227 q 689 1194 696 1209 q 671 1167 682 1179 q 644 1150 659 1156 q 611 1143 628 1143 q 577 1150 593 1143 q 550 1167 562 1156 q 533 1194 539 1179 q 526 1227 526 1209 q 533 1260 526 1244 q 550 1287 539 1276 q 577 1305 562 1299 q 611 1312 593 1312 q 644 1305 628 1312 q 671 1287 659 1299 q 689 1260 682 1276 q 696 1227 696 1244 m 946 1227 q 939 1194 946 1209 q 921 1167 932 1179 q 893 1150 909 1156 q 861 1143 878 1143 q 827 1150 843 1143 q 801 1167 812 1156 q 783 1194 789 1179 q 777 1227 777 1209 q 783 1260 777 1244 q 801 1287 789 1276 q 827 1305 812 1299 q 861 1312 843 1312 q 893 1305 878 1312 q 921 1287 909 1299 q 939 1260 932 1276 q 946 1227 946 1244 z "},"":{"ha":753,"x_min":16,"x_max":777,"o":"m 16 0 l 501 966 q 446 968 479 966 q 376 970 413 970 q 329 968 352 970 q 288 964 306 967 q 260 954 271 960 q 249 939 249 948 q 264 929 256 939 q 272 895 272 920 q 264 856 272 871 q 243 832 256 841 q 217 819 231 823 q 191 815 203 815 q 157 823 170 815 q 135 842 143 830 q 123 868 126 853 q 119 897 119 883 q 131 949 119 924 q 163 996 142 975 q 216 1029 184 1017 q 290 1042 248 1042 l 766 1042 l 288 90 q 351 89 316 90 q 421 87 387 87 q 469 89 446 87 q 511 93 492 90 q 545 102 530 96 q 566 118 559 108 q 549 127 558 118 q 541 161 541 136 q 548 199 541 184 q 568 224 556 214 q 595 237 580 233 q 624 241 610 241 q 656 234 643 241 q 679 216 670 227 q 691 190 687 205 q 694 161 694 176 q 682 106 694 135 q 647 54 670 77 q 591 15 624 31 q 517 0 558 0 l 16 0 m 504 1126 l 631 1389 l 777 1389 l 608 1126 l 504 1126 z "},"":{"ha":753,"x_min":16,"x_max":829,"o":"m 16 0 l 501 966 q 446 968 479 966 q 376 970 413 970 q 329 968 352 970 q 288 964 306 967 q 260 954 271 960 q 249 939 249 948 q 264 929 256 939 q 272 895 272 920 q 264 856 272 871 q 243 832 256 841 q 217 819 231 823 q 191 815 203 815 q 157 823 170 815 q 135 842 143 830 q 123 868 126 853 q 119 897 119 883 q 131 949 119 924 q 163 996 142 975 q 216 1029 184 1017 q 290 1042 248 1042 l 766 1042 l 288 90 q 351 89 316 90 q 421 87 387 87 q 469 89 446 87 q 511 93 492 90 q 545 102 530 96 q 566 118 559 108 q 549 127 558 118 q 541 161 541 136 q 548 199 541 184 q 568 224 556 214 q 595 237 580 233 q 624 241 610 241 q 656 234 643 241 q 679 216 670 227 q 691 190 687 205 q 694 161 694 176 q 682 106 694 135 q 647 54 670 77 q 591 15 624 31 q 517 0 558 0 l 16 0 m 534 1126 l 505 1126 l 422 1389 l 467 1389 l 550 1278 l 768 1389 l 829 1389 l 534 1126 z "}}}
